%TF.GenerationSoftware,KiCad,Pcbnew,7.0.8*%
%TF.CreationDate,2024-08-21T13:00:36+09:00*%
%TF.ProjectId,adder,61646465-722e-46b6-9963-61645f706362,rev?*%
%TF.SameCoordinates,Original*%
%TF.FileFunction,Legend,Top*%
%TF.FilePolarity,Positive*%
%FSLAX46Y46*%
G04 Gerber Fmt 4.6, Leading zero omitted, Abs format (unit mm)*
G04 Created by KiCad (PCBNEW 7.0.8) date 2024-08-21 13:00:36*
%MOMM*%
%LPD*%
G01*
G04 APERTURE LIST*
%ADD10C,0.150000*%
%ADD11C,0.120000*%
%ADD12C,0.010000*%
G04 APERTURE END LIST*
D10*
X78425874Y-62597152D02*
X78425874Y-61168580D01*
X79568731Y-62263819D02*
X79568731Y-61740009D01*
X79568731Y-61740009D02*
X79521112Y-61644771D01*
X79521112Y-61644771D02*
X79425874Y-61597152D01*
X79425874Y-61597152D02*
X79235398Y-61597152D01*
X79235398Y-61597152D02*
X79140160Y-61644771D01*
X79568731Y-62216200D02*
X79473493Y-62263819D01*
X79473493Y-62263819D02*
X79235398Y-62263819D01*
X79235398Y-62263819D02*
X79140160Y-62216200D01*
X79140160Y-62216200D02*
X79092541Y-62120961D01*
X79092541Y-62120961D02*
X79092541Y-62025723D01*
X79092541Y-62025723D02*
X79140160Y-61930485D01*
X79140160Y-61930485D02*
X79235398Y-61882866D01*
X79235398Y-61882866D02*
X79473493Y-61882866D01*
X79473493Y-61882866D02*
X79568731Y-61835247D01*
X79806827Y-62359057D02*
X80568731Y-62359057D01*
X81235398Y-61597152D02*
X81235398Y-62263819D01*
X80997303Y-61216200D02*
X80759208Y-61930485D01*
X80759208Y-61930485D02*
X81378255Y-61930485D01*
X81997303Y-62597152D02*
X81997303Y-61168580D01*
X83140160Y-62216200D02*
X83044922Y-62263819D01*
X83044922Y-62263819D02*
X82854446Y-62263819D01*
X82854446Y-62263819D02*
X82759208Y-62216200D01*
X82759208Y-62216200D02*
X82711589Y-62168580D01*
X82711589Y-62168580D02*
X82663970Y-62073342D01*
X82663970Y-62073342D02*
X82663970Y-61787628D01*
X82663970Y-61787628D02*
X82711589Y-61692390D01*
X82711589Y-61692390D02*
X82759208Y-61644771D01*
X82759208Y-61644771D02*
X82854446Y-61597152D01*
X82854446Y-61597152D02*
X83044922Y-61597152D01*
X83044922Y-61597152D02*
X83140160Y-61644771D01*
X83330637Y-62359057D02*
X84092541Y-62359057D01*
X84473494Y-62263819D02*
X84378256Y-62216200D01*
X84378256Y-62216200D02*
X84330637Y-62168580D01*
X84330637Y-62168580D02*
X84283018Y-62073342D01*
X84283018Y-62073342D02*
X84283018Y-61787628D01*
X84283018Y-61787628D02*
X84330637Y-61692390D01*
X84330637Y-61692390D02*
X84378256Y-61644771D01*
X84378256Y-61644771D02*
X84473494Y-61597152D01*
X84473494Y-61597152D02*
X84616351Y-61597152D01*
X84616351Y-61597152D02*
X84711589Y-61644771D01*
X84711589Y-61644771D02*
X84759208Y-61692390D01*
X84759208Y-61692390D02*
X84806827Y-61787628D01*
X84806827Y-61787628D02*
X84806827Y-62073342D01*
X84806827Y-62073342D02*
X84759208Y-62168580D01*
X84759208Y-62168580D02*
X84711589Y-62216200D01*
X84711589Y-62216200D02*
X84616351Y-62263819D01*
X84616351Y-62263819D02*
X84473494Y-62263819D01*
X85663970Y-61597152D02*
X85663970Y-62263819D01*
X85235399Y-61597152D02*
X85235399Y-62120961D01*
X85235399Y-62120961D02*
X85283018Y-62216200D01*
X85283018Y-62216200D02*
X85378256Y-62263819D01*
X85378256Y-62263819D02*
X85521113Y-62263819D01*
X85521113Y-62263819D02*
X85616351Y-62216200D01*
X85616351Y-62216200D02*
X85663970Y-62168580D01*
X85997304Y-61597152D02*
X86378256Y-61597152D01*
X86140161Y-61263819D02*
X86140161Y-62120961D01*
X86140161Y-62120961D02*
X86187780Y-62216200D01*
X86187780Y-62216200D02*
X86283018Y-62263819D01*
X86283018Y-62263819D02*
X86378256Y-62263819D01*
X86949685Y-62597152D02*
X86949685Y-61168580D01*
X78425874Y-64207152D02*
X78425874Y-62778580D01*
X79568731Y-63873819D02*
X79568731Y-63350009D01*
X79568731Y-63350009D02*
X79521112Y-63254771D01*
X79521112Y-63254771D02*
X79425874Y-63207152D01*
X79425874Y-63207152D02*
X79235398Y-63207152D01*
X79235398Y-63207152D02*
X79140160Y-63254771D01*
X79568731Y-63826200D02*
X79473493Y-63873819D01*
X79473493Y-63873819D02*
X79235398Y-63873819D01*
X79235398Y-63873819D02*
X79140160Y-63826200D01*
X79140160Y-63826200D02*
X79092541Y-63730961D01*
X79092541Y-63730961D02*
X79092541Y-63635723D01*
X79092541Y-63635723D02*
X79140160Y-63540485D01*
X79140160Y-63540485D02*
X79235398Y-63492866D01*
X79235398Y-63492866D02*
X79473493Y-63492866D01*
X79473493Y-63492866D02*
X79568731Y-63445247D01*
X79806827Y-63969057D02*
X80568731Y-63969057D01*
X80711589Y-62873819D02*
X81330636Y-62873819D01*
X81330636Y-62873819D02*
X80997303Y-63254771D01*
X80997303Y-63254771D02*
X81140160Y-63254771D01*
X81140160Y-63254771D02*
X81235398Y-63302390D01*
X81235398Y-63302390D02*
X81283017Y-63350009D01*
X81283017Y-63350009D02*
X81330636Y-63445247D01*
X81330636Y-63445247D02*
X81330636Y-63683342D01*
X81330636Y-63683342D02*
X81283017Y-63778580D01*
X81283017Y-63778580D02*
X81235398Y-63826200D01*
X81235398Y-63826200D02*
X81140160Y-63873819D01*
X81140160Y-63873819D02*
X80854446Y-63873819D01*
X80854446Y-63873819D02*
X80759208Y-63826200D01*
X80759208Y-63826200D02*
X80711589Y-63778580D01*
X81997303Y-64207152D02*
X81997303Y-62778580D01*
X82711589Y-63873819D02*
X82711589Y-62873819D01*
X82711589Y-63254771D02*
X82806827Y-63207152D01*
X82806827Y-63207152D02*
X82997303Y-63207152D01*
X82997303Y-63207152D02*
X83092541Y-63254771D01*
X83092541Y-63254771D02*
X83140160Y-63302390D01*
X83140160Y-63302390D02*
X83187779Y-63397628D01*
X83187779Y-63397628D02*
X83187779Y-63683342D01*
X83187779Y-63683342D02*
X83140160Y-63778580D01*
X83140160Y-63778580D02*
X83092541Y-63826200D01*
X83092541Y-63826200D02*
X82997303Y-63873819D01*
X82997303Y-63873819D02*
X82806827Y-63873819D01*
X82806827Y-63873819D02*
X82711589Y-63826200D01*
X83378256Y-63969057D02*
X84140160Y-63969057D01*
X84806827Y-63207152D02*
X84806827Y-63873819D01*
X84568732Y-62826200D02*
X84330637Y-63540485D01*
X84330637Y-63540485D02*
X84949684Y-63540485D01*
X85568732Y-64207152D02*
X85568732Y-62778580D01*
X78425874Y-65817152D02*
X78425874Y-64388580D01*
X79568731Y-65483819D02*
X79568731Y-64960009D01*
X79568731Y-64960009D02*
X79521112Y-64864771D01*
X79521112Y-64864771D02*
X79425874Y-64817152D01*
X79425874Y-64817152D02*
X79235398Y-64817152D01*
X79235398Y-64817152D02*
X79140160Y-64864771D01*
X79568731Y-65436200D02*
X79473493Y-65483819D01*
X79473493Y-65483819D02*
X79235398Y-65483819D01*
X79235398Y-65483819D02*
X79140160Y-65436200D01*
X79140160Y-65436200D02*
X79092541Y-65340961D01*
X79092541Y-65340961D02*
X79092541Y-65245723D01*
X79092541Y-65245723D02*
X79140160Y-65150485D01*
X79140160Y-65150485D02*
X79235398Y-65102866D01*
X79235398Y-65102866D02*
X79473493Y-65102866D01*
X79473493Y-65102866D02*
X79568731Y-65055247D01*
X79806827Y-65579057D02*
X80568731Y-65579057D01*
X80759208Y-64579057D02*
X80806827Y-64531438D01*
X80806827Y-64531438D02*
X80902065Y-64483819D01*
X80902065Y-64483819D02*
X81140160Y-64483819D01*
X81140160Y-64483819D02*
X81235398Y-64531438D01*
X81235398Y-64531438D02*
X81283017Y-64579057D01*
X81283017Y-64579057D02*
X81330636Y-64674295D01*
X81330636Y-64674295D02*
X81330636Y-64769533D01*
X81330636Y-64769533D02*
X81283017Y-64912390D01*
X81283017Y-64912390D02*
X80711589Y-65483819D01*
X80711589Y-65483819D02*
X81330636Y-65483819D01*
X81997303Y-65817152D02*
X81997303Y-64388580D01*
X82711589Y-65483819D02*
X82711589Y-64483819D01*
X82711589Y-64864771D02*
X82806827Y-64817152D01*
X82806827Y-64817152D02*
X82997303Y-64817152D01*
X82997303Y-64817152D02*
X83092541Y-64864771D01*
X83092541Y-64864771D02*
X83140160Y-64912390D01*
X83140160Y-64912390D02*
X83187779Y-65007628D01*
X83187779Y-65007628D02*
X83187779Y-65293342D01*
X83187779Y-65293342D02*
X83140160Y-65388580D01*
X83140160Y-65388580D02*
X83092541Y-65436200D01*
X83092541Y-65436200D02*
X82997303Y-65483819D01*
X82997303Y-65483819D02*
X82806827Y-65483819D01*
X82806827Y-65483819D02*
X82711589Y-65436200D01*
X83378256Y-65579057D02*
X84140160Y-65579057D01*
X84283018Y-64483819D02*
X84902065Y-64483819D01*
X84902065Y-64483819D02*
X84568732Y-64864771D01*
X84568732Y-64864771D02*
X84711589Y-64864771D01*
X84711589Y-64864771D02*
X84806827Y-64912390D01*
X84806827Y-64912390D02*
X84854446Y-64960009D01*
X84854446Y-64960009D02*
X84902065Y-65055247D01*
X84902065Y-65055247D02*
X84902065Y-65293342D01*
X84902065Y-65293342D02*
X84854446Y-65388580D01*
X84854446Y-65388580D02*
X84806827Y-65436200D01*
X84806827Y-65436200D02*
X84711589Y-65483819D01*
X84711589Y-65483819D02*
X84425875Y-65483819D01*
X84425875Y-65483819D02*
X84330637Y-65436200D01*
X84330637Y-65436200D02*
X84283018Y-65388580D01*
X85568732Y-65817152D02*
X85568732Y-64388580D01*
X78425874Y-67427152D02*
X78425874Y-65998580D01*
X79568731Y-67093819D02*
X79568731Y-66570009D01*
X79568731Y-66570009D02*
X79521112Y-66474771D01*
X79521112Y-66474771D02*
X79425874Y-66427152D01*
X79425874Y-66427152D02*
X79235398Y-66427152D01*
X79235398Y-66427152D02*
X79140160Y-66474771D01*
X79568731Y-67046200D02*
X79473493Y-67093819D01*
X79473493Y-67093819D02*
X79235398Y-67093819D01*
X79235398Y-67093819D02*
X79140160Y-67046200D01*
X79140160Y-67046200D02*
X79092541Y-66950961D01*
X79092541Y-66950961D02*
X79092541Y-66855723D01*
X79092541Y-66855723D02*
X79140160Y-66760485D01*
X79140160Y-66760485D02*
X79235398Y-66712866D01*
X79235398Y-66712866D02*
X79473493Y-66712866D01*
X79473493Y-66712866D02*
X79568731Y-66665247D01*
X79806827Y-67189057D02*
X80568731Y-67189057D01*
X81330636Y-67093819D02*
X80759208Y-67093819D01*
X81044922Y-67093819D02*
X81044922Y-66093819D01*
X81044922Y-66093819D02*
X80949684Y-66236676D01*
X80949684Y-66236676D02*
X80854446Y-66331914D01*
X80854446Y-66331914D02*
X80759208Y-66379533D01*
X81997303Y-67427152D02*
X81997303Y-65998580D01*
X82711589Y-67093819D02*
X82711589Y-66093819D01*
X82711589Y-66474771D02*
X82806827Y-66427152D01*
X82806827Y-66427152D02*
X82997303Y-66427152D01*
X82997303Y-66427152D02*
X83092541Y-66474771D01*
X83092541Y-66474771D02*
X83140160Y-66522390D01*
X83140160Y-66522390D02*
X83187779Y-66617628D01*
X83187779Y-66617628D02*
X83187779Y-66903342D01*
X83187779Y-66903342D02*
X83140160Y-66998580D01*
X83140160Y-66998580D02*
X83092541Y-67046200D01*
X83092541Y-67046200D02*
X82997303Y-67093819D01*
X82997303Y-67093819D02*
X82806827Y-67093819D01*
X82806827Y-67093819D02*
X82711589Y-67046200D01*
X83378256Y-67189057D02*
X84140160Y-67189057D01*
X84330637Y-66189057D02*
X84378256Y-66141438D01*
X84378256Y-66141438D02*
X84473494Y-66093819D01*
X84473494Y-66093819D02*
X84711589Y-66093819D01*
X84711589Y-66093819D02*
X84806827Y-66141438D01*
X84806827Y-66141438D02*
X84854446Y-66189057D01*
X84854446Y-66189057D02*
X84902065Y-66284295D01*
X84902065Y-66284295D02*
X84902065Y-66379533D01*
X84902065Y-66379533D02*
X84854446Y-66522390D01*
X84854446Y-66522390D02*
X84283018Y-67093819D01*
X84283018Y-67093819D02*
X84902065Y-67093819D01*
X85568732Y-67427152D02*
X85568732Y-65998580D01*
X78425874Y-69037152D02*
X78425874Y-67608580D01*
X79568731Y-68656200D02*
X79473493Y-68703819D01*
X79473493Y-68703819D02*
X79283017Y-68703819D01*
X79283017Y-68703819D02*
X79187779Y-68656200D01*
X79187779Y-68656200D02*
X79140160Y-68608580D01*
X79140160Y-68608580D02*
X79092541Y-68513342D01*
X79092541Y-68513342D02*
X79092541Y-68227628D01*
X79092541Y-68227628D02*
X79140160Y-68132390D01*
X79140160Y-68132390D02*
X79187779Y-68084771D01*
X79187779Y-68084771D02*
X79283017Y-68037152D01*
X79283017Y-68037152D02*
X79473493Y-68037152D01*
X79473493Y-68037152D02*
X79568731Y-68084771D01*
X79759208Y-68799057D02*
X80521112Y-68799057D01*
X80759208Y-68703819D02*
X80759208Y-68037152D01*
X80759208Y-67703819D02*
X80711589Y-67751438D01*
X80711589Y-67751438D02*
X80759208Y-67799057D01*
X80759208Y-67799057D02*
X80806827Y-67751438D01*
X80806827Y-67751438D02*
X80759208Y-67703819D01*
X80759208Y-67703819D02*
X80759208Y-67799057D01*
X81235398Y-68037152D02*
X81235398Y-68703819D01*
X81235398Y-68132390D02*
X81283017Y-68084771D01*
X81283017Y-68084771D02*
X81378255Y-68037152D01*
X81378255Y-68037152D02*
X81521112Y-68037152D01*
X81521112Y-68037152D02*
X81616350Y-68084771D01*
X81616350Y-68084771D02*
X81663969Y-68180009D01*
X81663969Y-68180009D02*
X81663969Y-68703819D01*
X82378255Y-69037152D02*
X82378255Y-67608580D01*
X83092541Y-68703819D02*
X83092541Y-67703819D01*
X83092541Y-68084771D02*
X83187779Y-68037152D01*
X83187779Y-68037152D02*
X83378255Y-68037152D01*
X83378255Y-68037152D02*
X83473493Y-68084771D01*
X83473493Y-68084771D02*
X83521112Y-68132390D01*
X83521112Y-68132390D02*
X83568731Y-68227628D01*
X83568731Y-68227628D02*
X83568731Y-68513342D01*
X83568731Y-68513342D02*
X83521112Y-68608580D01*
X83521112Y-68608580D02*
X83473493Y-68656200D01*
X83473493Y-68656200D02*
X83378255Y-68703819D01*
X83378255Y-68703819D02*
X83187779Y-68703819D01*
X83187779Y-68703819D02*
X83092541Y-68656200D01*
X83759208Y-68799057D02*
X84521112Y-68799057D01*
X85283017Y-68703819D02*
X84711589Y-68703819D01*
X84997303Y-68703819D02*
X84997303Y-67703819D01*
X84997303Y-67703819D02*
X84902065Y-67846676D01*
X84902065Y-67846676D02*
X84806827Y-67941914D01*
X84806827Y-67941914D02*
X84711589Y-67989533D01*
X85949684Y-69037152D02*
X85949684Y-67608580D01*
X148797160Y-74468104D02*
X149273350Y-74468104D01*
X148701922Y-74753819D02*
X149035255Y-73753819D01*
X149035255Y-73753819D02*
X149368588Y-74753819D01*
X150130493Y-74753819D02*
X150130493Y-73753819D01*
X150130493Y-74706200D02*
X150035255Y-74753819D01*
X150035255Y-74753819D02*
X149844779Y-74753819D01*
X149844779Y-74753819D02*
X149749541Y-74706200D01*
X149749541Y-74706200D02*
X149701922Y-74658580D01*
X149701922Y-74658580D02*
X149654303Y-74563342D01*
X149654303Y-74563342D02*
X149654303Y-74277628D01*
X149654303Y-74277628D02*
X149701922Y-74182390D01*
X149701922Y-74182390D02*
X149749541Y-74134771D01*
X149749541Y-74134771D02*
X149844779Y-74087152D01*
X149844779Y-74087152D02*
X150035255Y-74087152D01*
X150035255Y-74087152D02*
X150130493Y-74134771D01*
X151035255Y-74753819D02*
X151035255Y-73753819D01*
X151035255Y-74706200D02*
X150940017Y-74753819D01*
X150940017Y-74753819D02*
X150749541Y-74753819D01*
X150749541Y-74753819D02*
X150654303Y-74706200D01*
X150654303Y-74706200D02*
X150606684Y-74658580D01*
X150606684Y-74658580D02*
X150559065Y-74563342D01*
X150559065Y-74563342D02*
X150559065Y-74277628D01*
X150559065Y-74277628D02*
X150606684Y-74182390D01*
X150606684Y-74182390D02*
X150654303Y-74134771D01*
X150654303Y-74134771D02*
X150749541Y-74087152D01*
X150749541Y-74087152D02*
X150940017Y-74087152D01*
X150940017Y-74087152D02*
X151035255Y-74134771D01*
X151892398Y-74706200D02*
X151797160Y-74753819D01*
X151797160Y-74753819D02*
X151606684Y-74753819D01*
X151606684Y-74753819D02*
X151511446Y-74706200D01*
X151511446Y-74706200D02*
X151463827Y-74610961D01*
X151463827Y-74610961D02*
X151463827Y-74230009D01*
X151463827Y-74230009D02*
X151511446Y-74134771D01*
X151511446Y-74134771D02*
X151606684Y-74087152D01*
X151606684Y-74087152D02*
X151797160Y-74087152D01*
X151797160Y-74087152D02*
X151892398Y-74134771D01*
X151892398Y-74134771D02*
X151940017Y-74230009D01*
X151940017Y-74230009D02*
X151940017Y-74325247D01*
X151940017Y-74325247D02*
X151463827Y-74420485D01*
X152368589Y-74753819D02*
X152368589Y-74087152D01*
X152368589Y-74277628D02*
X152416208Y-74182390D01*
X152416208Y-74182390D02*
X152463827Y-74134771D01*
X152463827Y-74134771D02*
X152559065Y-74087152D01*
X152559065Y-74087152D02*
X152654303Y-74087152D01*
X152749542Y-74849057D02*
X153511446Y-74849057D01*
X153749542Y-74753819D02*
X153749542Y-73753819D01*
X153749542Y-73753819D02*
X154320970Y-74753819D01*
X154320970Y-74753819D02*
X154320970Y-73753819D01*
X154749542Y-74468104D02*
X155225732Y-74468104D01*
X154654304Y-74753819D02*
X154987637Y-73753819D01*
X154987637Y-73753819D02*
X155320970Y-74753819D01*
X155654304Y-74753819D02*
X155654304Y-73753819D01*
X155654304Y-73753819D02*
X156225732Y-74753819D01*
X156225732Y-74753819D02*
X156225732Y-73753819D01*
X156701923Y-74753819D02*
X156701923Y-73753819D01*
X156701923Y-73753819D02*
X156940018Y-73753819D01*
X156940018Y-73753819D02*
X157082875Y-73801438D01*
X157082875Y-73801438D02*
X157178113Y-73896676D01*
X157178113Y-73896676D02*
X157225732Y-73991914D01*
X157225732Y-73991914D02*
X157273351Y-74182390D01*
X157273351Y-74182390D02*
X157273351Y-74325247D01*
X157273351Y-74325247D02*
X157225732Y-74515723D01*
X157225732Y-74515723D02*
X157178113Y-74610961D01*
X157178113Y-74610961D02*
X157082875Y-74706200D01*
X157082875Y-74706200D02*
X156940018Y-74753819D01*
X156940018Y-74753819D02*
X156701923Y-74753819D01*
X159035256Y-74753819D02*
X158701923Y-74277628D01*
X158463828Y-74753819D02*
X158463828Y-73753819D01*
X158463828Y-73753819D02*
X158844780Y-73753819D01*
X158844780Y-73753819D02*
X158940018Y-73801438D01*
X158940018Y-73801438D02*
X158987637Y-73849057D01*
X158987637Y-73849057D02*
X159035256Y-73944295D01*
X159035256Y-73944295D02*
X159035256Y-74087152D01*
X159035256Y-74087152D02*
X158987637Y-74182390D01*
X158987637Y-74182390D02*
X158940018Y-74230009D01*
X158940018Y-74230009D02*
X158844780Y-74277628D01*
X158844780Y-74277628D02*
X158463828Y-74277628D01*
X159844780Y-74706200D02*
X159749542Y-74753819D01*
X159749542Y-74753819D02*
X159559066Y-74753819D01*
X159559066Y-74753819D02*
X159463828Y-74706200D01*
X159463828Y-74706200D02*
X159416209Y-74610961D01*
X159416209Y-74610961D02*
X159416209Y-74230009D01*
X159416209Y-74230009D02*
X159463828Y-74134771D01*
X159463828Y-74134771D02*
X159559066Y-74087152D01*
X159559066Y-74087152D02*
X159749542Y-74087152D01*
X159749542Y-74087152D02*
X159844780Y-74134771D01*
X159844780Y-74134771D02*
X159892399Y-74230009D01*
X159892399Y-74230009D02*
X159892399Y-74325247D01*
X159892399Y-74325247D02*
X159416209Y-74420485D01*
X160225733Y-74087152D02*
X160463828Y-74753819D01*
X160463828Y-74753819D02*
X160701923Y-74087152D01*
X161082876Y-74658580D02*
X161130495Y-74706200D01*
X161130495Y-74706200D02*
X161082876Y-74753819D01*
X161082876Y-74753819D02*
X161035257Y-74706200D01*
X161035257Y-74706200D02*
X161082876Y-74658580D01*
X161082876Y-74658580D02*
X161082876Y-74753819D01*
X162082875Y-74753819D02*
X161511447Y-74753819D01*
X161797161Y-74753819D02*
X161797161Y-73753819D01*
X161797161Y-73753819D02*
X161701923Y-73896676D01*
X161701923Y-73896676D02*
X161606685Y-73991914D01*
X161606685Y-73991914D02*
X161511447Y-74039533D01*
X148749541Y-75554295D02*
X149892398Y-75554295D01*
X149035255Y-76125723D02*
X149606684Y-76125723D01*
X149320969Y-75220961D02*
X149320969Y-76363819D01*
X149320969Y-75554295D02*
X149225731Y-75697152D01*
X149225731Y-75697152D02*
X148844779Y-76078104D01*
X148844779Y-76078104D02*
X148701922Y-76125723D01*
X149320969Y-75554295D02*
X149416207Y-75744771D01*
X149416207Y-75744771D02*
X149749541Y-76030485D01*
X149749541Y-76030485D02*
X149940017Y-76125723D01*
X150654302Y-75554295D02*
X150940016Y-75554295D01*
X150654302Y-75792390D02*
X150940016Y-75792390D01*
X150654302Y-75268580D02*
X150654302Y-76268580D01*
X150654302Y-75268580D02*
X150940016Y-75268580D01*
X150940016Y-75268580D02*
X150940016Y-75792390D01*
X151082874Y-75268580D02*
X151082874Y-76363819D01*
X150463826Y-76125723D02*
X150225731Y-76363819D01*
X150416207Y-75220961D02*
X150225731Y-75506676D01*
X150225731Y-75506676D02*
X150368588Y-75697152D01*
X150368588Y-75697152D02*
X150273350Y-75935247D01*
X150511445Y-75506676D02*
X150320969Y-75840009D01*
X150511445Y-75887628D02*
X150368588Y-76268580D01*
X151082874Y-75316200D02*
X151416207Y-75316200D01*
X151416207Y-75316200D02*
X151273350Y-75697152D01*
X151273350Y-75697152D02*
X151416207Y-75935247D01*
X151416207Y-75935247D02*
X151416207Y-76125723D01*
X151416207Y-76125723D02*
X151178112Y-76173342D01*
X150559064Y-75744771D02*
X150416207Y-76173342D01*
X150511445Y-75887628D02*
X150178112Y-75982866D01*
X150844778Y-75935247D02*
X150987635Y-76220961D01*
X150987635Y-76220961D02*
X150559064Y-76268580D01*
X151654302Y-75935247D02*
X152892397Y-75935247D01*
X151654302Y-75459057D02*
X151654302Y-76030485D01*
X152273349Y-75220961D02*
X152273349Y-76363819D01*
X151654302Y-75459057D02*
X152892397Y-75459057D01*
X152892397Y-75459057D02*
X152892397Y-75982866D01*
X153130492Y-75982866D02*
X154368587Y-75982866D01*
X153463825Y-76363819D02*
X153749539Y-76363819D01*
X153178111Y-75459057D02*
X153178111Y-75697152D01*
X153749539Y-75887628D02*
X153749539Y-76363819D01*
X153178111Y-75459057D02*
X154320968Y-75459057D01*
X154320968Y-75459057D02*
X154320968Y-75697152D01*
X153273349Y-75268580D02*
X153416206Y-75411438D01*
X154225730Y-75268580D02*
X154035254Y-75459057D01*
X153701920Y-75220961D02*
X153749539Y-75411438D01*
X153368587Y-75697152D02*
X154130492Y-75697152D01*
X154130492Y-75697152D02*
X153749539Y-75840009D01*
X155082872Y-75459057D02*
X155844777Y-75459057D01*
X154606682Y-75506676D02*
X155035253Y-75506676D01*
X154844777Y-75220961D02*
X154844777Y-76363819D01*
X155463824Y-75220961D02*
X155463824Y-75411438D01*
X154844777Y-75697152D02*
X155035253Y-75887628D01*
X155606682Y-75554295D02*
X155844777Y-75792390D01*
X155273348Y-75601914D02*
X155082872Y-75792390D01*
X155273348Y-75792390D02*
X155368586Y-76030485D01*
X155368586Y-76030485D02*
X155654301Y-76268580D01*
X155654301Y-76268580D02*
X155844777Y-76363819D01*
X154844777Y-75554295D02*
X154606682Y-76078104D01*
X155654301Y-75792390D02*
X155511444Y-76030485D01*
X155511444Y-76030485D02*
X155320967Y-76268580D01*
X155320967Y-76268580D02*
X155082872Y-76363819D01*
X154844777Y-75459057D02*
X154701920Y-75982866D01*
X156463824Y-75840009D02*
X156559062Y-75840009D01*
X156559062Y-75840009D02*
X156606681Y-75887628D01*
X156606681Y-75887628D02*
X156606681Y-75982866D01*
X156606681Y-75982866D02*
X156559062Y-76030485D01*
X156559062Y-76030485D02*
X156463824Y-76030485D01*
X156463824Y-76030485D02*
X156416205Y-75982866D01*
X156416205Y-75982866D02*
X156416205Y-75887628D01*
X156416205Y-75887628D02*
X156463824Y-75840009D01*
X157130491Y-75363819D02*
X158368586Y-75363819D01*
X157368586Y-75697152D02*
X158130491Y-75697152D01*
X158035253Y-76363819D02*
X158320967Y-76363819D01*
X157225729Y-75887628D02*
X157225729Y-76363819D01*
X157368586Y-75506676D02*
X157368586Y-75697152D01*
X157749538Y-75220961D02*
X157749538Y-75363819D01*
X157368586Y-75506676D02*
X158130491Y-75506676D01*
X158130491Y-75506676D02*
X158130491Y-75697152D01*
X157225729Y-75887628D02*
X158320967Y-75887628D01*
X158320967Y-75887628D02*
X158320967Y-76363819D01*
X157463824Y-76030485D02*
X158035253Y-76030485D01*
X158035253Y-76030485D02*
X158035253Y-76220961D01*
X158035253Y-76220961D02*
X157463824Y-76220961D01*
X157463824Y-76220961D02*
X157463824Y-76030485D01*
X158749538Y-75411438D02*
X159178109Y-75411438D01*
X159273347Y-75411438D02*
X159844776Y-75411438D01*
X158749538Y-75649533D02*
X159701919Y-75649533D01*
X158606681Y-75840009D02*
X159844776Y-75840009D01*
X158654300Y-76030485D02*
X159797157Y-76030485D01*
X159273347Y-76363819D02*
X159511443Y-76363819D01*
X159225728Y-75506676D02*
X159225728Y-75840009D01*
X159511443Y-75840009D02*
X159511443Y-76363819D01*
X158940014Y-76125723D02*
X159082871Y-76268580D01*
X159511443Y-75411438D02*
X159511443Y-75506676D01*
X159320966Y-75316200D02*
X159130490Y-75506676D01*
X158844776Y-75411438D02*
X158940014Y-75506676D01*
X158749538Y-75220961D02*
X158654300Y-75506676D01*
X160082871Y-75982866D02*
X161320966Y-75982866D01*
X160416204Y-76363819D02*
X160701918Y-76363819D01*
X160130490Y-75459057D02*
X160130490Y-75697152D01*
X160701918Y-75887628D02*
X160701918Y-76363819D01*
X160130490Y-75459057D02*
X161273347Y-75459057D01*
X161273347Y-75459057D02*
X161273347Y-75697152D01*
X160225728Y-75268580D02*
X160368585Y-75411438D01*
X161178109Y-75268580D02*
X160987633Y-75459057D01*
X160654299Y-75220961D02*
X160701918Y-75411438D01*
X160320966Y-75697152D02*
X161082871Y-75697152D01*
X161082871Y-75697152D02*
X160701918Y-75840009D01*
X162035251Y-75459057D02*
X162797156Y-75459057D01*
X161559061Y-75506676D02*
X161987632Y-75506676D01*
X161797156Y-75220961D02*
X161797156Y-76363819D01*
X162416203Y-75220961D02*
X162416203Y-75411438D01*
X161797156Y-75697152D02*
X161987632Y-75887628D01*
X162559061Y-75554295D02*
X162797156Y-75792390D01*
X162225727Y-75601914D02*
X162035251Y-75792390D01*
X162225727Y-75792390D02*
X162320965Y-76030485D01*
X162320965Y-76030485D02*
X162606680Y-76268580D01*
X162606680Y-76268580D02*
X162797156Y-76363819D01*
X161797156Y-75554295D02*
X161559061Y-76078104D01*
X162606680Y-75792390D02*
X162463823Y-76030485D01*
X162463823Y-76030485D02*
X162273346Y-76268580D01*
X162273346Y-76268580D02*
X162035251Y-76363819D01*
X161797156Y-75459057D02*
X161654299Y-75982866D01*
X148797160Y-77164295D02*
X149416207Y-77164295D01*
X149416207Y-77164295D02*
X149320969Y-77354771D01*
X149320969Y-77354771D02*
X149225731Y-77497628D01*
X149225731Y-77497628D02*
X149130493Y-77592866D01*
X148940017Y-77450009D02*
X149082874Y-77592866D01*
X149082874Y-77592866D02*
X149130493Y-77688104D01*
X149130493Y-77688104D02*
X149225731Y-77830961D01*
X150178112Y-77259533D02*
X150178112Y-77973819D01*
X150416207Y-76926200D02*
X150320969Y-77069057D01*
X150320969Y-77069057D02*
X150178112Y-77259533D01*
X150178112Y-77259533D02*
X149987636Y-77402390D01*
X149987636Y-77402390D02*
X149844779Y-77497628D01*
X150940017Y-77116676D02*
X151511445Y-77116676D01*
X151511445Y-77116676D02*
X151511445Y-77783342D01*
X151511445Y-77783342D02*
X150940017Y-77783342D01*
X151987636Y-77069057D02*
X152178112Y-77259533D01*
X151987636Y-77830961D02*
X152225731Y-77783342D01*
X152225731Y-77783342D02*
X152368588Y-77640485D01*
X152368588Y-77640485D02*
X152463826Y-77497628D01*
X152463826Y-77497628D02*
X152559064Y-77164295D01*
X152940017Y-77021438D02*
X153559064Y-77021438D01*
X152892398Y-77354771D02*
X153606683Y-77354771D01*
X152987636Y-77878580D02*
X153463826Y-77878580D01*
X152987636Y-77545247D02*
X152987636Y-77973819D01*
X153225731Y-76830961D02*
X153225731Y-77021438D01*
X152987636Y-77545247D02*
X153463826Y-77545247D01*
X153463826Y-77545247D02*
X153511445Y-77973819D01*
X153701921Y-76926200D02*
X153701921Y-77973819D01*
X153035255Y-77116676D02*
X153082874Y-77259533D01*
X153463826Y-77069057D02*
X153368588Y-77307152D01*
X153701921Y-76926200D02*
X154130493Y-76926200D01*
X154130493Y-76926200D02*
X153892398Y-77307152D01*
X153892398Y-77307152D02*
X154082874Y-77450009D01*
X154082874Y-77450009D02*
X154130493Y-77592866D01*
X154130493Y-77592866D02*
X154130493Y-77783342D01*
X154130493Y-77783342D02*
X153892398Y-77783342D01*
X155225731Y-76926200D02*
X156225731Y-76926200D01*
X155273350Y-77211914D02*
X155559064Y-77211914D01*
X155844778Y-77211914D02*
X156178112Y-77211914D01*
X155225731Y-77354771D02*
X155559064Y-77354771D01*
X155844778Y-77354771D02*
X156225731Y-77354771D01*
X155273350Y-77640485D02*
X156225731Y-77640485D01*
X155273350Y-77830961D02*
X156225731Y-77830961D01*
X155749540Y-77973819D02*
X156320969Y-77973819D01*
X155130493Y-77069057D02*
X155130493Y-77259533D01*
X155273350Y-77497628D02*
X155273350Y-77878580D01*
X155701921Y-76926200D02*
X155701921Y-77402390D01*
X155749540Y-77497628D02*
X155749540Y-77973819D01*
X155273350Y-77497628D02*
X156225731Y-77497628D01*
X156225731Y-77497628D02*
X156225731Y-77830961D01*
X155130493Y-77069057D02*
X156320969Y-77069057D01*
X156320969Y-77069057D02*
X156320969Y-77259533D01*
X156368588Y-77830961D02*
X156320969Y-77973819D01*
X156606683Y-77450009D02*
X157844778Y-77450009D01*
X156940016Y-77973819D02*
X157225730Y-77973819D01*
X157225730Y-77211914D02*
X157225730Y-77973819D01*
X156749540Y-76973819D02*
X157701921Y-76973819D01*
X157701921Y-76973819D02*
X157559064Y-77069057D01*
X157559064Y-77069057D02*
X157225730Y-77211914D01*
X158130492Y-77021438D02*
X159273349Y-77021438D01*
X158082873Y-77973819D02*
X159320968Y-77973819D01*
X158701920Y-77021438D02*
X158701920Y-77973819D01*
X160130491Y-77116676D02*
X160797158Y-77116676D01*
X160320967Y-77354771D02*
X160797158Y-77354771D01*
X160320967Y-77640485D02*
X160797158Y-77640485D01*
X159797158Y-77069057D02*
X159797158Y-77973819D01*
X160320967Y-77069057D02*
X160320967Y-77973819D01*
X159892396Y-76878580D02*
X159749539Y-77164295D01*
X159749539Y-77164295D02*
X159559063Y-77354771D01*
X160225729Y-76878580D02*
X160082872Y-77211914D01*
X160082872Y-77211914D02*
X159940015Y-77354771D01*
X161797157Y-76926200D02*
X162225729Y-76926200D01*
X161035253Y-76926200D02*
X161416205Y-76926200D01*
X161082872Y-77354771D02*
X161416205Y-77354771D01*
X161844776Y-77402390D02*
X162225729Y-77402390D01*
X161701919Y-77926200D02*
X162273348Y-77926200D01*
X161225729Y-76926200D02*
X161225729Y-77783342D01*
X161511443Y-76973819D02*
X161511443Y-77545247D01*
X162035253Y-76926200D02*
X162035253Y-77926200D01*
X161654300Y-77783342D02*
X161463824Y-77973819D01*
X161463824Y-77735723D02*
X161035253Y-77830961D01*
X161749538Y-76830961D02*
X161749538Y-77497628D01*
X161749538Y-77497628D02*
X161654300Y-77783342D01*
X163869904Y-49094152D02*
X163869904Y-47665580D01*
X164536571Y-48713200D02*
X164631809Y-48760819D01*
X164631809Y-48760819D02*
X164822285Y-48760819D01*
X164822285Y-48760819D02*
X164917523Y-48713200D01*
X164917523Y-48713200D02*
X164965142Y-48617961D01*
X164965142Y-48617961D02*
X164965142Y-48570342D01*
X164965142Y-48570342D02*
X164917523Y-48475104D01*
X164917523Y-48475104D02*
X164822285Y-48427485D01*
X164822285Y-48427485D02*
X164679428Y-48427485D01*
X164679428Y-48427485D02*
X164584190Y-48379866D01*
X164584190Y-48379866D02*
X164536571Y-48284628D01*
X164536571Y-48284628D02*
X164536571Y-48237009D01*
X164536571Y-48237009D02*
X164584190Y-48141771D01*
X164584190Y-48141771D02*
X164679428Y-48094152D01*
X164679428Y-48094152D02*
X164822285Y-48094152D01*
X164822285Y-48094152D02*
X164917523Y-48141771D01*
X165155619Y-48856057D02*
X165917523Y-48856057D01*
X166584190Y-48094152D02*
X166584190Y-48760819D01*
X166346095Y-47713200D02*
X166108000Y-48427485D01*
X166108000Y-48427485D02*
X166727047Y-48427485D01*
X167346095Y-49094152D02*
X167346095Y-47665580D01*
X163869904Y-50704152D02*
X163869904Y-49275580D01*
X164536571Y-50323200D02*
X164631809Y-50370819D01*
X164631809Y-50370819D02*
X164822285Y-50370819D01*
X164822285Y-50370819D02*
X164917523Y-50323200D01*
X164917523Y-50323200D02*
X164965142Y-50227961D01*
X164965142Y-50227961D02*
X164965142Y-50180342D01*
X164965142Y-50180342D02*
X164917523Y-50085104D01*
X164917523Y-50085104D02*
X164822285Y-50037485D01*
X164822285Y-50037485D02*
X164679428Y-50037485D01*
X164679428Y-50037485D02*
X164584190Y-49989866D01*
X164584190Y-49989866D02*
X164536571Y-49894628D01*
X164536571Y-49894628D02*
X164536571Y-49847009D01*
X164536571Y-49847009D02*
X164584190Y-49751771D01*
X164584190Y-49751771D02*
X164679428Y-49704152D01*
X164679428Y-49704152D02*
X164822285Y-49704152D01*
X164822285Y-49704152D02*
X164917523Y-49751771D01*
X165155619Y-50466057D02*
X165917523Y-50466057D01*
X166060381Y-49370819D02*
X166679428Y-49370819D01*
X166679428Y-49370819D02*
X166346095Y-49751771D01*
X166346095Y-49751771D02*
X166488952Y-49751771D01*
X166488952Y-49751771D02*
X166584190Y-49799390D01*
X166584190Y-49799390D02*
X166631809Y-49847009D01*
X166631809Y-49847009D02*
X166679428Y-49942247D01*
X166679428Y-49942247D02*
X166679428Y-50180342D01*
X166679428Y-50180342D02*
X166631809Y-50275580D01*
X166631809Y-50275580D02*
X166584190Y-50323200D01*
X166584190Y-50323200D02*
X166488952Y-50370819D01*
X166488952Y-50370819D02*
X166203238Y-50370819D01*
X166203238Y-50370819D02*
X166108000Y-50323200D01*
X166108000Y-50323200D02*
X166060381Y-50275580D01*
X167346095Y-50704152D02*
X167346095Y-49275580D01*
X163869904Y-52314152D02*
X163869904Y-50885580D01*
X164536571Y-51933200D02*
X164631809Y-51980819D01*
X164631809Y-51980819D02*
X164822285Y-51980819D01*
X164822285Y-51980819D02*
X164917523Y-51933200D01*
X164917523Y-51933200D02*
X164965142Y-51837961D01*
X164965142Y-51837961D02*
X164965142Y-51790342D01*
X164965142Y-51790342D02*
X164917523Y-51695104D01*
X164917523Y-51695104D02*
X164822285Y-51647485D01*
X164822285Y-51647485D02*
X164679428Y-51647485D01*
X164679428Y-51647485D02*
X164584190Y-51599866D01*
X164584190Y-51599866D02*
X164536571Y-51504628D01*
X164536571Y-51504628D02*
X164536571Y-51457009D01*
X164536571Y-51457009D02*
X164584190Y-51361771D01*
X164584190Y-51361771D02*
X164679428Y-51314152D01*
X164679428Y-51314152D02*
X164822285Y-51314152D01*
X164822285Y-51314152D02*
X164917523Y-51361771D01*
X165155619Y-52076057D02*
X165917523Y-52076057D01*
X166108000Y-51076057D02*
X166155619Y-51028438D01*
X166155619Y-51028438D02*
X166250857Y-50980819D01*
X166250857Y-50980819D02*
X166488952Y-50980819D01*
X166488952Y-50980819D02*
X166584190Y-51028438D01*
X166584190Y-51028438D02*
X166631809Y-51076057D01*
X166631809Y-51076057D02*
X166679428Y-51171295D01*
X166679428Y-51171295D02*
X166679428Y-51266533D01*
X166679428Y-51266533D02*
X166631809Y-51409390D01*
X166631809Y-51409390D02*
X166060381Y-51980819D01*
X166060381Y-51980819D02*
X166679428Y-51980819D01*
X167346095Y-52314152D02*
X167346095Y-50885580D01*
X163869904Y-53924152D02*
X163869904Y-52495580D01*
X164536571Y-53543200D02*
X164631809Y-53590819D01*
X164631809Y-53590819D02*
X164822285Y-53590819D01*
X164822285Y-53590819D02*
X164917523Y-53543200D01*
X164917523Y-53543200D02*
X164965142Y-53447961D01*
X164965142Y-53447961D02*
X164965142Y-53400342D01*
X164965142Y-53400342D02*
X164917523Y-53305104D01*
X164917523Y-53305104D02*
X164822285Y-53257485D01*
X164822285Y-53257485D02*
X164679428Y-53257485D01*
X164679428Y-53257485D02*
X164584190Y-53209866D01*
X164584190Y-53209866D02*
X164536571Y-53114628D01*
X164536571Y-53114628D02*
X164536571Y-53067009D01*
X164536571Y-53067009D02*
X164584190Y-52971771D01*
X164584190Y-52971771D02*
X164679428Y-52924152D01*
X164679428Y-52924152D02*
X164822285Y-52924152D01*
X164822285Y-52924152D02*
X164917523Y-52971771D01*
X165155619Y-53686057D02*
X165917523Y-53686057D01*
X166679428Y-53590819D02*
X166108000Y-53590819D01*
X166393714Y-53590819D02*
X166393714Y-52590819D01*
X166393714Y-52590819D02*
X166298476Y-52733676D01*
X166298476Y-52733676D02*
X166203238Y-52828914D01*
X166203238Y-52828914D02*
X166108000Y-52876533D01*
X167346095Y-53924152D02*
X167346095Y-52495580D01*
X97171704Y-41157731D02*
X96600276Y-41157731D01*
X96600276Y-41157731D02*
X96485990Y-41119636D01*
X96485990Y-41119636D02*
X96409800Y-41043445D01*
X96409800Y-41043445D02*
X96371704Y-40929160D01*
X96371704Y-40929160D02*
X96371704Y-40852969D01*
X96371704Y-41919636D02*
X96371704Y-41538684D01*
X96371704Y-41538684D02*
X97171704Y-41538684D01*
X96447895Y-42643446D02*
X96409800Y-42605350D01*
X96409800Y-42605350D02*
X96371704Y-42491065D01*
X96371704Y-42491065D02*
X96371704Y-42414874D01*
X96371704Y-42414874D02*
X96409800Y-42300588D01*
X96409800Y-42300588D02*
X96485990Y-42224398D01*
X96485990Y-42224398D02*
X96562180Y-42186303D01*
X96562180Y-42186303D02*
X96714561Y-42148207D01*
X96714561Y-42148207D02*
X96828847Y-42148207D01*
X96828847Y-42148207D02*
X96981228Y-42186303D01*
X96981228Y-42186303D02*
X97057419Y-42224398D01*
X97057419Y-42224398D02*
X97133609Y-42300588D01*
X97133609Y-42300588D02*
X97171704Y-42414874D01*
X97171704Y-42414874D02*
X97171704Y-42491065D01*
X97171704Y-42491065D02*
X97133609Y-42605350D01*
X97133609Y-42605350D02*
X97095514Y-42643446D01*
X97171704Y-43214874D02*
X96600276Y-43214874D01*
X96600276Y-43214874D02*
X96485990Y-43176779D01*
X96485990Y-43176779D02*
X96409800Y-43100588D01*
X96409800Y-43100588D02*
X96371704Y-42986303D01*
X96371704Y-42986303D02*
X96371704Y-42910112D01*
X96371704Y-43976779D02*
X96371704Y-43595827D01*
X96371704Y-43595827D02*
X97171704Y-43595827D01*
X96447895Y-44700589D02*
X96409800Y-44662493D01*
X96409800Y-44662493D02*
X96371704Y-44548208D01*
X96371704Y-44548208D02*
X96371704Y-44472017D01*
X96371704Y-44472017D02*
X96409800Y-44357731D01*
X96409800Y-44357731D02*
X96485990Y-44281541D01*
X96485990Y-44281541D02*
X96562180Y-44243446D01*
X96562180Y-44243446D02*
X96714561Y-44205350D01*
X96714561Y-44205350D02*
X96828847Y-44205350D01*
X96828847Y-44205350D02*
X96981228Y-44243446D01*
X96981228Y-44243446D02*
X97057419Y-44281541D01*
X97057419Y-44281541D02*
X97133609Y-44357731D01*
X97133609Y-44357731D02*
X97171704Y-44472017D01*
X97171704Y-44472017D02*
X97171704Y-44548208D01*
X97171704Y-44548208D02*
X97133609Y-44662493D01*
X97133609Y-44662493D02*
X97095514Y-44700589D01*
X97171704Y-45272017D02*
X96600276Y-45272017D01*
X96600276Y-45272017D02*
X96485990Y-45233922D01*
X96485990Y-45233922D02*
X96409800Y-45157731D01*
X96409800Y-45157731D02*
X96371704Y-45043446D01*
X96371704Y-45043446D02*
X96371704Y-44967255D01*
X96371704Y-46033922D02*
X96371704Y-45652970D01*
X96371704Y-45652970D02*
X97171704Y-45652970D01*
X96447895Y-46757732D02*
X96409800Y-46719636D01*
X96409800Y-46719636D02*
X96371704Y-46605351D01*
X96371704Y-46605351D02*
X96371704Y-46529160D01*
X96371704Y-46529160D02*
X96409800Y-46414874D01*
X96409800Y-46414874D02*
X96485990Y-46338684D01*
X96485990Y-46338684D02*
X96562180Y-46300589D01*
X96562180Y-46300589D02*
X96714561Y-46262493D01*
X96714561Y-46262493D02*
X96828847Y-46262493D01*
X96828847Y-46262493D02*
X96981228Y-46300589D01*
X96981228Y-46300589D02*
X97057419Y-46338684D01*
X97057419Y-46338684D02*
X97133609Y-46414874D01*
X97133609Y-46414874D02*
X97171704Y-46529160D01*
X97171704Y-46529160D02*
X97171704Y-46605351D01*
X97171704Y-46605351D02*
X97133609Y-46719636D01*
X97133609Y-46719636D02*
X97095514Y-46757732D01*
X97171704Y-47329160D02*
X96600276Y-47329160D01*
X96600276Y-47329160D02*
X96485990Y-47291065D01*
X96485990Y-47291065D02*
X96409800Y-47214874D01*
X96409800Y-47214874D02*
X96371704Y-47100589D01*
X96371704Y-47100589D02*
X96371704Y-47024398D01*
X96371704Y-48091065D02*
X96371704Y-47710113D01*
X96371704Y-47710113D02*
X97171704Y-47710113D01*
X96447895Y-48814875D02*
X96409800Y-48776779D01*
X96409800Y-48776779D02*
X96371704Y-48662494D01*
X96371704Y-48662494D02*
X96371704Y-48586303D01*
X96371704Y-48586303D02*
X96409800Y-48472017D01*
X96409800Y-48472017D02*
X96485990Y-48395827D01*
X96485990Y-48395827D02*
X96562180Y-48357732D01*
X96562180Y-48357732D02*
X96714561Y-48319636D01*
X96714561Y-48319636D02*
X96828847Y-48319636D01*
X96828847Y-48319636D02*
X96981228Y-48357732D01*
X96981228Y-48357732D02*
X97057419Y-48395827D01*
X97057419Y-48395827D02*
X97133609Y-48472017D01*
X97133609Y-48472017D02*
X97171704Y-48586303D01*
X97171704Y-48586303D02*
X97171704Y-48662494D01*
X97171704Y-48662494D02*
X97133609Y-48776779D01*
X97133609Y-48776779D02*
X97095514Y-48814875D01*
X109474095Y-80607819D02*
X109474095Y-81417342D01*
X109474095Y-81417342D02*
X109521714Y-81512580D01*
X109521714Y-81512580D02*
X109569333Y-81560200D01*
X109569333Y-81560200D02*
X109664571Y-81607819D01*
X109664571Y-81607819D02*
X109855047Y-81607819D01*
X109855047Y-81607819D02*
X109950285Y-81560200D01*
X109950285Y-81560200D02*
X109997904Y-81512580D01*
X109997904Y-81512580D02*
X110045523Y-81417342D01*
X110045523Y-81417342D02*
X110045523Y-80607819D01*
X110950285Y-80941152D02*
X110950285Y-81607819D01*
X110712190Y-80560200D02*
X110474095Y-81274485D01*
X110474095Y-81274485D02*
X111093142Y-81274485D01*
X135763095Y-56858819D02*
X135763095Y-57668342D01*
X135763095Y-57668342D02*
X135810714Y-57763580D01*
X135810714Y-57763580D02*
X135858333Y-57811200D01*
X135858333Y-57811200D02*
X135953571Y-57858819D01*
X135953571Y-57858819D02*
X136144047Y-57858819D01*
X136144047Y-57858819D02*
X136239285Y-57811200D01*
X136239285Y-57811200D02*
X136286904Y-57763580D01*
X136286904Y-57763580D02*
X136334523Y-57668342D01*
X136334523Y-57668342D02*
X136334523Y-56858819D01*
X136715476Y-56858819D02*
X137382142Y-56858819D01*
X137382142Y-56858819D02*
X136953571Y-57858819D01*
X166108142Y-61299580D02*
X166060523Y-61347200D01*
X166060523Y-61347200D02*
X165917666Y-61394819D01*
X165917666Y-61394819D02*
X165822428Y-61394819D01*
X165822428Y-61394819D02*
X165679571Y-61347200D01*
X165679571Y-61347200D02*
X165584333Y-61251961D01*
X165584333Y-61251961D02*
X165536714Y-61156723D01*
X165536714Y-61156723D02*
X165489095Y-60966247D01*
X165489095Y-60966247D02*
X165489095Y-60823390D01*
X165489095Y-60823390D02*
X165536714Y-60632914D01*
X165536714Y-60632914D02*
X165584333Y-60537676D01*
X165584333Y-60537676D02*
X165679571Y-60442438D01*
X165679571Y-60442438D02*
X165822428Y-60394819D01*
X165822428Y-60394819D02*
X165917666Y-60394819D01*
X165917666Y-60394819D02*
X166060523Y-60442438D01*
X166060523Y-60442438D02*
X166108142Y-60490057D01*
X167060523Y-61394819D02*
X166489095Y-61394819D01*
X166774809Y-61394819D02*
X166774809Y-60394819D01*
X166774809Y-60394819D02*
X166679571Y-60537676D01*
X166679571Y-60537676D02*
X166584333Y-60632914D01*
X166584333Y-60632914D02*
X166489095Y-60680533D01*
X167679571Y-60394819D02*
X167774809Y-60394819D01*
X167774809Y-60394819D02*
X167870047Y-60442438D01*
X167870047Y-60442438D02*
X167917666Y-60490057D01*
X167917666Y-60490057D02*
X167965285Y-60585295D01*
X167965285Y-60585295D02*
X168012904Y-60775771D01*
X168012904Y-60775771D02*
X168012904Y-61013866D01*
X168012904Y-61013866D02*
X167965285Y-61204342D01*
X167965285Y-61204342D02*
X167917666Y-61299580D01*
X167917666Y-61299580D02*
X167870047Y-61347200D01*
X167870047Y-61347200D02*
X167774809Y-61394819D01*
X167774809Y-61394819D02*
X167679571Y-61394819D01*
X167679571Y-61394819D02*
X167584333Y-61347200D01*
X167584333Y-61347200D02*
X167536714Y-61299580D01*
X167536714Y-61299580D02*
X167489095Y-61204342D01*
X167489095Y-61204342D02*
X167441476Y-61013866D01*
X167441476Y-61013866D02*
X167441476Y-60775771D01*
X167441476Y-60775771D02*
X167489095Y-60585295D01*
X167489095Y-60585295D02*
X167536714Y-60490057D01*
X167536714Y-60490057D02*
X167584333Y-60442438D01*
X167584333Y-60442438D02*
X167679571Y-60394819D01*
X131540333Y-35929580D02*
X131492714Y-35977200D01*
X131492714Y-35977200D02*
X131349857Y-36024819D01*
X131349857Y-36024819D02*
X131254619Y-36024819D01*
X131254619Y-36024819D02*
X131111762Y-35977200D01*
X131111762Y-35977200D02*
X131016524Y-35881961D01*
X131016524Y-35881961D02*
X130968905Y-35786723D01*
X130968905Y-35786723D02*
X130921286Y-35596247D01*
X130921286Y-35596247D02*
X130921286Y-35453390D01*
X130921286Y-35453390D02*
X130968905Y-35262914D01*
X130968905Y-35262914D02*
X131016524Y-35167676D01*
X131016524Y-35167676D02*
X131111762Y-35072438D01*
X131111762Y-35072438D02*
X131254619Y-35024819D01*
X131254619Y-35024819D02*
X131349857Y-35024819D01*
X131349857Y-35024819D02*
X131492714Y-35072438D01*
X131492714Y-35072438D02*
X131540333Y-35120057D01*
X131873667Y-35024819D02*
X132540333Y-35024819D01*
X132540333Y-35024819D02*
X132111762Y-36024819D01*
X118322333Y-59683580D02*
X118274714Y-59731200D01*
X118274714Y-59731200D02*
X118131857Y-59778819D01*
X118131857Y-59778819D02*
X118036619Y-59778819D01*
X118036619Y-59778819D02*
X117893762Y-59731200D01*
X117893762Y-59731200D02*
X117798524Y-59635961D01*
X117798524Y-59635961D02*
X117750905Y-59540723D01*
X117750905Y-59540723D02*
X117703286Y-59350247D01*
X117703286Y-59350247D02*
X117703286Y-59207390D01*
X117703286Y-59207390D02*
X117750905Y-59016914D01*
X117750905Y-59016914D02*
X117798524Y-58921676D01*
X117798524Y-58921676D02*
X117893762Y-58826438D01*
X117893762Y-58826438D02*
X118036619Y-58778819D01*
X118036619Y-58778819D02*
X118131857Y-58778819D01*
X118131857Y-58778819D02*
X118274714Y-58826438D01*
X118274714Y-58826438D02*
X118322333Y-58874057D01*
X119179476Y-58778819D02*
X118989000Y-58778819D01*
X118989000Y-58778819D02*
X118893762Y-58826438D01*
X118893762Y-58826438D02*
X118846143Y-58874057D01*
X118846143Y-58874057D02*
X118750905Y-59016914D01*
X118750905Y-59016914D02*
X118703286Y-59207390D01*
X118703286Y-59207390D02*
X118703286Y-59588342D01*
X118703286Y-59588342D02*
X118750905Y-59683580D01*
X118750905Y-59683580D02*
X118798524Y-59731200D01*
X118798524Y-59731200D02*
X118893762Y-59778819D01*
X118893762Y-59778819D02*
X119084238Y-59778819D01*
X119084238Y-59778819D02*
X119179476Y-59731200D01*
X119179476Y-59731200D02*
X119227095Y-59683580D01*
X119227095Y-59683580D02*
X119274714Y-59588342D01*
X119274714Y-59588342D02*
X119274714Y-59350247D01*
X119274714Y-59350247D02*
X119227095Y-59255009D01*
X119227095Y-59255009D02*
X119179476Y-59207390D01*
X119179476Y-59207390D02*
X119084238Y-59159771D01*
X119084238Y-59159771D02*
X118893762Y-59159771D01*
X118893762Y-59159771D02*
X118798524Y-59207390D01*
X118798524Y-59207390D02*
X118750905Y-59255009D01*
X118750905Y-59255009D02*
X118703286Y-59350247D01*
X122809095Y-80607819D02*
X122809095Y-81417342D01*
X122809095Y-81417342D02*
X122856714Y-81512580D01*
X122856714Y-81512580D02*
X122904333Y-81560200D01*
X122904333Y-81560200D02*
X122999571Y-81607819D01*
X122999571Y-81607819D02*
X123190047Y-81607819D01*
X123190047Y-81607819D02*
X123285285Y-81560200D01*
X123285285Y-81560200D02*
X123332904Y-81512580D01*
X123332904Y-81512580D02*
X123380523Y-81417342D01*
X123380523Y-81417342D02*
X123380523Y-80607819D01*
X124285285Y-80607819D02*
X124094809Y-80607819D01*
X124094809Y-80607819D02*
X123999571Y-80655438D01*
X123999571Y-80655438D02*
X123951952Y-80703057D01*
X123951952Y-80703057D02*
X123856714Y-80845914D01*
X123856714Y-80845914D02*
X123809095Y-81036390D01*
X123809095Y-81036390D02*
X123809095Y-81417342D01*
X123809095Y-81417342D02*
X123856714Y-81512580D01*
X123856714Y-81512580D02*
X123904333Y-81560200D01*
X123904333Y-81560200D02*
X123999571Y-81607819D01*
X123999571Y-81607819D02*
X124190047Y-81607819D01*
X124190047Y-81607819D02*
X124285285Y-81560200D01*
X124285285Y-81560200D02*
X124332904Y-81512580D01*
X124332904Y-81512580D02*
X124380523Y-81417342D01*
X124380523Y-81417342D02*
X124380523Y-81179247D01*
X124380523Y-81179247D02*
X124332904Y-81084009D01*
X124332904Y-81084009D02*
X124285285Y-81036390D01*
X124285285Y-81036390D02*
X124190047Y-80988771D01*
X124190047Y-80988771D02*
X123999571Y-80988771D01*
X123999571Y-80988771D02*
X123904333Y-81036390D01*
X123904333Y-81036390D02*
X123856714Y-81084009D01*
X123856714Y-81084009D02*
X123809095Y-81179247D01*
X122428095Y-56858819D02*
X122428095Y-57668342D01*
X122428095Y-57668342D02*
X122475714Y-57763580D01*
X122475714Y-57763580D02*
X122523333Y-57811200D01*
X122523333Y-57811200D02*
X122618571Y-57858819D01*
X122618571Y-57858819D02*
X122809047Y-57858819D01*
X122809047Y-57858819D02*
X122904285Y-57811200D01*
X122904285Y-57811200D02*
X122951904Y-57763580D01*
X122951904Y-57763580D02*
X122999523Y-57668342D01*
X122999523Y-57668342D02*
X122999523Y-56858819D01*
X123951904Y-56858819D02*
X123475714Y-56858819D01*
X123475714Y-56858819D02*
X123428095Y-57335009D01*
X123428095Y-57335009D02*
X123475714Y-57287390D01*
X123475714Y-57287390D02*
X123570952Y-57239771D01*
X123570952Y-57239771D02*
X123809047Y-57239771D01*
X123809047Y-57239771D02*
X123904285Y-57287390D01*
X123904285Y-57287390D02*
X123951904Y-57335009D01*
X123951904Y-57335009D02*
X123999523Y-57430247D01*
X123999523Y-57430247D02*
X123999523Y-57668342D01*
X123999523Y-57668342D02*
X123951904Y-57763580D01*
X123951904Y-57763580D02*
X123904285Y-57811200D01*
X123904285Y-57811200D02*
X123809047Y-57858819D01*
X123809047Y-57858819D02*
X123570952Y-57858819D01*
X123570952Y-57858819D02*
X123475714Y-57811200D01*
X123475714Y-57811200D02*
X123428095Y-57763580D01*
X91652333Y-59683580D02*
X91604714Y-59731200D01*
X91604714Y-59731200D02*
X91461857Y-59778819D01*
X91461857Y-59778819D02*
X91366619Y-59778819D01*
X91366619Y-59778819D02*
X91223762Y-59731200D01*
X91223762Y-59731200D02*
X91128524Y-59635961D01*
X91128524Y-59635961D02*
X91080905Y-59540723D01*
X91080905Y-59540723D02*
X91033286Y-59350247D01*
X91033286Y-59350247D02*
X91033286Y-59207390D01*
X91033286Y-59207390D02*
X91080905Y-59016914D01*
X91080905Y-59016914D02*
X91128524Y-58921676D01*
X91128524Y-58921676D02*
X91223762Y-58826438D01*
X91223762Y-58826438D02*
X91366619Y-58778819D01*
X91366619Y-58778819D02*
X91461857Y-58778819D01*
X91461857Y-58778819D02*
X91604714Y-58826438D01*
X91604714Y-58826438D02*
X91652333Y-58874057D01*
X92033286Y-58874057D02*
X92080905Y-58826438D01*
X92080905Y-58826438D02*
X92176143Y-58778819D01*
X92176143Y-58778819D02*
X92414238Y-58778819D01*
X92414238Y-58778819D02*
X92509476Y-58826438D01*
X92509476Y-58826438D02*
X92557095Y-58874057D01*
X92557095Y-58874057D02*
X92604714Y-58969295D01*
X92604714Y-58969295D02*
X92604714Y-59064533D01*
X92604714Y-59064533D02*
X92557095Y-59207390D01*
X92557095Y-59207390D02*
X91985667Y-59778819D01*
X91985667Y-59778819D02*
X92604714Y-59778819D01*
X170666666Y-41754819D02*
X170666666Y-42469104D01*
X170666666Y-42469104D02*
X170619047Y-42611961D01*
X170619047Y-42611961D02*
X170523809Y-42707200D01*
X170523809Y-42707200D02*
X170380952Y-42754819D01*
X170380952Y-42754819D02*
X170285714Y-42754819D01*
X171047619Y-41754819D02*
X171666666Y-41754819D01*
X171666666Y-41754819D02*
X171333333Y-42135771D01*
X171333333Y-42135771D02*
X171476190Y-42135771D01*
X171476190Y-42135771D02*
X171571428Y-42183390D01*
X171571428Y-42183390D02*
X171619047Y-42231009D01*
X171619047Y-42231009D02*
X171666666Y-42326247D01*
X171666666Y-42326247D02*
X171666666Y-42564342D01*
X171666666Y-42564342D02*
X171619047Y-42659580D01*
X171619047Y-42659580D02*
X171571428Y-42707200D01*
X171571428Y-42707200D02*
X171476190Y-42754819D01*
X171476190Y-42754819D02*
X171190476Y-42754819D01*
X171190476Y-42754819D02*
X171095238Y-42707200D01*
X171095238Y-42707200D02*
X171047619Y-42659580D01*
X109103095Y-56853819D02*
X109103095Y-57663342D01*
X109103095Y-57663342D02*
X109150714Y-57758580D01*
X109150714Y-57758580D02*
X109198333Y-57806200D01*
X109198333Y-57806200D02*
X109293571Y-57853819D01*
X109293571Y-57853819D02*
X109484047Y-57853819D01*
X109484047Y-57853819D02*
X109579285Y-57806200D01*
X109579285Y-57806200D02*
X109626904Y-57758580D01*
X109626904Y-57758580D02*
X109674523Y-57663342D01*
X109674523Y-57663342D02*
X109674523Y-56853819D01*
X110055476Y-56853819D02*
X110674523Y-56853819D01*
X110674523Y-56853819D02*
X110341190Y-57234771D01*
X110341190Y-57234771D02*
X110484047Y-57234771D01*
X110484047Y-57234771D02*
X110579285Y-57282390D01*
X110579285Y-57282390D02*
X110626904Y-57330009D01*
X110626904Y-57330009D02*
X110674523Y-57425247D01*
X110674523Y-57425247D02*
X110674523Y-57663342D01*
X110674523Y-57663342D02*
X110626904Y-57758580D01*
X110626904Y-57758580D02*
X110579285Y-57806200D01*
X110579285Y-57806200D02*
X110484047Y-57853819D01*
X110484047Y-57853819D02*
X110198333Y-57853819D01*
X110198333Y-57853819D02*
X110103095Y-57806200D01*
X110103095Y-57806200D02*
X110055476Y-57758580D01*
X136144095Y-80607819D02*
X136144095Y-81417342D01*
X136144095Y-81417342D02*
X136191714Y-81512580D01*
X136191714Y-81512580D02*
X136239333Y-81560200D01*
X136239333Y-81560200D02*
X136334571Y-81607819D01*
X136334571Y-81607819D02*
X136525047Y-81607819D01*
X136525047Y-81607819D02*
X136620285Y-81560200D01*
X136620285Y-81560200D02*
X136667904Y-81512580D01*
X136667904Y-81512580D02*
X136715523Y-81417342D01*
X136715523Y-81417342D02*
X136715523Y-80607819D01*
X137334571Y-81036390D02*
X137239333Y-80988771D01*
X137239333Y-80988771D02*
X137191714Y-80941152D01*
X137191714Y-80941152D02*
X137144095Y-80845914D01*
X137144095Y-80845914D02*
X137144095Y-80798295D01*
X137144095Y-80798295D02*
X137191714Y-80703057D01*
X137191714Y-80703057D02*
X137239333Y-80655438D01*
X137239333Y-80655438D02*
X137334571Y-80607819D01*
X137334571Y-80607819D02*
X137525047Y-80607819D01*
X137525047Y-80607819D02*
X137620285Y-80655438D01*
X137620285Y-80655438D02*
X137667904Y-80703057D01*
X137667904Y-80703057D02*
X137715523Y-80798295D01*
X137715523Y-80798295D02*
X137715523Y-80845914D01*
X137715523Y-80845914D02*
X137667904Y-80941152D01*
X137667904Y-80941152D02*
X137620285Y-80988771D01*
X137620285Y-80988771D02*
X137525047Y-81036390D01*
X137525047Y-81036390D02*
X137334571Y-81036390D01*
X137334571Y-81036390D02*
X137239333Y-81084009D01*
X137239333Y-81084009D02*
X137191714Y-81131628D01*
X137191714Y-81131628D02*
X137144095Y-81226866D01*
X137144095Y-81226866D02*
X137144095Y-81417342D01*
X137144095Y-81417342D02*
X137191714Y-81512580D01*
X137191714Y-81512580D02*
X137239333Y-81560200D01*
X137239333Y-81560200D02*
X137334571Y-81607819D01*
X137334571Y-81607819D02*
X137525047Y-81607819D01*
X137525047Y-81607819D02*
X137620285Y-81560200D01*
X137620285Y-81560200D02*
X137667904Y-81512580D01*
X137667904Y-81512580D02*
X137715523Y-81417342D01*
X137715523Y-81417342D02*
X137715523Y-81226866D01*
X137715523Y-81226866D02*
X137667904Y-81131628D01*
X137667904Y-81131628D02*
X137620285Y-81084009D01*
X137620285Y-81084009D02*
X137525047Y-81036390D01*
X131530333Y-59683580D02*
X131482714Y-59731200D01*
X131482714Y-59731200D02*
X131339857Y-59778819D01*
X131339857Y-59778819D02*
X131244619Y-59778819D01*
X131244619Y-59778819D02*
X131101762Y-59731200D01*
X131101762Y-59731200D02*
X131006524Y-59635961D01*
X131006524Y-59635961D02*
X130958905Y-59540723D01*
X130958905Y-59540723D02*
X130911286Y-59350247D01*
X130911286Y-59350247D02*
X130911286Y-59207390D01*
X130911286Y-59207390D02*
X130958905Y-59016914D01*
X130958905Y-59016914D02*
X131006524Y-58921676D01*
X131006524Y-58921676D02*
X131101762Y-58826438D01*
X131101762Y-58826438D02*
X131244619Y-58778819D01*
X131244619Y-58778819D02*
X131339857Y-58778819D01*
X131339857Y-58778819D02*
X131482714Y-58826438D01*
X131482714Y-58826438D02*
X131530333Y-58874057D01*
X132101762Y-59207390D02*
X132006524Y-59159771D01*
X132006524Y-59159771D02*
X131958905Y-59112152D01*
X131958905Y-59112152D02*
X131911286Y-59016914D01*
X131911286Y-59016914D02*
X131911286Y-58969295D01*
X131911286Y-58969295D02*
X131958905Y-58874057D01*
X131958905Y-58874057D02*
X132006524Y-58826438D01*
X132006524Y-58826438D02*
X132101762Y-58778819D01*
X132101762Y-58778819D02*
X132292238Y-58778819D01*
X132292238Y-58778819D02*
X132387476Y-58826438D01*
X132387476Y-58826438D02*
X132435095Y-58874057D01*
X132435095Y-58874057D02*
X132482714Y-58969295D01*
X132482714Y-58969295D02*
X132482714Y-59016914D01*
X132482714Y-59016914D02*
X132435095Y-59112152D01*
X132435095Y-59112152D02*
X132387476Y-59159771D01*
X132387476Y-59159771D02*
X132292238Y-59207390D01*
X132292238Y-59207390D02*
X132101762Y-59207390D01*
X132101762Y-59207390D02*
X132006524Y-59255009D01*
X132006524Y-59255009D02*
X131958905Y-59302628D01*
X131958905Y-59302628D02*
X131911286Y-59397866D01*
X131911286Y-59397866D02*
X131911286Y-59588342D01*
X131911286Y-59588342D02*
X131958905Y-59683580D01*
X131958905Y-59683580D02*
X132006524Y-59731200D01*
X132006524Y-59731200D02*
X132101762Y-59778819D01*
X132101762Y-59778819D02*
X132292238Y-59778819D01*
X132292238Y-59778819D02*
X132387476Y-59731200D01*
X132387476Y-59731200D02*
X132435095Y-59683580D01*
X132435095Y-59683580D02*
X132482714Y-59588342D01*
X132482714Y-59588342D02*
X132482714Y-59397866D01*
X132482714Y-59397866D02*
X132435095Y-59302628D01*
X132435095Y-59302628D02*
X132387476Y-59255009D01*
X132387476Y-59255009D02*
X132292238Y-59207390D01*
X96149095Y-80602819D02*
X96149095Y-81412342D01*
X96149095Y-81412342D02*
X96196714Y-81507580D01*
X96196714Y-81507580D02*
X96244333Y-81555200D01*
X96244333Y-81555200D02*
X96339571Y-81602819D01*
X96339571Y-81602819D02*
X96530047Y-81602819D01*
X96530047Y-81602819D02*
X96625285Y-81555200D01*
X96625285Y-81555200D02*
X96672904Y-81507580D01*
X96672904Y-81507580D02*
X96720523Y-81412342D01*
X96720523Y-81412342D02*
X96720523Y-80602819D01*
X97149095Y-80698057D02*
X97196714Y-80650438D01*
X97196714Y-80650438D02*
X97291952Y-80602819D01*
X97291952Y-80602819D02*
X97530047Y-80602819D01*
X97530047Y-80602819D02*
X97625285Y-80650438D01*
X97625285Y-80650438D02*
X97672904Y-80698057D01*
X97672904Y-80698057D02*
X97720523Y-80793295D01*
X97720523Y-80793295D02*
X97720523Y-80888533D01*
X97720523Y-80888533D02*
X97672904Y-81031390D01*
X97672904Y-81031390D02*
X97101476Y-81602819D01*
X97101476Y-81602819D02*
X97720523Y-81602819D01*
X118332333Y-35929580D02*
X118284714Y-35977200D01*
X118284714Y-35977200D02*
X118141857Y-36024819D01*
X118141857Y-36024819D02*
X118046619Y-36024819D01*
X118046619Y-36024819D02*
X117903762Y-35977200D01*
X117903762Y-35977200D02*
X117808524Y-35881961D01*
X117808524Y-35881961D02*
X117760905Y-35786723D01*
X117760905Y-35786723D02*
X117713286Y-35596247D01*
X117713286Y-35596247D02*
X117713286Y-35453390D01*
X117713286Y-35453390D02*
X117760905Y-35262914D01*
X117760905Y-35262914D02*
X117808524Y-35167676D01*
X117808524Y-35167676D02*
X117903762Y-35072438D01*
X117903762Y-35072438D02*
X118046619Y-35024819D01*
X118046619Y-35024819D02*
X118141857Y-35024819D01*
X118141857Y-35024819D02*
X118284714Y-35072438D01*
X118284714Y-35072438D02*
X118332333Y-35120057D01*
X119237095Y-35024819D02*
X118760905Y-35024819D01*
X118760905Y-35024819D02*
X118713286Y-35501009D01*
X118713286Y-35501009D02*
X118760905Y-35453390D01*
X118760905Y-35453390D02*
X118856143Y-35405771D01*
X118856143Y-35405771D02*
X119094238Y-35405771D01*
X119094238Y-35405771D02*
X119189476Y-35453390D01*
X119189476Y-35453390D02*
X119237095Y-35501009D01*
X119237095Y-35501009D02*
X119284714Y-35596247D01*
X119284714Y-35596247D02*
X119284714Y-35834342D01*
X119284714Y-35834342D02*
X119237095Y-35929580D01*
X119237095Y-35929580D02*
X119189476Y-35977200D01*
X119189476Y-35977200D02*
X119094238Y-36024819D01*
X119094238Y-36024819D02*
X118856143Y-36024819D01*
X118856143Y-36024819D02*
X118760905Y-35977200D01*
X118760905Y-35977200D02*
X118713286Y-35929580D01*
X149098095Y-56858819D02*
X149098095Y-57668342D01*
X149098095Y-57668342D02*
X149145714Y-57763580D01*
X149145714Y-57763580D02*
X149193333Y-57811200D01*
X149193333Y-57811200D02*
X149288571Y-57858819D01*
X149288571Y-57858819D02*
X149479047Y-57858819D01*
X149479047Y-57858819D02*
X149574285Y-57811200D01*
X149574285Y-57811200D02*
X149621904Y-57763580D01*
X149621904Y-57763580D02*
X149669523Y-57668342D01*
X149669523Y-57668342D02*
X149669523Y-56858819D01*
X150193333Y-57858819D02*
X150383809Y-57858819D01*
X150383809Y-57858819D02*
X150479047Y-57811200D01*
X150479047Y-57811200D02*
X150526666Y-57763580D01*
X150526666Y-57763580D02*
X150621904Y-57620723D01*
X150621904Y-57620723D02*
X150669523Y-57430247D01*
X150669523Y-57430247D02*
X150669523Y-57049295D01*
X150669523Y-57049295D02*
X150621904Y-56954057D01*
X150621904Y-56954057D02*
X150574285Y-56906438D01*
X150574285Y-56906438D02*
X150479047Y-56858819D01*
X150479047Y-56858819D02*
X150288571Y-56858819D01*
X150288571Y-56858819D02*
X150193333Y-56906438D01*
X150193333Y-56906438D02*
X150145714Y-56954057D01*
X150145714Y-56954057D02*
X150098095Y-57049295D01*
X150098095Y-57049295D02*
X150098095Y-57287390D01*
X150098095Y-57287390D02*
X150145714Y-57382628D01*
X150145714Y-57382628D02*
X150193333Y-57430247D01*
X150193333Y-57430247D02*
X150288571Y-57477866D01*
X150288571Y-57477866D02*
X150479047Y-57477866D01*
X150479047Y-57477866D02*
X150574285Y-57430247D01*
X150574285Y-57430247D02*
X150621904Y-57382628D01*
X150621904Y-57382628D02*
X150669523Y-57287390D01*
X145002333Y-35929580D02*
X144954714Y-35977200D01*
X144954714Y-35977200D02*
X144811857Y-36024819D01*
X144811857Y-36024819D02*
X144716619Y-36024819D01*
X144716619Y-36024819D02*
X144573762Y-35977200D01*
X144573762Y-35977200D02*
X144478524Y-35881961D01*
X144478524Y-35881961D02*
X144430905Y-35786723D01*
X144430905Y-35786723D02*
X144383286Y-35596247D01*
X144383286Y-35596247D02*
X144383286Y-35453390D01*
X144383286Y-35453390D02*
X144430905Y-35262914D01*
X144430905Y-35262914D02*
X144478524Y-35167676D01*
X144478524Y-35167676D02*
X144573762Y-35072438D01*
X144573762Y-35072438D02*
X144716619Y-35024819D01*
X144716619Y-35024819D02*
X144811857Y-35024819D01*
X144811857Y-35024819D02*
X144954714Y-35072438D01*
X144954714Y-35072438D02*
X145002333Y-35120057D01*
X145478524Y-36024819D02*
X145669000Y-36024819D01*
X145669000Y-36024819D02*
X145764238Y-35977200D01*
X145764238Y-35977200D02*
X145811857Y-35929580D01*
X145811857Y-35929580D02*
X145907095Y-35786723D01*
X145907095Y-35786723D02*
X145954714Y-35596247D01*
X145954714Y-35596247D02*
X145954714Y-35215295D01*
X145954714Y-35215295D02*
X145907095Y-35120057D01*
X145907095Y-35120057D02*
X145859476Y-35072438D01*
X145859476Y-35072438D02*
X145764238Y-35024819D01*
X145764238Y-35024819D02*
X145573762Y-35024819D01*
X145573762Y-35024819D02*
X145478524Y-35072438D01*
X145478524Y-35072438D02*
X145430905Y-35120057D01*
X145430905Y-35120057D02*
X145383286Y-35215295D01*
X145383286Y-35215295D02*
X145383286Y-35453390D01*
X145383286Y-35453390D02*
X145430905Y-35548628D01*
X145430905Y-35548628D02*
X145478524Y-35596247D01*
X145478524Y-35596247D02*
X145573762Y-35643866D01*
X145573762Y-35643866D02*
X145764238Y-35643866D01*
X145764238Y-35643866D02*
X145859476Y-35596247D01*
X145859476Y-35596247D02*
X145907095Y-35548628D01*
X145907095Y-35548628D02*
X145954714Y-35453390D01*
X104860333Y-59683580D02*
X104812714Y-59731200D01*
X104812714Y-59731200D02*
X104669857Y-59778819D01*
X104669857Y-59778819D02*
X104574619Y-59778819D01*
X104574619Y-59778819D02*
X104431762Y-59731200D01*
X104431762Y-59731200D02*
X104336524Y-59635961D01*
X104336524Y-59635961D02*
X104288905Y-59540723D01*
X104288905Y-59540723D02*
X104241286Y-59350247D01*
X104241286Y-59350247D02*
X104241286Y-59207390D01*
X104241286Y-59207390D02*
X104288905Y-59016914D01*
X104288905Y-59016914D02*
X104336524Y-58921676D01*
X104336524Y-58921676D02*
X104431762Y-58826438D01*
X104431762Y-58826438D02*
X104574619Y-58778819D01*
X104574619Y-58778819D02*
X104669857Y-58778819D01*
X104669857Y-58778819D02*
X104812714Y-58826438D01*
X104812714Y-58826438D02*
X104860333Y-58874057D01*
X105717476Y-59112152D02*
X105717476Y-59778819D01*
X105479381Y-58731200D02*
X105241286Y-59445485D01*
X105241286Y-59445485D02*
X105860333Y-59445485D01*
X91702333Y-35929580D02*
X91654714Y-35977200D01*
X91654714Y-35977200D02*
X91511857Y-36024819D01*
X91511857Y-36024819D02*
X91416619Y-36024819D01*
X91416619Y-36024819D02*
X91273762Y-35977200D01*
X91273762Y-35977200D02*
X91178524Y-35881961D01*
X91178524Y-35881961D02*
X91130905Y-35786723D01*
X91130905Y-35786723D02*
X91083286Y-35596247D01*
X91083286Y-35596247D02*
X91083286Y-35453390D01*
X91083286Y-35453390D02*
X91130905Y-35262914D01*
X91130905Y-35262914D02*
X91178524Y-35167676D01*
X91178524Y-35167676D02*
X91273762Y-35072438D01*
X91273762Y-35072438D02*
X91416619Y-35024819D01*
X91416619Y-35024819D02*
X91511857Y-35024819D01*
X91511857Y-35024819D02*
X91654714Y-35072438D01*
X91654714Y-35072438D02*
X91702333Y-35120057D01*
X92654714Y-36024819D02*
X92083286Y-36024819D01*
X92369000Y-36024819D02*
X92369000Y-35024819D01*
X92369000Y-35024819D02*
X92273762Y-35167676D01*
X92273762Y-35167676D02*
X92178524Y-35262914D01*
X92178524Y-35262914D02*
X92083286Y-35310533D01*
X95758095Y-56858819D02*
X95758095Y-57668342D01*
X95758095Y-57668342D02*
X95805714Y-57763580D01*
X95805714Y-57763580D02*
X95853333Y-57811200D01*
X95853333Y-57811200D02*
X95948571Y-57858819D01*
X95948571Y-57858819D02*
X96139047Y-57858819D01*
X96139047Y-57858819D02*
X96234285Y-57811200D01*
X96234285Y-57811200D02*
X96281904Y-57763580D01*
X96281904Y-57763580D02*
X96329523Y-57668342D01*
X96329523Y-57668342D02*
X96329523Y-56858819D01*
X97329523Y-57858819D02*
X96758095Y-57858819D01*
X97043809Y-57858819D02*
X97043809Y-56858819D01*
X97043809Y-56858819D02*
X96948571Y-57001676D01*
X96948571Y-57001676D02*
X96853333Y-57096914D01*
X96853333Y-57096914D02*
X96758095Y-57144533D01*
X80438666Y-43352819D02*
X80438666Y-44067104D01*
X80438666Y-44067104D02*
X80391047Y-44209961D01*
X80391047Y-44209961D02*
X80295809Y-44305200D01*
X80295809Y-44305200D02*
X80152952Y-44352819D01*
X80152952Y-44352819D02*
X80057714Y-44352819D01*
X81438666Y-44352819D02*
X80867238Y-44352819D01*
X81152952Y-44352819D02*
X81152952Y-43352819D01*
X81152952Y-43352819D02*
X81057714Y-43495676D01*
X81057714Y-43495676D02*
X80962476Y-43590914D01*
X80962476Y-43590914D02*
X80867238Y-43638533D01*
X166166666Y-69704819D02*
X166166666Y-70419104D01*
X166166666Y-70419104D02*
X166119047Y-70561961D01*
X166119047Y-70561961D02*
X166023809Y-70657200D01*
X166023809Y-70657200D02*
X165880952Y-70704819D01*
X165880952Y-70704819D02*
X165785714Y-70704819D01*
X166595238Y-69800057D02*
X166642857Y-69752438D01*
X166642857Y-69752438D02*
X166738095Y-69704819D01*
X166738095Y-69704819D02*
X166976190Y-69704819D01*
X166976190Y-69704819D02*
X167071428Y-69752438D01*
X167071428Y-69752438D02*
X167119047Y-69800057D01*
X167119047Y-69800057D02*
X167166666Y-69895295D01*
X167166666Y-69895295D02*
X167166666Y-69990533D01*
X167166666Y-69990533D02*
X167119047Y-70133390D01*
X167119047Y-70133390D02*
X166547619Y-70704819D01*
X166547619Y-70704819D02*
X167166666Y-70704819D01*
X104870333Y-35929580D02*
X104822714Y-35977200D01*
X104822714Y-35977200D02*
X104679857Y-36024819D01*
X104679857Y-36024819D02*
X104584619Y-36024819D01*
X104584619Y-36024819D02*
X104441762Y-35977200D01*
X104441762Y-35977200D02*
X104346524Y-35881961D01*
X104346524Y-35881961D02*
X104298905Y-35786723D01*
X104298905Y-35786723D02*
X104251286Y-35596247D01*
X104251286Y-35596247D02*
X104251286Y-35453390D01*
X104251286Y-35453390D02*
X104298905Y-35262914D01*
X104298905Y-35262914D02*
X104346524Y-35167676D01*
X104346524Y-35167676D02*
X104441762Y-35072438D01*
X104441762Y-35072438D02*
X104584619Y-35024819D01*
X104584619Y-35024819D02*
X104679857Y-35024819D01*
X104679857Y-35024819D02*
X104822714Y-35072438D01*
X104822714Y-35072438D02*
X104870333Y-35120057D01*
X105203667Y-35024819D02*
X105822714Y-35024819D01*
X105822714Y-35024819D02*
X105489381Y-35405771D01*
X105489381Y-35405771D02*
X105632238Y-35405771D01*
X105632238Y-35405771D02*
X105727476Y-35453390D01*
X105727476Y-35453390D02*
X105775095Y-35501009D01*
X105775095Y-35501009D02*
X105822714Y-35596247D01*
X105822714Y-35596247D02*
X105822714Y-35834342D01*
X105822714Y-35834342D02*
X105775095Y-35929580D01*
X105775095Y-35929580D02*
X105727476Y-35977200D01*
X105727476Y-35977200D02*
X105632238Y-36024819D01*
X105632238Y-36024819D02*
X105346524Y-36024819D01*
X105346524Y-36024819D02*
X105251286Y-35977200D01*
X105251286Y-35977200D02*
X105203667Y-35929580D01*
D11*
%TO.C,U4*%
X104969000Y-61602000D02*
X104969000Y-79622000D01*
X104969000Y-79622000D02*
X115249000Y-79622000D01*
X107459000Y-61662000D02*
X107459000Y-79562000D01*
X107459000Y-79562000D02*
X112759000Y-79562000D01*
X109109000Y-61662000D02*
X107459000Y-61662000D01*
X112759000Y-61662000D02*
X111109000Y-61662000D01*
X112759000Y-79562000D02*
X112759000Y-61662000D01*
X115249000Y-61602000D02*
X104969000Y-61602000D01*
X115249000Y-79622000D02*
X115249000Y-61602000D01*
X109109000Y-61662000D02*
G75*
G03*
X111109000Y-61662000I1000000J0D01*
G01*
%TO.C,U7*%
X131649000Y-37975000D02*
X131649000Y-55995000D01*
X131649000Y-55995000D02*
X141929000Y-55995000D01*
X134139000Y-38035000D02*
X134139000Y-55935000D01*
X134139000Y-55935000D02*
X139439000Y-55935000D01*
X135789000Y-38035000D02*
X134139000Y-38035000D01*
X139439000Y-38035000D02*
X137789000Y-38035000D01*
X139439000Y-55935000D02*
X139439000Y-38035000D01*
X141929000Y-37975000D02*
X131649000Y-37975000D01*
X141929000Y-55995000D02*
X141929000Y-37975000D01*
X135789000Y-38035000D02*
G75*
G03*
X137789000Y-38035000I1000000J0D01*
G01*
%TO.C,C10*%
X172417000Y-58135225D02*
X172417000Y-58635225D01*
X172667000Y-58385225D02*
X172167000Y-58385225D01*
X173522000Y-60940000D02*
X168362000Y-60940000D01*
X173522000Y-60980000D02*
X168362000Y-60980000D01*
X173521000Y-61020000D02*
X168363000Y-61020000D01*
X173520000Y-61060000D02*
X168364000Y-61060000D01*
X173518000Y-61100000D02*
X168366000Y-61100000D01*
X173515000Y-61140000D02*
X168369000Y-61140000D01*
X173511000Y-61180000D02*
X171982000Y-61180000D01*
X169902000Y-61180000D02*
X168373000Y-61180000D01*
X173507000Y-61220000D02*
X171982000Y-61220000D01*
X169902000Y-61220000D02*
X168377000Y-61220000D01*
X173503000Y-61260000D02*
X171982000Y-61260000D01*
X169902000Y-61260000D02*
X168381000Y-61260000D01*
X173498000Y-61300000D02*
X171982000Y-61300000D01*
X169902000Y-61300000D02*
X168386000Y-61300000D01*
X173492000Y-61340000D02*
X171982000Y-61340000D01*
X169902000Y-61340000D02*
X168392000Y-61340000D01*
X173485000Y-61380000D02*
X171982000Y-61380000D01*
X169902000Y-61380000D02*
X168399000Y-61380000D01*
X173478000Y-61420000D02*
X171982000Y-61420000D01*
X169902000Y-61420000D02*
X168406000Y-61420000D01*
X173470000Y-61460000D02*
X171982000Y-61460000D01*
X169902000Y-61460000D02*
X168414000Y-61460000D01*
X173462000Y-61500000D02*
X171982000Y-61500000D01*
X169902000Y-61500000D02*
X168422000Y-61500000D01*
X173453000Y-61540000D02*
X171982000Y-61540000D01*
X169902000Y-61540000D02*
X168431000Y-61540000D01*
X173443000Y-61580000D02*
X171982000Y-61580000D01*
X169902000Y-61580000D02*
X168441000Y-61580000D01*
X173433000Y-61620000D02*
X171982000Y-61620000D01*
X169902000Y-61620000D02*
X168451000Y-61620000D01*
X173422000Y-61661000D02*
X171982000Y-61661000D01*
X169902000Y-61661000D02*
X168462000Y-61661000D01*
X173410000Y-61701000D02*
X171982000Y-61701000D01*
X169902000Y-61701000D02*
X168474000Y-61701000D01*
X173397000Y-61741000D02*
X171982000Y-61741000D01*
X169902000Y-61741000D02*
X168487000Y-61741000D01*
X173384000Y-61781000D02*
X171982000Y-61781000D01*
X169902000Y-61781000D02*
X168500000Y-61781000D01*
X173370000Y-61821000D02*
X171982000Y-61821000D01*
X169902000Y-61821000D02*
X168514000Y-61821000D01*
X173356000Y-61861000D02*
X171982000Y-61861000D01*
X169902000Y-61861000D02*
X168528000Y-61861000D01*
X173340000Y-61901000D02*
X171982000Y-61901000D01*
X169902000Y-61901000D02*
X168544000Y-61901000D01*
X173324000Y-61941000D02*
X171982000Y-61941000D01*
X169902000Y-61941000D02*
X168560000Y-61941000D01*
X173307000Y-61981000D02*
X171982000Y-61981000D01*
X169902000Y-61981000D02*
X168577000Y-61981000D01*
X173290000Y-62021000D02*
X171982000Y-62021000D01*
X169902000Y-62021000D02*
X168594000Y-62021000D01*
X173271000Y-62061000D02*
X171982000Y-62061000D01*
X169902000Y-62061000D02*
X168613000Y-62061000D01*
X173252000Y-62101000D02*
X171982000Y-62101000D01*
X169902000Y-62101000D02*
X168632000Y-62101000D01*
X173232000Y-62141000D02*
X171982000Y-62141000D01*
X169902000Y-62141000D02*
X168652000Y-62141000D01*
X173210000Y-62181000D02*
X171982000Y-62181000D01*
X169902000Y-62181000D02*
X168674000Y-62181000D01*
X173189000Y-62221000D02*
X171982000Y-62221000D01*
X169902000Y-62221000D02*
X168695000Y-62221000D01*
X173166000Y-62261000D02*
X171982000Y-62261000D01*
X169902000Y-62261000D02*
X168718000Y-62261000D01*
X173142000Y-62301000D02*
X171982000Y-62301000D01*
X169902000Y-62301000D02*
X168742000Y-62301000D01*
X173117000Y-62341000D02*
X171982000Y-62341000D01*
X169902000Y-62341000D02*
X168767000Y-62341000D01*
X173091000Y-62381000D02*
X171982000Y-62381000D01*
X169902000Y-62381000D02*
X168793000Y-62381000D01*
X173064000Y-62421000D02*
X171982000Y-62421000D01*
X169902000Y-62421000D02*
X168820000Y-62421000D01*
X173037000Y-62461000D02*
X171982000Y-62461000D01*
X169902000Y-62461000D02*
X168847000Y-62461000D01*
X173007000Y-62501000D02*
X171982000Y-62501000D01*
X169902000Y-62501000D02*
X168877000Y-62501000D01*
X172977000Y-62541000D02*
X171982000Y-62541000D01*
X169902000Y-62541000D02*
X168907000Y-62541000D01*
X172946000Y-62581000D02*
X171982000Y-62581000D01*
X169902000Y-62581000D02*
X168938000Y-62581000D01*
X172913000Y-62621000D02*
X171982000Y-62621000D01*
X169902000Y-62621000D02*
X168971000Y-62621000D01*
X172879000Y-62661000D02*
X171982000Y-62661000D01*
X169902000Y-62661000D02*
X169005000Y-62661000D01*
X172843000Y-62701000D02*
X171982000Y-62701000D01*
X169902000Y-62701000D02*
X169041000Y-62701000D01*
X172806000Y-62741000D02*
X171982000Y-62741000D01*
X169902000Y-62741000D02*
X169078000Y-62741000D01*
X172768000Y-62781000D02*
X171982000Y-62781000D01*
X169902000Y-62781000D02*
X169116000Y-62781000D01*
X172727000Y-62821000D02*
X171982000Y-62821000D01*
X169902000Y-62821000D02*
X169157000Y-62821000D01*
X172685000Y-62861000D02*
X171982000Y-62861000D01*
X169902000Y-62861000D02*
X169199000Y-62861000D01*
X172641000Y-62901000D02*
X171982000Y-62901000D01*
X169902000Y-62901000D02*
X169243000Y-62901000D01*
X172595000Y-62941000D02*
X171982000Y-62941000D01*
X169902000Y-62941000D02*
X169289000Y-62941000D01*
X172547000Y-62981000D02*
X171982000Y-62981000D01*
X169902000Y-62981000D02*
X169337000Y-62981000D01*
X172496000Y-63021000D02*
X171982000Y-63021000D01*
X169902000Y-63021000D02*
X169388000Y-63021000D01*
X172442000Y-63061000D02*
X171982000Y-63061000D01*
X169902000Y-63061000D02*
X169442000Y-63061000D01*
X172385000Y-63101000D02*
X171982000Y-63101000D01*
X169902000Y-63101000D02*
X169499000Y-63101000D01*
X172325000Y-63141000D02*
X171982000Y-63141000D01*
X169902000Y-63141000D02*
X169559000Y-63141000D01*
X172261000Y-63181000D02*
X171982000Y-63181000D01*
X169902000Y-63181000D02*
X169623000Y-63181000D01*
X172193000Y-63221000D02*
X171982000Y-63221000D01*
X169902000Y-63221000D02*
X169691000Y-63221000D01*
X172120000Y-63261000D02*
X169764000Y-63261000D01*
X172040000Y-63301000D02*
X169844000Y-63301000D01*
X171953000Y-63341000D02*
X169931000Y-63341000D01*
X171857000Y-63381000D02*
X170027000Y-63381000D01*
X171747000Y-63421000D02*
X170137000Y-63421000D01*
X171619000Y-63461000D02*
X170265000Y-63461000D01*
X171460000Y-63501000D02*
X170424000Y-63501000D01*
X171226000Y-63541000D02*
X170658000Y-63541000D01*
X173562000Y-60940000D02*
G75*
G03*
X173562000Y-60940000I-2620000J0D01*
G01*
%TO.C,C7*%
X138932000Y-36625000D02*
X138932000Y-36610000D01*
X138932000Y-36625000D02*
X134392000Y-36625000D01*
X138932000Y-34500000D02*
X138932000Y-34485000D01*
X138932000Y-34485000D02*
X134392000Y-34485000D01*
X134392000Y-36625000D02*
X134392000Y-36610000D01*
X134392000Y-34500000D02*
X134392000Y-34485000D01*
%TO.C,C6*%
X125714000Y-60379000D02*
X125714000Y-60364000D01*
X125714000Y-60379000D02*
X121174000Y-60379000D01*
X125714000Y-58254000D02*
X125714000Y-58239000D01*
X125714000Y-58239000D02*
X121174000Y-58239000D01*
X121174000Y-60379000D02*
X121174000Y-60364000D01*
X121174000Y-58254000D02*
X121174000Y-58239000D01*
%TO.C,U6*%
X118304000Y-61602000D02*
X118304000Y-79622000D01*
X118304000Y-79622000D02*
X128584000Y-79622000D01*
X120794000Y-61662000D02*
X120794000Y-79562000D01*
X120794000Y-79562000D02*
X126094000Y-79562000D01*
X122444000Y-61662000D02*
X120794000Y-61662000D01*
X126094000Y-61662000D02*
X124444000Y-61662000D01*
X126094000Y-79562000D02*
X126094000Y-61662000D01*
X128584000Y-61602000D02*
X118304000Y-61602000D01*
X128584000Y-79622000D02*
X128584000Y-61602000D01*
X122444000Y-61662000D02*
G75*
G03*
X124444000Y-61662000I1000000J0D01*
G01*
%TO.C,U5*%
X118314000Y-37975000D02*
X118314000Y-55995000D01*
X118314000Y-55995000D02*
X128594000Y-55995000D01*
X120804000Y-38035000D02*
X120804000Y-55935000D01*
X120804000Y-55935000D02*
X126104000Y-55935000D01*
X122454000Y-38035000D02*
X120804000Y-38035000D01*
X126104000Y-38035000D02*
X124454000Y-38035000D01*
X126104000Y-55935000D02*
X126104000Y-38035000D01*
X128594000Y-37975000D02*
X118314000Y-37975000D01*
X128594000Y-55995000D02*
X128594000Y-37975000D01*
X122454000Y-38035000D02*
G75*
G03*
X124454000Y-38035000I1000000J0D01*
G01*
%TO.C,C2*%
X99044000Y-60379000D02*
X99044000Y-60364000D01*
X99044000Y-60379000D02*
X94504000Y-60379000D01*
X99044000Y-58254000D02*
X99044000Y-58239000D01*
X99044000Y-58239000D02*
X94504000Y-58239000D01*
X94504000Y-60379000D02*
X94504000Y-60364000D01*
X94504000Y-58254000D02*
X94504000Y-58239000D01*
%TO.C,J3*%
X169670000Y-43300000D02*
X171000000Y-43300000D01*
X169670000Y-44630000D02*
X169670000Y-43300000D01*
X169670000Y-45900000D02*
X169670000Y-53580000D01*
X169670000Y-45900000D02*
X172330000Y-45900000D01*
X169670000Y-53580000D02*
X172330000Y-53580000D01*
X172330000Y-45900000D02*
X172330000Y-53580000D01*
%TO.C,U3*%
X104989000Y-37970000D02*
X104989000Y-55990000D01*
X104989000Y-55990000D02*
X115269000Y-55990000D01*
X107479000Y-38030000D02*
X107479000Y-55930000D01*
X107479000Y-55930000D02*
X112779000Y-55930000D01*
X109129000Y-38030000D02*
X107479000Y-38030000D01*
X112779000Y-38030000D02*
X111129000Y-38030000D01*
X112779000Y-55930000D02*
X112779000Y-38030000D01*
X115269000Y-37970000D02*
X104989000Y-37970000D01*
X115269000Y-55990000D02*
X115269000Y-37970000D01*
X109129000Y-38030000D02*
G75*
G03*
X111129000Y-38030000I1000000J0D01*
G01*
%TO.C,U8*%
X131639000Y-61602000D02*
X131639000Y-79622000D01*
X131639000Y-79622000D02*
X141919000Y-79622000D01*
X134129000Y-61662000D02*
X134129000Y-79562000D01*
X134129000Y-79562000D02*
X139429000Y-79562000D01*
X135779000Y-61662000D02*
X134129000Y-61662000D01*
X139429000Y-61662000D02*
X137779000Y-61662000D01*
X139429000Y-79562000D02*
X139429000Y-61662000D01*
X141919000Y-61602000D02*
X131639000Y-61602000D01*
X141919000Y-79622000D02*
X141919000Y-61602000D01*
X135779000Y-61662000D02*
G75*
G03*
X137779000Y-61662000I1000000J0D01*
G01*
%TO.C,C8*%
X138922000Y-60379000D02*
X138922000Y-60364000D01*
X138922000Y-60379000D02*
X134382000Y-60379000D01*
X138922000Y-58254000D02*
X138922000Y-58239000D01*
X138922000Y-58239000D02*
X134382000Y-58239000D01*
X134382000Y-60379000D02*
X134382000Y-60364000D01*
X134382000Y-58254000D02*
X134382000Y-58239000D01*
%TO.C,G\u002A\u002A\u002A*%
G36*
X157471503Y-69338717D02*
G01*
X157474878Y-69350527D01*
X157469541Y-69362704D01*
X157458419Y-69361462D01*
X157449697Y-69349558D01*
X157447516Y-69334014D01*
X157449363Y-69329639D01*
X157460652Y-69328412D01*
X157471503Y-69338717D01*
G37*
G36*
X157424473Y-69665139D02*
G01*
X157427454Y-69681931D01*
X157423102Y-69700609D01*
X157413364Y-69705090D01*
X157403216Y-69693385D01*
X157402605Y-69691870D01*
X157401364Y-69673660D01*
X157403462Y-69668159D01*
X157415216Y-69658315D01*
X157424473Y-69665139D01*
G37*
G36*
X157586929Y-69548818D02*
G01*
X157589954Y-69551354D01*
X157595834Y-69566584D01*
X157592282Y-69583239D01*
X157581521Y-69591779D01*
X157580522Y-69591827D01*
X157570109Y-69584209D01*
X157565686Y-69576014D01*
X157564782Y-69558146D01*
X157573613Y-69547303D01*
X157586929Y-69548818D01*
G37*
G36*
X157393452Y-69613062D02*
G01*
X157394897Y-69614980D01*
X157405487Y-69632208D01*
X157408485Y-69641063D01*
X157401937Y-69648397D01*
X157387262Y-69646262D01*
X157371911Y-69636013D01*
X157370213Y-69634106D01*
X157362934Y-69619403D01*
X157369690Y-69608023D01*
X157381184Y-69602605D01*
X157393452Y-69613062D01*
G37*
G36*
X157681644Y-69159119D02*
G01*
X157687296Y-69163418D01*
X157691929Y-69178846D01*
X157695886Y-69205510D01*
X157698769Y-69237467D01*
X157700182Y-69268775D01*
X157699728Y-69293493D01*
X157697011Y-69305679D01*
X157696803Y-69305857D01*
X157687695Y-69317811D01*
X157675469Y-69340015D01*
X157671839Y-69347596D01*
X157655994Y-69372798D01*
X157640222Y-69382647D01*
X157627053Y-69376077D01*
X157622918Y-69368194D01*
X157625671Y-69350712D01*
X157642880Y-69327560D01*
X157645000Y-69325399D01*
X157663088Y-69304111D01*
X157669132Y-69284369D01*
X157667380Y-69262119D01*
X157661609Y-69234207D01*
X157654655Y-69212565D01*
X157653768Y-69210692D01*
X157645596Y-69184553D01*
X157648648Y-69164553D01*
X157662005Y-69155625D01*
X157664012Y-69155531D01*
X157681644Y-69159119D01*
G37*
G36*
X158507953Y-69394597D02*
G01*
X158515870Y-69397761D01*
X158546648Y-69410702D01*
X158546648Y-69487037D01*
X158545507Y-69525962D01*
X158542344Y-69552383D01*
X158537546Y-69563257D01*
X158536928Y-69563373D01*
X158526734Y-69571224D01*
X158518194Y-69587085D01*
X158506642Y-69604745D01*
X158494717Y-69610796D01*
X158482870Y-69618718D01*
X158480255Y-69629766D01*
X158473425Y-69645462D01*
X158458361Y-69648325D01*
X158448639Y-69642412D01*
X158442296Y-69625490D01*
X158446142Y-69605992D01*
X158456543Y-69595257D01*
X158469134Y-69584134D01*
X158470770Y-69578055D01*
X158477237Y-69563390D01*
X158489740Y-69549146D01*
X158505496Y-69522483D01*
X158508709Y-69497618D01*
X158501918Y-69463152D01*
X158489740Y-69447015D01*
X158472905Y-69425013D01*
X158474481Y-69402442D01*
X158478077Y-69395848D01*
X158488212Y-69390057D01*
X158507953Y-69394597D01*
G37*
G36*
X157383272Y-69134186D02*
G01*
X157384525Y-69153298D01*
X157374608Y-69181095D01*
X157370734Y-69188394D01*
X157358814Y-69216435D01*
X157356011Y-69239027D01*
X157356674Y-69242013D01*
X157356906Y-69261544D01*
X157350745Y-69289594D01*
X157346409Y-69302339D01*
X157336093Y-69347688D01*
X157334241Y-69401282D01*
X157340530Y-69454550D01*
X157353719Y-69496980D01*
X157370164Y-69536574D01*
X157376932Y-69564416D01*
X157374951Y-69584481D01*
X157374489Y-69585748D01*
X157363932Y-69599924D01*
X157351191Y-69595587D01*
X157342426Y-69582966D01*
X157334976Y-69559522D01*
X157332608Y-69537439D01*
X157329785Y-69514527D01*
X157323902Y-69501248D01*
X157320000Y-69488827D01*
X157316650Y-69463167D01*
X157314006Y-69428860D01*
X157312222Y-69390496D01*
X157311452Y-69352668D01*
X157311849Y-69319966D01*
X157313569Y-69296982D01*
X157316763Y-69288306D01*
X157320468Y-69280340D01*
X157318635Y-69261046D01*
X157318403Y-69259965D01*
X157318155Y-69237680D01*
X157323693Y-69209890D01*
X157332935Y-69182805D01*
X157343799Y-69162637D01*
X157353402Y-69155531D01*
X157360205Y-69147823D01*
X157361062Y-69141304D01*
X157366341Y-69128685D01*
X157370844Y-69127077D01*
X157383272Y-69134186D01*
G37*
G36*
X157520286Y-69307586D02*
G01*
X157527010Y-69327372D01*
X157529935Y-69348338D01*
X157534007Y-69377716D01*
X157540716Y-69391618D01*
X157548977Y-69388699D01*
X157554185Y-69378421D01*
X157564220Y-69365854D01*
X157569427Y-69364194D01*
X157578273Y-69371409D01*
X157576378Y-69391256D01*
X157564182Y-69421043D01*
X157558439Y-69431763D01*
X157546077Y-69457298D01*
X157544504Y-69472824D01*
X157548955Y-69480004D01*
X157558150Y-69498759D01*
X157559635Y-69522195D01*
X157553127Y-69538978D01*
X157548364Y-69552555D01*
X157546054Y-69576307D01*
X157546013Y-69579973D01*
X157542441Y-69605641D01*
X157533224Y-69618394D01*
X157520610Y-69615350D01*
X157519337Y-69614155D01*
X157515361Y-69601471D01*
X157512881Y-69576998D01*
X157512515Y-69564163D01*
X157511699Y-69538719D01*
X157508836Y-69529443D01*
X157502588Y-69533549D01*
X157499614Y-69537290D01*
X157482714Y-69552295D01*
X157469645Y-69552080D01*
X157462560Y-69540322D01*
X157463613Y-69520695D01*
X157474957Y-69496876D01*
X157475491Y-69496119D01*
X157490806Y-69477772D01*
X157502772Y-69468726D01*
X157503978Y-69468526D01*
X157512071Y-69461976D01*
X157511253Y-69448224D01*
X157502728Y-69436115D01*
X157499323Y-69434298D01*
X157482717Y-69419461D01*
X157481137Y-69395012D01*
X157489172Y-69373549D01*
X157499470Y-69345760D01*
X157503332Y-69321194D01*
X157506024Y-69302025D01*
X157512483Y-69298313D01*
X157520286Y-69307586D01*
G37*
G36*
X158067612Y-69319438D02*
G01*
X158096398Y-69326683D01*
X158135274Y-69337371D01*
X158180449Y-69350369D01*
X158228134Y-69364540D01*
X158274538Y-69378752D01*
X158315872Y-69391869D01*
X158348346Y-69402757D01*
X158368171Y-69410281D01*
X158372107Y-69412386D01*
X158384142Y-69430395D01*
X158381559Y-69447660D01*
X158371181Y-69455611D01*
X158360408Y-69469508D01*
X158356954Y-69496182D01*
X158353239Y-69524908D01*
X158344178Y-69548065D01*
X158343029Y-69549704D01*
X158333972Y-69570917D01*
X158329067Y-69600286D01*
X158328802Y-69607410D01*
X158324918Y-69638388D01*
X158314273Y-69652165D01*
X158303491Y-69666385D01*
X158300046Y-69696158D01*
X158296323Y-69726790D01*
X158285819Y-69740152D01*
X158275042Y-69754115D01*
X158271592Y-69781374D01*
X158267897Y-69808847D01*
X158258645Y-69827748D01*
X158257365Y-69828944D01*
X158247589Y-69846531D01*
X158243186Y-69874258D01*
X158243138Y-69877529D01*
X158239239Y-69903821D01*
X158228859Y-69915367D01*
X158213978Y-69910261D01*
X158211522Y-69907983D01*
X158207573Y-69895300D01*
X158205367Y-69871256D01*
X158205199Y-69862030D01*
X158200342Y-69826824D01*
X158186230Y-69805232D01*
X158171609Y-69782129D01*
X158167260Y-69748016D01*
X158163699Y-69717053D01*
X158154242Y-69697271D01*
X158153033Y-69696158D01*
X158143042Y-69677685D01*
X158138844Y-69646830D01*
X158138806Y-69643303D01*
X158135393Y-69611243D01*
X158124608Y-69594407D01*
X158122981Y-69593398D01*
X158111775Y-69579243D01*
X158108530Y-69551697D01*
X158108688Y-69545438D01*
X158105504Y-69511160D01*
X158091499Y-69487613D01*
X158091317Y-69487430D01*
X158075581Y-69458466D01*
X158072413Y-69431265D01*
X158068936Y-69403445D01*
X158060354Y-69382379D01*
X158058186Y-69379776D01*
X158048828Y-69363460D01*
X158044344Y-69342596D01*
X158045377Y-69324572D01*
X158052570Y-69316772D01*
X158052704Y-69316771D01*
X158067612Y-69319438D01*
G37*
G36*
X158959660Y-69589329D02*
G01*
X158970773Y-69609181D01*
X158971911Y-69615620D01*
X158978341Y-69638395D01*
X158988509Y-69651578D01*
X158998241Y-69665770D01*
X159001913Y-69686811D01*
X159009116Y-69713905D01*
X159021669Y-69725033D01*
X159033225Y-69733613D01*
X159037739Y-69746679D01*
X159036561Y-69770152D01*
X159034898Y-69783055D01*
X159031963Y-69812440D01*
X159034426Y-69829640D01*
X159043679Y-69841014D01*
X159048339Y-69844489D01*
X159056305Y-69851274D01*
X159061819Y-69860721D01*
X159065329Y-69876094D01*
X159067281Y-69900656D01*
X159068125Y-69937671D01*
X159068306Y-69990162D01*
X159067892Y-70046195D01*
X159066241Y-70085985D01*
X159062739Y-70112249D01*
X159056773Y-70127704D01*
X159047727Y-70135067D01*
X159035109Y-70137051D01*
X159029314Y-70145698D01*
X159024605Y-70167749D01*
X159022758Y-70186991D01*
X159019150Y-70218739D01*
X159012447Y-70234223D01*
X159006160Y-70236786D01*
X158993940Y-70244362D01*
X158992428Y-70250679D01*
X158984898Y-70265774D01*
X158973459Y-70274725D01*
X158958352Y-70288325D01*
X158954490Y-70298770D01*
X158949472Y-70311416D01*
X158936255Y-70308315D01*
X158927932Y-70301282D01*
X158917204Y-70279209D01*
X158924002Y-70254956D01*
X158933149Y-70243967D01*
X158959944Y-70216617D01*
X158975103Y-70195895D01*
X158981721Y-70176472D01*
X158982944Y-70158213D01*
X158986504Y-70132361D01*
X158995518Y-70116868D01*
X158996369Y-70116327D01*
X159005370Y-70101265D01*
X159012055Y-70067827D01*
X159015021Y-70037607D01*
X159018565Y-69993247D01*
X159022651Y-69947741D01*
X159026060Y-69914087D01*
X159028496Y-69882328D01*
X159026082Y-69862803D01*
X159017550Y-69849116D01*
X159012151Y-69843853D01*
X158999352Y-69826795D01*
X158993450Y-69801920D01*
X158992428Y-69776470D01*
X158989185Y-69738210D01*
X158979660Y-69716485D01*
X158978201Y-69715128D01*
X158967577Y-69697336D01*
X158963974Y-69676667D01*
X158958030Y-69652918D01*
X158945490Y-69644147D01*
X158928448Y-69631601D01*
X158919327Y-69612038D01*
X158921341Y-69593592D01*
X158924086Y-69589983D01*
X158942262Y-69581946D01*
X158959660Y-69589329D01*
G37*
G36*
X156965410Y-67941761D02*
G01*
X157011619Y-67942390D01*
X157070888Y-67943954D01*
X157137341Y-67946258D01*
X157205103Y-67949106D01*
X157247245Y-67951165D01*
X157300530Y-67953837D01*
X157368875Y-67957104D01*
X157448384Y-67960791D01*
X157535164Y-67964720D01*
X157625321Y-67968713D01*
X157714959Y-67972593D01*
X157759419Y-67974480D01*
X157845495Y-67978206D01*
X157932508Y-67982159D01*
X158016893Y-67986163D01*
X158095086Y-67990043D01*
X158163524Y-67993623D01*
X158218642Y-67996729D01*
X158243138Y-67998246D01*
X158354229Y-68005309D01*
X158466174Y-68012043D01*
X158580850Y-68018536D01*
X158700135Y-68024879D01*
X158825909Y-68031160D01*
X158960049Y-68037468D01*
X159104434Y-68043894D01*
X159260942Y-68050526D01*
X159431452Y-68057454D01*
X159617843Y-68064767D01*
X159746461Y-68069695D01*
X159946737Y-68079917D01*
X160156183Y-68095520D01*
X160287088Y-68107655D01*
X160350146Y-68113797D01*
X160420596Y-68120413D01*
X160489349Y-68126663D01*
X160541714Y-68131231D01*
X160614125Y-68138541D01*
X160669691Y-68147767D01*
X160710535Y-68160573D01*
X160738780Y-68178624D01*
X160756549Y-68203585D01*
X160765964Y-68237119D01*
X160769148Y-68280892D01*
X160769023Y-68309455D01*
X160767204Y-68358112D01*
X160763780Y-68416534D01*
X160759326Y-68475643D01*
X160756548Y-68506166D01*
X160752724Y-68549883D01*
X160750409Y-68586679D01*
X160749801Y-68612452D01*
X160750898Y-68622868D01*
X160762029Y-68627173D01*
X160787476Y-68631726D01*
X160822611Y-68635776D01*
X160839251Y-68637156D01*
X160941917Y-68645203D01*
X161037016Y-68653626D01*
X161122881Y-68662221D01*
X161197845Y-68670786D01*
X161260241Y-68679119D01*
X161308402Y-68687018D01*
X161340661Y-68694281D01*
X161354116Y-68699645D01*
X161369884Y-68712658D01*
X161381361Y-68728091D01*
X161388755Y-68748442D01*
X161392274Y-68776208D01*
X161392128Y-68813888D01*
X161388525Y-68863979D01*
X161381673Y-68928977D01*
X161376745Y-68970741D01*
X161368913Y-69036356D01*
X161359633Y-69115179D01*
X161349563Y-69201565D01*
X161339359Y-69289871D01*
X161329677Y-69374452D01*
X161325459Y-69411618D01*
X161317015Y-69485863D01*
X161308452Y-69560445D01*
X161300242Y-69631286D01*
X161292861Y-69694303D01*
X161286783Y-69745419D01*
X161283546Y-69772036D01*
X161277011Y-69825725D01*
X161269346Y-69889980D01*
X161261532Y-69956515D01*
X161254909Y-70013896D01*
X161249033Y-70064622D01*
X161243518Y-70110854D01*
X161238902Y-70148178D01*
X161235722Y-70172183D01*
X161235207Y-70175632D01*
X161226183Y-70197889D01*
X161205502Y-70230344D01*
X161175140Y-70270001D01*
X161164972Y-70282224D01*
X161137480Y-70314937D01*
X161114521Y-70342661D01*
X161098909Y-70361974D01*
X161093688Y-70368922D01*
X161090833Y-70381133D01*
X161086726Y-70408668D01*
X161081832Y-70447959D01*
X161076613Y-70495440D01*
X161074292Y-70518416D01*
X161060493Y-70658855D01*
X161010970Y-70701536D01*
X160991449Y-70718449D01*
X160959867Y-70745921D01*
X160918441Y-70782018D01*
X160869386Y-70824809D01*
X160814919Y-70872359D01*
X160757255Y-70922738D01*
X160733342Y-70943641D01*
X160672276Y-70996916D01*
X160611021Y-71050150D01*
X160552318Y-71100977D01*
X160498911Y-71147026D01*
X160453541Y-71185930D01*
X160418952Y-71215320D01*
X160411891Y-71221255D01*
X160379500Y-71248665D01*
X160351095Y-71273598D01*
X160324700Y-71298167D01*
X160298342Y-71324485D01*
X160270046Y-71354666D01*
X160237837Y-71390821D01*
X160199741Y-71435064D01*
X160153784Y-71489509D01*
X160097990Y-71556267D01*
X160091010Y-71564642D01*
X160009135Y-71659485D01*
X159920641Y-71755921D01*
X159829651Y-71849717D01*
X159740288Y-71936636D01*
X159656674Y-72012444D01*
X159646872Y-72020894D01*
X159584876Y-72072751D01*
X159527712Y-72118155D01*
X159477176Y-72155823D01*
X159435063Y-72184470D01*
X159403169Y-72202816D01*
X159383291Y-72209576D01*
X159382740Y-72209587D01*
X159364830Y-72204756D01*
X159334785Y-72191505D01*
X159296422Y-72171681D01*
X159253558Y-72147130D01*
X159253257Y-72146950D01*
X159208755Y-72119812D01*
X159153851Y-72085679D01*
X159093993Y-72047975D01*
X159034631Y-72010124D01*
X159001913Y-71989022D01*
X158949854Y-71955280D01*
X158898410Y-71921946D01*
X158851654Y-71891661D01*
X158813662Y-71867064D01*
X158793250Y-71853859D01*
X158753369Y-71828855D01*
X158724665Y-71813810D01*
X158702843Y-71807712D01*
X158683608Y-71809544D01*
X158662665Y-71818292D01*
X158656465Y-71821545D01*
X158642109Y-71829336D01*
X158629229Y-71835625D01*
X158616540Y-71839742D01*
X158602756Y-71841019D01*
X158586592Y-71838787D01*
X158566762Y-71832376D01*
X158541982Y-71821118D01*
X158510966Y-71804344D01*
X158472428Y-71781385D01*
X158425083Y-71751573D01*
X158367646Y-71714237D01*
X158298831Y-71668710D01*
X158217352Y-71614322D01*
X158121925Y-71550405D01*
X158074960Y-71518938D01*
X157988284Y-71460693D01*
X157905942Y-71405005D01*
X157829354Y-71352859D01*
X157759941Y-71305238D01*
X157699122Y-71263127D01*
X157648318Y-71227508D01*
X157608949Y-71199366D01*
X157582434Y-71179685D01*
X157570196Y-71169447D01*
X157569901Y-71169097D01*
X157554505Y-71136426D01*
X157550755Y-71107289D01*
X157549880Y-71092201D01*
X157546190Y-71078152D01*
X157538092Y-71063753D01*
X157523992Y-71047615D01*
X157502295Y-71028347D01*
X157471407Y-71004560D01*
X157429735Y-70974864D01*
X157375683Y-70937869D01*
X157307658Y-70892186D01*
X157292026Y-70881745D01*
X157231844Y-70841438D01*
X157185495Y-70809899D01*
X157150967Y-70785469D01*
X157126247Y-70766489D01*
X157109322Y-70751302D01*
X157098180Y-70738246D01*
X157090808Y-70725665D01*
X157085192Y-70711898D01*
X157084875Y-70711020D01*
X157078997Y-70687174D01*
X157072260Y-70647020D01*
X157065013Y-70593181D01*
X157057605Y-70528280D01*
X157050385Y-70454940D01*
X157049526Y-70445449D01*
X157034522Y-70278457D01*
X157020060Y-70118043D01*
X157006275Y-69965697D01*
X156993304Y-69822911D01*
X156981282Y-69691174D01*
X156970346Y-69571977D01*
X156960631Y-69466810D01*
X156952274Y-69377163D01*
X156945411Y-69304527D01*
X156943860Y-69288317D01*
X156937076Y-69216666D01*
X156929294Y-69132854D01*
X156921130Y-69043620D01*
X156913201Y-68955703D01*
X156906123Y-68875841D01*
X156905698Y-68870990D01*
X156898655Y-68790927D01*
X156890717Y-68701447D01*
X156882510Y-68609565D01*
X156874661Y-68522294D01*
X156867796Y-68446650D01*
X156867570Y-68444179D01*
X156856837Y-68320600D01*
X156848849Y-68214855D01*
X156847751Y-68196467D01*
X157074564Y-68196467D01*
X157075879Y-68224064D01*
X157078533Y-68267743D01*
X157082414Y-68326095D01*
X157087412Y-68397707D01*
X157093416Y-68481170D01*
X157100315Y-68575073D01*
X157107997Y-68678003D01*
X157116351Y-68788551D01*
X157125266Y-68905305D01*
X157134631Y-69026855D01*
X157144336Y-69151789D01*
X157154268Y-69278696D01*
X157164316Y-69406166D01*
X157174371Y-69532787D01*
X157184319Y-69657150D01*
X157194051Y-69777841D01*
X157203455Y-69893452D01*
X157212421Y-70002570D01*
X157220836Y-70103784D01*
X157228590Y-70195685D01*
X157235571Y-70276860D01*
X157241669Y-70345899D01*
X157246773Y-70401391D01*
X157250771Y-70441925D01*
X157253552Y-70466090D01*
X157254757Y-70472596D01*
X157263345Y-70479006D01*
X157286726Y-70494849D01*
X157323700Y-70519355D01*
X157373070Y-70551756D01*
X157433639Y-70591280D01*
X157504208Y-70637160D01*
X157583579Y-70688626D01*
X157670556Y-70744907D01*
X157763939Y-70805234D01*
X157862531Y-70868839D01*
X157965134Y-70934950D01*
X158070551Y-71002800D01*
X158177583Y-71071617D01*
X158285033Y-71140634D01*
X158391703Y-71209080D01*
X158496395Y-71276185D01*
X158597910Y-71341180D01*
X158695052Y-71403296D01*
X158786623Y-71461763D01*
X158871424Y-71515812D01*
X158948258Y-71564673D01*
X159015927Y-71607576D01*
X159073233Y-71643752D01*
X159118978Y-71672432D01*
X159151965Y-71692846D01*
X159170995Y-71704224D01*
X159175306Y-71706409D01*
X159184886Y-71699512D01*
X159187104Y-71695057D01*
X159188008Y-71683840D01*
X159189248Y-71654903D01*
X159190798Y-71609408D01*
X159192635Y-71548521D01*
X159194733Y-71473405D01*
X159197067Y-71385226D01*
X159199613Y-71285146D01*
X159202345Y-71174331D01*
X159205239Y-71053945D01*
X159208270Y-70925151D01*
X159211414Y-70789115D01*
X159214645Y-70647000D01*
X159217938Y-70499970D01*
X159221270Y-70349191D01*
X159224614Y-70195826D01*
X159227946Y-70041039D01*
X159231242Y-69885995D01*
X159234476Y-69731858D01*
X159237623Y-69579792D01*
X159240660Y-69430962D01*
X159243560Y-69286531D01*
X159246300Y-69147664D01*
X159248854Y-69015526D01*
X159251197Y-68891279D01*
X159253305Y-68776090D01*
X159255153Y-68671122D01*
X159256716Y-68577539D01*
X159257969Y-68496505D01*
X159258888Y-68429185D01*
X159259447Y-68376743D01*
X159259622Y-68340343D01*
X159259387Y-68321150D01*
X159259103Y-68318362D01*
X159248817Y-68316753D01*
X159221055Y-68314166D01*
X159177264Y-68310689D01*
X159118892Y-68306410D01*
X159047386Y-68301415D01*
X158964193Y-68295793D01*
X158870761Y-68289631D01*
X158768536Y-68283016D01*
X158658967Y-68276035D01*
X158543501Y-68268777D01*
X158423585Y-68261328D01*
X158300667Y-68253777D01*
X158176193Y-68246210D01*
X158051612Y-68238715D01*
X157928370Y-68231380D01*
X157807915Y-68224291D01*
X157691694Y-68217537D01*
X157581156Y-68211205D01*
X157477746Y-68205382D01*
X157382913Y-68200156D01*
X157298103Y-68195615D01*
X157224765Y-68191845D01*
X157164346Y-68188934D01*
X157118292Y-68186970D01*
X157088052Y-68186039D01*
X157075072Y-68186231D01*
X157074700Y-68186365D01*
X157074564Y-68196467D01*
X156847751Y-68196467D01*
X156843611Y-68127110D01*
X156841131Y-68057529D01*
X156841415Y-68006277D01*
X156844471Y-67973520D01*
X156847845Y-67962409D01*
X156853904Y-67953305D01*
X156862857Y-67947323D01*
X156878332Y-67943826D01*
X156903960Y-67942176D01*
X156943367Y-67941736D01*
X156965410Y-67941761D01*
G37*
%TO.C,U2*%
X91644000Y-61597000D02*
X91644000Y-79617000D01*
X91644000Y-79617000D02*
X101924000Y-79617000D01*
X94134000Y-61657000D02*
X94134000Y-79557000D01*
X94134000Y-79557000D02*
X99434000Y-79557000D01*
X95784000Y-61657000D02*
X94134000Y-61657000D01*
X99434000Y-61657000D02*
X97784000Y-61657000D01*
X99434000Y-79557000D02*
X99434000Y-61657000D01*
X101924000Y-61597000D02*
X91644000Y-61597000D01*
X101924000Y-79617000D02*
X101924000Y-61597000D01*
X95784000Y-61657000D02*
G75*
G03*
X97784000Y-61657000I1000000J0D01*
G01*
%TO.C,C5*%
X125724000Y-36625000D02*
X125724000Y-36610000D01*
X125724000Y-36625000D02*
X121184000Y-36625000D01*
X125724000Y-34500000D02*
X125724000Y-34485000D01*
X125724000Y-34485000D02*
X121184000Y-34485000D01*
X121184000Y-36625000D02*
X121184000Y-36610000D01*
X121184000Y-34500000D02*
X121184000Y-34485000D01*
%TO.C,U9*%
X144984000Y-37975000D02*
X144984000Y-55995000D01*
X144984000Y-55995000D02*
X155264000Y-55995000D01*
X147474000Y-38035000D02*
X147474000Y-55935000D01*
X147474000Y-55935000D02*
X152774000Y-55935000D01*
X149124000Y-38035000D02*
X147474000Y-38035000D01*
X152774000Y-38035000D02*
X151124000Y-38035000D01*
X152774000Y-55935000D02*
X152774000Y-38035000D01*
X155264000Y-37975000D02*
X144984000Y-37975000D01*
X155264000Y-55995000D02*
X155264000Y-37975000D01*
X149124000Y-38035000D02*
G75*
G03*
X151124000Y-38035000I1000000J0D01*
G01*
%TO.C,C9*%
X152394000Y-36625000D02*
X152394000Y-36610000D01*
X152394000Y-36625000D02*
X147854000Y-36625000D01*
X152394000Y-34500000D02*
X152394000Y-34485000D01*
X152394000Y-34485000D02*
X147854000Y-34485000D01*
X147854000Y-36625000D02*
X147854000Y-36610000D01*
X147854000Y-34500000D02*
X147854000Y-34485000D01*
%TO.C,REF\u002A\u002A*%
D12*
X154410600Y-72062752D02*
X154427948Y-72070334D01*
X154469356Y-72103128D01*
X154504765Y-72150547D01*
X154526664Y-72201151D01*
X154530229Y-72226098D01*
X154518279Y-72260927D01*
X154492067Y-72279357D01*
X154463964Y-72290516D01*
X154451095Y-72292572D01*
X154444829Y-72277649D01*
X154432456Y-72245175D01*
X154427028Y-72230502D01*
X154396590Y-72179744D01*
X154352520Y-72154427D01*
X154296010Y-72155206D01*
X154291825Y-72156203D01*
X154261655Y-72170507D01*
X154239476Y-72198393D01*
X154224327Y-72243287D01*
X154215250Y-72308615D01*
X154211286Y-72397804D01*
X154210914Y-72445261D01*
X154210730Y-72520071D01*
X154209522Y-72571069D01*
X154206309Y-72603471D01*
X154200109Y-72622495D01*
X154189940Y-72633356D01*
X154174819Y-72641272D01*
X154173946Y-72641670D01*
X154144828Y-72653981D01*
X154130403Y-72658514D01*
X154128186Y-72644809D01*
X154126289Y-72606925D01*
X154124847Y-72549715D01*
X154123998Y-72478027D01*
X154123829Y-72425565D01*
X154124692Y-72324047D01*
X154128070Y-72247032D01*
X154135142Y-72190023D01*
X154147088Y-72148526D01*
X154165090Y-72118043D01*
X154190327Y-72094080D01*
X154215247Y-72077355D01*
X154275171Y-72055097D01*
X154344911Y-72050076D01*
X154410600Y-72062752D01*
G36*
X154410600Y-72062752D02*
G01*
X154427948Y-72070334D01*
X154469356Y-72103128D01*
X154504765Y-72150547D01*
X154526664Y-72201151D01*
X154530229Y-72226098D01*
X154518279Y-72260927D01*
X154492067Y-72279357D01*
X154463964Y-72290516D01*
X154451095Y-72292572D01*
X154444829Y-72277649D01*
X154432456Y-72245175D01*
X154427028Y-72230502D01*
X154396590Y-72179744D01*
X154352520Y-72154427D01*
X154296010Y-72155206D01*
X154291825Y-72156203D01*
X154261655Y-72170507D01*
X154239476Y-72198393D01*
X154224327Y-72243287D01*
X154215250Y-72308615D01*
X154211286Y-72397804D01*
X154210914Y-72445261D01*
X154210730Y-72520071D01*
X154209522Y-72571069D01*
X154206309Y-72603471D01*
X154200109Y-72622495D01*
X154189940Y-72633356D01*
X154174819Y-72641272D01*
X154173946Y-72641670D01*
X154144828Y-72653981D01*
X154130403Y-72658514D01*
X154128186Y-72644809D01*
X154126289Y-72606925D01*
X154124847Y-72549715D01*
X154123998Y-72478027D01*
X154123829Y-72425565D01*
X154124692Y-72324047D01*
X154128070Y-72247032D01*
X154135142Y-72190023D01*
X154147088Y-72148526D01*
X154165090Y-72118043D01*
X154190327Y-72094080D01*
X154215247Y-72077355D01*
X154275171Y-72055097D01*
X154344911Y-72050076D01*
X154410600Y-72062752D01*
G37*
X150474093Y-72031780D02*
X150520672Y-72058723D01*
X150553057Y-72085466D01*
X150576742Y-72113484D01*
X150593059Y-72147748D01*
X150603339Y-72193227D01*
X150608914Y-72254892D01*
X150611116Y-72337711D01*
X150611371Y-72397246D01*
X150611371Y-72616391D01*
X150549686Y-72644044D01*
X150488000Y-72671697D01*
X150480743Y-72431670D01*
X150477744Y-72342028D01*
X150474598Y-72276962D01*
X150470701Y-72232026D01*
X150465447Y-72202770D01*
X150458231Y-72184748D01*
X150448450Y-72173511D01*
X150445312Y-72171079D01*
X150397761Y-72152083D01*
X150349697Y-72159600D01*
X150321086Y-72179543D01*
X150309447Y-72193675D01*
X150301391Y-72212220D01*
X150296271Y-72240334D01*
X150293441Y-72283173D01*
X150292256Y-72345895D01*
X150292057Y-72411261D01*
X150292018Y-72493268D01*
X150290614Y-72551316D01*
X150285914Y-72590465D01*
X150275987Y-72615780D01*
X150258903Y-72632323D01*
X150232732Y-72645156D01*
X150197775Y-72658491D01*
X150159596Y-72673007D01*
X150164141Y-72415389D01*
X150165971Y-72322519D01*
X150168112Y-72253889D01*
X150171181Y-72204711D01*
X150175794Y-72170198D01*
X150182568Y-72145562D01*
X150192119Y-72126016D01*
X150203634Y-72108770D01*
X150259190Y-72053680D01*
X150326980Y-72021822D01*
X150400713Y-72014191D01*
X150474093Y-72031780D01*
G36*
X150474093Y-72031780D02*
G01*
X150520672Y-72058723D01*
X150553057Y-72085466D01*
X150576742Y-72113484D01*
X150593059Y-72147748D01*
X150603339Y-72193227D01*
X150608914Y-72254892D01*
X150611116Y-72337711D01*
X150611371Y-72397246D01*
X150611371Y-72616391D01*
X150549686Y-72644044D01*
X150488000Y-72671697D01*
X150480743Y-72431670D01*
X150477744Y-72342028D01*
X150474598Y-72276962D01*
X150470701Y-72232026D01*
X150465447Y-72202770D01*
X150458231Y-72184748D01*
X150448450Y-72173511D01*
X150445312Y-72171079D01*
X150397761Y-72152083D01*
X150349697Y-72159600D01*
X150321086Y-72179543D01*
X150309447Y-72193675D01*
X150301391Y-72212220D01*
X150296271Y-72240334D01*
X150293441Y-72283173D01*
X150292256Y-72345895D01*
X150292057Y-72411261D01*
X150292018Y-72493268D01*
X150290614Y-72551316D01*
X150285914Y-72590465D01*
X150275987Y-72615780D01*
X150258903Y-72632323D01*
X150232732Y-72645156D01*
X150197775Y-72658491D01*
X150159596Y-72673007D01*
X150164141Y-72415389D01*
X150165971Y-72322519D01*
X150168112Y-72253889D01*
X150171181Y-72204711D01*
X150175794Y-72170198D01*
X150182568Y-72145562D01*
X150192119Y-72126016D01*
X150203634Y-72108770D01*
X150259190Y-72053680D01*
X150326980Y-72021822D01*
X150400713Y-72014191D01*
X150474093Y-72031780D01*
G37*
X152287926Y-72053755D02*
X152353858Y-72078084D01*
X152407273Y-72121117D01*
X152428164Y-72151409D01*
X152450939Y-72206994D01*
X152450466Y-72247186D01*
X152426562Y-72274217D01*
X152417717Y-72278813D01*
X152379530Y-72293144D01*
X152360028Y-72289472D01*
X152353422Y-72265407D01*
X152353086Y-72252114D01*
X152340992Y-72203210D01*
X152309471Y-72168999D01*
X152265659Y-72152476D01*
X152216695Y-72156634D01*
X152176894Y-72178227D01*
X152163450Y-72190544D01*
X152153921Y-72205487D01*
X152147485Y-72228075D01*
X152143317Y-72263328D01*
X152140597Y-72316266D01*
X152138502Y-72391907D01*
X152137960Y-72415857D01*
X152135981Y-72497790D01*
X152133731Y-72555455D01*
X152130357Y-72593608D01*
X152125006Y-72617004D01*
X152116824Y-72630398D01*
X152104959Y-72638545D01*
X152097362Y-72642144D01*
X152065102Y-72654452D01*
X152046111Y-72658514D01*
X152039836Y-72644948D01*
X152036006Y-72603934D01*
X152034600Y-72534999D01*
X152035598Y-72437669D01*
X152035908Y-72422657D01*
X152038101Y-72333859D01*
X152040693Y-72269019D01*
X152044382Y-72223067D01*
X152049864Y-72190935D01*
X152057835Y-72167553D01*
X152068993Y-72147852D01*
X152074830Y-72139410D01*
X152108296Y-72102057D01*
X152145727Y-72073003D01*
X152150309Y-72070467D01*
X152217426Y-72050443D01*
X152287926Y-72053755D01*
G36*
X152287926Y-72053755D02*
G01*
X152353858Y-72078084D01*
X152407273Y-72121117D01*
X152428164Y-72151409D01*
X152450939Y-72206994D01*
X152450466Y-72247186D01*
X152426562Y-72274217D01*
X152417717Y-72278813D01*
X152379530Y-72293144D01*
X152360028Y-72289472D01*
X152353422Y-72265407D01*
X152353086Y-72252114D01*
X152340992Y-72203210D01*
X152309471Y-72168999D01*
X152265659Y-72152476D01*
X152216695Y-72156634D01*
X152176894Y-72178227D01*
X152163450Y-72190544D01*
X152153921Y-72205487D01*
X152147485Y-72228075D01*
X152143317Y-72263328D01*
X152140597Y-72316266D01*
X152138502Y-72391907D01*
X152137960Y-72415857D01*
X152135981Y-72497790D01*
X152133731Y-72555455D01*
X152130357Y-72593608D01*
X152125006Y-72617004D01*
X152116824Y-72630398D01*
X152104959Y-72638545D01*
X152097362Y-72642144D01*
X152065102Y-72654452D01*
X152046111Y-72658514D01*
X152039836Y-72644948D01*
X152036006Y-72603934D01*
X152034600Y-72534999D01*
X152035598Y-72437669D01*
X152035908Y-72422657D01*
X152038101Y-72333859D01*
X152040693Y-72269019D01*
X152044382Y-72223067D01*
X152049864Y-72190935D01*
X152057835Y-72167553D01*
X152068993Y-72147852D01*
X152074830Y-72139410D01*
X152108296Y-72102057D01*
X152145727Y-72073003D01*
X152150309Y-72070467D01*
X152217426Y-72050443D01*
X152287926Y-72053755D01*
G37*
X151133886Y-71955289D02*
X151138139Y-72014613D01*
X151143025Y-72049572D01*
X151149795Y-72064820D01*
X151159702Y-72065015D01*
X151162914Y-72063195D01*
X151205644Y-72050015D01*
X151261227Y-72050785D01*
X151317737Y-72064333D01*
X151353082Y-72081861D01*
X151389321Y-72109861D01*
X151415813Y-72141549D01*
X151433999Y-72181813D01*
X151445322Y-72235543D01*
X151451222Y-72307626D01*
X151453143Y-72402951D01*
X151453177Y-72421237D01*
X151453200Y-72626646D01*
X151407491Y-72642580D01*
X151375027Y-72653420D01*
X151357215Y-72658468D01*
X151356691Y-72658514D01*
X151354937Y-72644828D01*
X151353444Y-72607076D01*
X151352326Y-72550224D01*
X151351697Y-72479234D01*
X151351600Y-72436073D01*
X151351398Y-72350973D01*
X151350358Y-72289981D01*
X151347831Y-72248177D01*
X151343164Y-72220642D01*
X151335707Y-72202456D01*
X151324811Y-72188698D01*
X151318007Y-72182073D01*
X151271272Y-72155375D01*
X151220272Y-72153375D01*
X151174001Y-72175955D01*
X151165444Y-72184107D01*
X151152893Y-72199436D01*
X151144188Y-72217618D01*
X151138631Y-72243909D01*
X151135526Y-72283562D01*
X151134176Y-72341832D01*
X151133886Y-72422173D01*
X151133886Y-72626646D01*
X151088177Y-72642580D01*
X151055713Y-72653420D01*
X151037901Y-72658468D01*
X151037377Y-72658514D01*
X151036037Y-72644623D01*
X151034828Y-72605439D01*
X151033801Y-72544700D01*
X151033002Y-72466141D01*
X151032481Y-72373498D01*
X151032286Y-72270509D01*
X151032286Y-71873342D01*
X151079457Y-71853444D01*
X151126629Y-71833547D01*
X151133886Y-71955289D01*
G36*
X151133886Y-71955289D02*
G01*
X151138139Y-72014613D01*
X151143025Y-72049572D01*
X151149795Y-72064820D01*
X151159702Y-72065015D01*
X151162914Y-72063195D01*
X151205644Y-72050015D01*
X151261227Y-72050785D01*
X151317737Y-72064333D01*
X151353082Y-72081861D01*
X151389321Y-72109861D01*
X151415813Y-72141549D01*
X151433999Y-72181813D01*
X151445322Y-72235543D01*
X151451222Y-72307626D01*
X151453143Y-72402951D01*
X151453177Y-72421237D01*
X151453200Y-72626646D01*
X151407491Y-72642580D01*
X151375027Y-72653420D01*
X151357215Y-72658468D01*
X151356691Y-72658514D01*
X151354937Y-72644828D01*
X151353444Y-72607076D01*
X151352326Y-72550224D01*
X151351697Y-72479234D01*
X151351600Y-72436073D01*
X151351398Y-72350973D01*
X151350358Y-72289981D01*
X151347831Y-72248177D01*
X151343164Y-72220642D01*
X151335707Y-72202456D01*
X151324811Y-72188698D01*
X151318007Y-72182073D01*
X151271272Y-72155375D01*
X151220272Y-72153375D01*
X151174001Y-72175955D01*
X151165444Y-72184107D01*
X151152893Y-72199436D01*
X151144188Y-72217618D01*
X151138631Y-72243909D01*
X151135526Y-72283562D01*
X151134176Y-72341832D01*
X151133886Y-72422173D01*
X151133886Y-72626646D01*
X151088177Y-72642580D01*
X151055713Y-72653420D01*
X151037901Y-72658468D01*
X151037377Y-72658514D01*
X151036037Y-72644623D01*
X151034828Y-72605439D01*
X151033801Y-72544700D01*
X151033002Y-72466141D01*
X151032481Y-72373498D01*
X151032286Y-72270509D01*
X151032286Y-71873342D01*
X151079457Y-71853444D01*
X151126629Y-71833547D01*
X151133886Y-71955289D01*
G37*
X153537833Y-72062663D02*
X153540048Y-72100850D01*
X153541784Y-72158886D01*
X153542899Y-72232180D01*
X153543257Y-72309055D01*
X153543257Y-72569196D01*
X153497326Y-72615127D01*
X153465675Y-72643429D01*
X153437890Y-72654893D01*
X153399915Y-72654168D01*
X153384840Y-72652321D01*
X153337726Y-72646948D01*
X153298756Y-72643869D01*
X153289257Y-72643585D01*
X153257233Y-72645445D01*
X153211432Y-72650114D01*
X153193674Y-72652321D01*
X153150057Y-72655735D01*
X153120745Y-72648320D01*
X153091680Y-72625427D01*
X153081188Y-72615127D01*
X153035257Y-72569196D01*
X153035257Y-72082602D01*
X153072226Y-72065758D01*
X153104059Y-72053282D01*
X153122683Y-72048914D01*
X153127458Y-72062718D01*
X153131921Y-72101286D01*
X153135775Y-72160356D01*
X153138722Y-72235663D01*
X153140143Y-72299286D01*
X153144114Y-72549657D01*
X153178759Y-72554556D01*
X153210268Y-72551131D01*
X153225708Y-72540041D01*
X153230023Y-72519308D01*
X153233708Y-72475145D01*
X153236469Y-72413146D01*
X153238012Y-72338909D01*
X153238235Y-72300706D01*
X153238457Y-72080783D01*
X153284166Y-72064849D01*
X153316518Y-72054015D01*
X153334115Y-72048962D01*
X153334623Y-72048914D01*
X153336388Y-72062648D01*
X153338329Y-72100730D01*
X153340282Y-72158482D01*
X153342084Y-72231227D01*
X153343343Y-72299286D01*
X153347314Y-72549657D01*
X153434400Y-72549657D01*
X153438396Y-72321240D01*
X153442392Y-72092822D01*
X153484847Y-72070868D01*
X153516192Y-72055793D01*
X153534744Y-72048951D01*
X153535279Y-72048914D01*
X153537833Y-72062663D01*
G36*
X153537833Y-72062663D02*
G01*
X153540048Y-72100850D01*
X153541784Y-72158886D01*
X153542899Y-72232180D01*
X153543257Y-72309055D01*
X153543257Y-72569196D01*
X153497326Y-72615127D01*
X153465675Y-72643429D01*
X153437890Y-72654893D01*
X153399915Y-72654168D01*
X153384840Y-72652321D01*
X153337726Y-72646948D01*
X153298756Y-72643869D01*
X153289257Y-72643585D01*
X153257233Y-72645445D01*
X153211432Y-72650114D01*
X153193674Y-72652321D01*
X153150057Y-72655735D01*
X153120745Y-72648320D01*
X153091680Y-72625427D01*
X153081188Y-72615127D01*
X153035257Y-72569196D01*
X153035257Y-72082602D01*
X153072226Y-72065758D01*
X153104059Y-72053282D01*
X153122683Y-72048914D01*
X153127458Y-72062718D01*
X153131921Y-72101286D01*
X153135775Y-72160356D01*
X153138722Y-72235663D01*
X153140143Y-72299286D01*
X153144114Y-72549657D01*
X153178759Y-72554556D01*
X153210268Y-72551131D01*
X153225708Y-72540041D01*
X153230023Y-72519308D01*
X153233708Y-72475145D01*
X153236469Y-72413146D01*
X153238012Y-72338909D01*
X153238235Y-72300706D01*
X153238457Y-72080783D01*
X153284166Y-72064849D01*
X153316518Y-72054015D01*
X153334115Y-72048962D01*
X153334623Y-72048914D01*
X153336388Y-72062648D01*
X153338329Y-72100730D01*
X153340282Y-72158482D01*
X153342084Y-72231227D01*
X153343343Y-72299286D01*
X153347314Y-72549657D01*
X153434400Y-72549657D01*
X153438396Y-72321240D01*
X153442392Y-72092822D01*
X153484847Y-72070868D01*
X153516192Y-72055793D01*
X153534744Y-72048951D01*
X153535279Y-72048914D01*
X153537833Y-72062663D01*
G37*
X148799115Y-72025962D02*
X148867145Y-72061733D01*
X148917351Y-72119301D01*
X148935185Y-72156312D01*
X148949063Y-72211882D01*
X148956167Y-72282096D01*
X148956840Y-72358727D01*
X148951427Y-72433552D01*
X148940270Y-72498342D01*
X148923714Y-72544873D01*
X148918626Y-72552887D01*
X148858355Y-72612707D01*
X148786769Y-72648535D01*
X148709092Y-72659020D01*
X148630548Y-72642810D01*
X148608689Y-72633092D01*
X148566122Y-72603143D01*
X148528763Y-72563433D01*
X148525232Y-72558397D01*
X148510881Y-72534124D01*
X148501394Y-72508178D01*
X148495790Y-72474022D01*
X148493086Y-72425119D01*
X148492299Y-72354935D01*
X148492286Y-72339200D01*
X148492322Y-72334192D01*
X148637429Y-72334192D01*
X148638273Y-72400430D01*
X148641596Y-72444386D01*
X148648583Y-72472779D01*
X148660416Y-72492325D01*
X148666457Y-72498857D01*
X148701186Y-72523680D01*
X148734903Y-72522548D01*
X148768995Y-72501016D01*
X148789329Y-72478029D01*
X148801371Y-72444478D01*
X148808134Y-72391569D01*
X148808598Y-72385399D01*
X148809752Y-72289513D01*
X148797688Y-72218299D01*
X148772570Y-72172194D01*
X148734560Y-72151635D01*
X148720992Y-72150514D01*
X148685364Y-72156152D01*
X148660994Y-72175686D01*
X148646093Y-72213042D01*
X148638875Y-72272150D01*
X148637429Y-72334192D01*
X148492322Y-72334192D01*
X148492826Y-72264413D01*
X148495096Y-72212159D01*
X148500068Y-72175949D01*
X148508713Y-72149299D01*
X148522005Y-72125722D01*
X148524943Y-72121338D01*
X148574313Y-72062249D01*
X148628109Y-72027947D01*
X148693602Y-72014331D01*
X148715842Y-72013665D01*
X148799115Y-72025962D01*
G36*
X148799115Y-72025962D02*
G01*
X148867145Y-72061733D01*
X148917351Y-72119301D01*
X148935185Y-72156312D01*
X148949063Y-72211882D01*
X148956167Y-72282096D01*
X148956840Y-72358727D01*
X148951427Y-72433552D01*
X148940270Y-72498342D01*
X148923714Y-72544873D01*
X148918626Y-72552887D01*
X148858355Y-72612707D01*
X148786769Y-72648535D01*
X148709092Y-72659020D01*
X148630548Y-72642810D01*
X148608689Y-72633092D01*
X148566122Y-72603143D01*
X148528763Y-72563433D01*
X148525232Y-72558397D01*
X148510881Y-72534124D01*
X148501394Y-72508178D01*
X148495790Y-72474022D01*
X148493086Y-72425119D01*
X148492299Y-72354935D01*
X148492286Y-72339200D01*
X148492322Y-72334192D01*
X148637429Y-72334192D01*
X148638273Y-72400430D01*
X148641596Y-72444386D01*
X148648583Y-72472779D01*
X148660416Y-72492325D01*
X148666457Y-72498857D01*
X148701186Y-72523680D01*
X148734903Y-72522548D01*
X148768995Y-72501016D01*
X148789329Y-72478029D01*
X148801371Y-72444478D01*
X148808134Y-72391569D01*
X148808598Y-72385399D01*
X148809752Y-72289513D01*
X148797688Y-72218299D01*
X148772570Y-72172194D01*
X148734560Y-72151635D01*
X148720992Y-72150514D01*
X148685364Y-72156152D01*
X148660994Y-72175686D01*
X148646093Y-72213042D01*
X148638875Y-72272150D01*
X148637429Y-72334192D01*
X148492322Y-72334192D01*
X148492826Y-72264413D01*
X148495096Y-72212159D01*
X148500068Y-72175949D01*
X148508713Y-72149299D01*
X148522005Y-72125722D01*
X148524943Y-72121338D01*
X148574313Y-72062249D01*
X148628109Y-72027947D01*
X148693602Y-72014331D01*
X148715842Y-72013665D01*
X148799115Y-72025962D01*
G37*
X154911595Y-72070966D02*
X154969021Y-72108497D01*
X154996719Y-72142096D01*
X155018662Y-72203064D01*
X155020405Y-72251308D01*
X155016457Y-72315816D01*
X154867686Y-72380934D01*
X154795349Y-72414202D01*
X154748084Y-72440964D01*
X154723507Y-72464144D01*
X154719237Y-72486667D01*
X154732889Y-72511455D01*
X154747943Y-72527886D01*
X154791746Y-72554235D01*
X154839389Y-72556081D01*
X154883145Y-72535546D01*
X154915289Y-72494752D01*
X154921038Y-72480347D01*
X154948576Y-72435356D01*
X154980258Y-72416182D01*
X155023714Y-72399779D01*
X155023714Y-72461966D01*
X155019872Y-72504283D01*
X155004823Y-72539969D01*
X154973280Y-72580943D01*
X154968592Y-72586267D01*
X154933506Y-72622720D01*
X154903347Y-72642283D01*
X154865615Y-72651283D01*
X154834335Y-72654230D01*
X154778385Y-72654965D01*
X154738555Y-72645660D01*
X154713708Y-72631846D01*
X154674656Y-72601467D01*
X154647625Y-72568613D01*
X154630517Y-72527294D01*
X154621238Y-72471521D01*
X154617693Y-72395305D01*
X154617410Y-72356622D01*
X154618372Y-72310247D01*
X154706007Y-72310247D01*
X154707023Y-72335126D01*
X154709556Y-72339200D01*
X154726274Y-72333665D01*
X154762249Y-72319017D01*
X154810331Y-72298190D01*
X154820386Y-72293714D01*
X154881152Y-72262814D01*
X154914632Y-72235657D01*
X154921990Y-72210220D01*
X154904391Y-72184481D01*
X154889856Y-72173109D01*
X154837410Y-72150364D01*
X154788322Y-72154122D01*
X154747227Y-72181884D01*
X154718758Y-72231152D01*
X154709631Y-72270257D01*
X154706007Y-72310247D01*
X154618372Y-72310247D01*
X154619285Y-72266249D01*
X154626196Y-72199384D01*
X154639884Y-72150695D01*
X154662096Y-72114849D01*
X154694574Y-72086513D01*
X154708733Y-72077355D01*
X154773053Y-72053507D01*
X154843473Y-72052006D01*
X154911595Y-72070966D01*
G36*
X154911595Y-72070966D02*
G01*
X154969021Y-72108497D01*
X154996719Y-72142096D01*
X155018662Y-72203064D01*
X155020405Y-72251308D01*
X155016457Y-72315816D01*
X154867686Y-72380934D01*
X154795349Y-72414202D01*
X154748084Y-72440964D01*
X154723507Y-72464144D01*
X154719237Y-72486667D01*
X154732889Y-72511455D01*
X154747943Y-72527886D01*
X154791746Y-72554235D01*
X154839389Y-72556081D01*
X154883145Y-72535546D01*
X154915289Y-72494752D01*
X154921038Y-72480347D01*
X154948576Y-72435356D01*
X154980258Y-72416182D01*
X155023714Y-72399779D01*
X155023714Y-72461966D01*
X155019872Y-72504283D01*
X155004823Y-72539969D01*
X154973280Y-72580943D01*
X154968592Y-72586267D01*
X154933506Y-72622720D01*
X154903347Y-72642283D01*
X154865615Y-72651283D01*
X154834335Y-72654230D01*
X154778385Y-72654965D01*
X154738555Y-72645660D01*
X154713708Y-72631846D01*
X154674656Y-72601467D01*
X154647625Y-72568613D01*
X154630517Y-72527294D01*
X154621238Y-72471521D01*
X154617693Y-72395305D01*
X154617410Y-72356622D01*
X154618372Y-72310247D01*
X154706007Y-72310247D01*
X154707023Y-72335126D01*
X154709556Y-72339200D01*
X154726274Y-72333665D01*
X154762249Y-72319017D01*
X154810331Y-72298190D01*
X154820386Y-72293714D01*
X154881152Y-72262814D01*
X154914632Y-72235657D01*
X154921990Y-72210220D01*
X154904391Y-72184481D01*
X154889856Y-72173109D01*
X154837410Y-72150364D01*
X154788322Y-72154122D01*
X154747227Y-72181884D01*
X154718758Y-72231152D01*
X154709631Y-72270257D01*
X154706007Y-72310247D01*
X154618372Y-72310247D01*
X154619285Y-72266249D01*
X154626196Y-72199384D01*
X154639884Y-72150695D01*
X154662096Y-72114849D01*
X154694574Y-72086513D01*
X154708733Y-72077355D01*
X154773053Y-72053507D01*
X154843473Y-72052006D01*
X154911595Y-72070966D01*
G37*
X152948117Y-72169358D02*
X152947933Y-72277837D01*
X152947219Y-72361287D01*
X152945675Y-72423704D01*
X152943001Y-72469085D01*
X152938894Y-72501429D01*
X152933055Y-72524733D01*
X152925182Y-72542995D01*
X152919221Y-72553418D01*
X152869855Y-72609945D01*
X152807264Y-72645377D01*
X152738013Y-72658090D01*
X152668668Y-72646463D01*
X152627375Y-72625568D01*
X152584025Y-72589422D01*
X152554481Y-72545276D01*
X152536655Y-72487462D01*
X152528463Y-72410313D01*
X152527302Y-72353714D01*
X152527458Y-72349647D01*
X152628857Y-72349647D01*
X152629476Y-72414550D01*
X152632314Y-72457514D01*
X152638840Y-72485622D01*
X152650523Y-72505953D01*
X152664483Y-72521288D01*
X152711365Y-72550890D01*
X152761701Y-72553419D01*
X152809276Y-72528705D01*
X152812979Y-72525356D01*
X152828783Y-72507935D01*
X152838693Y-72487209D01*
X152844058Y-72456362D01*
X152846228Y-72408577D01*
X152846571Y-72355748D01*
X152845827Y-72289381D01*
X152842748Y-72245106D01*
X152836061Y-72216009D01*
X152824496Y-72195173D01*
X152815013Y-72184107D01*
X152770960Y-72156198D01*
X152720224Y-72152843D01*
X152671796Y-72174159D01*
X152662450Y-72182073D01*
X152646540Y-72199647D01*
X152636610Y-72220587D01*
X152631278Y-72251782D01*
X152629163Y-72300122D01*
X152628857Y-72349647D01*
X152527458Y-72349647D01*
X152530810Y-72262568D01*
X152542726Y-72194086D01*
X152565135Y-72142600D01*
X152600124Y-72102443D01*
X152627375Y-72081861D01*
X152676907Y-72059625D01*
X152734316Y-72049304D01*
X152787682Y-72052067D01*
X152817543Y-72063212D01*
X152829261Y-72066383D01*
X152837037Y-72054557D01*
X152842465Y-72022866D01*
X152846571Y-71974593D01*
X152851067Y-71920829D01*
X152857313Y-71888482D01*
X152868676Y-71869985D01*
X152888528Y-71857770D01*
X152901000Y-71852362D01*
X152948171Y-71832601D01*
X152948117Y-72169358D01*
G36*
X152948117Y-72169358D02*
G01*
X152947933Y-72277837D01*
X152947219Y-72361287D01*
X152945675Y-72423704D01*
X152943001Y-72469085D01*
X152938894Y-72501429D01*
X152933055Y-72524733D01*
X152925182Y-72542995D01*
X152919221Y-72553418D01*
X152869855Y-72609945D01*
X152807264Y-72645377D01*
X152738013Y-72658090D01*
X152668668Y-72646463D01*
X152627375Y-72625568D01*
X152584025Y-72589422D01*
X152554481Y-72545276D01*
X152536655Y-72487462D01*
X152528463Y-72410313D01*
X152527302Y-72353714D01*
X152527458Y-72349647D01*
X152628857Y-72349647D01*
X152629476Y-72414550D01*
X152632314Y-72457514D01*
X152638840Y-72485622D01*
X152650523Y-72505953D01*
X152664483Y-72521288D01*
X152711365Y-72550890D01*
X152761701Y-72553419D01*
X152809276Y-72528705D01*
X152812979Y-72525356D01*
X152828783Y-72507935D01*
X152838693Y-72487209D01*
X152844058Y-72456362D01*
X152846228Y-72408577D01*
X152846571Y-72355748D01*
X152845827Y-72289381D01*
X152842748Y-72245106D01*
X152836061Y-72216009D01*
X152824496Y-72195173D01*
X152815013Y-72184107D01*
X152770960Y-72156198D01*
X152720224Y-72152843D01*
X152671796Y-72174159D01*
X152662450Y-72182073D01*
X152646540Y-72199647D01*
X152636610Y-72220587D01*
X152631278Y-72251782D01*
X152629163Y-72300122D01*
X152628857Y-72349647D01*
X152527458Y-72349647D01*
X152530810Y-72262568D01*
X152542726Y-72194086D01*
X152565135Y-72142600D01*
X152600124Y-72102443D01*
X152627375Y-72081861D01*
X152676907Y-72059625D01*
X152734316Y-72049304D01*
X152787682Y-72052067D01*
X152817543Y-72063212D01*
X152829261Y-72066383D01*
X152837037Y-72054557D01*
X152842465Y-72022866D01*
X152846571Y-71974593D01*
X152851067Y-71920829D01*
X152857313Y-71888482D01*
X152868676Y-71869985D01*
X152888528Y-71857770D01*
X152901000Y-71852362D01*
X152948171Y-71832601D01*
X152948117Y-72169358D01*
G37*
X149926303Y-72035239D02*
X149983527Y-72073735D01*
X150027749Y-72129335D01*
X150054167Y-72200086D01*
X150059510Y-72252162D01*
X150058903Y-72273893D01*
X150053822Y-72290531D01*
X150039855Y-72305437D01*
X150012589Y-72321973D01*
X149967612Y-72343498D01*
X149900511Y-72373374D01*
X149900171Y-72373524D01*
X149838407Y-72401813D01*
X149787759Y-72426933D01*
X149753404Y-72446179D01*
X149740518Y-72456848D01*
X149740514Y-72456934D01*
X149751872Y-72480166D01*
X149778431Y-72505774D01*
X149808923Y-72524221D01*
X149824370Y-72527886D01*
X149866515Y-72515212D01*
X149902808Y-72483471D01*
X149920517Y-72448572D01*
X149937552Y-72422845D01*
X149970922Y-72393546D01*
X150010149Y-72368235D01*
X150044756Y-72354471D01*
X150051993Y-72353714D01*
X150060139Y-72366160D01*
X150060630Y-72397972D01*
X150054643Y-72440866D01*
X150043357Y-72486558D01*
X150027950Y-72526761D01*
X150027171Y-72528322D01*
X149980804Y-72593062D01*
X149920711Y-72637097D01*
X149852465Y-72658711D01*
X149781638Y-72656185D01*
X149713804Y-72627804D01*
X149710788Y-72625808D01*
X149657427Y-72577448D01*
X149622340Y-72514352D01*
X149602922Y-72431387D01*
X149600316Y-72408078D01*
X149595701Y-72298055D01*
X149601233Y-72246748D01*
X149740514Y-72246748D01*
X149742324Y-72278753D01*
X149752222Y-72288093D01*
X149776898Y-72281105D01*
X149815795Y-72264587D01*
X149859275Y-72243881D01*
X149860356Y-72243333D01*
X149897209Y-72223949D01*
X149912000Y-72211013D01*
X149908353Y-72197451D01*
X149892995Y-72179632D01*
X149853923Y-72153845D01*
X149811846Y-72151950D01*
X149774103Y-72170717D01*
X149748034Y-72206915D01*
X149740514Y-72246748D01*
X149601233Y-72246748D01*
X149605194Y-72210027D01*
X149629550Y-72140212D01*
X149663456Y-72091302D01*
X149724653Y-72041878D01*
X149792063Y-72017359D01*
X149860880Y-72015797D01*
X149926303Y-72035239D01*
G36*
X149926303Y-72035239D02*
G01*
X149983527Y-72073735D01*
X150027749Y-72129335D01*
X150054167Y-72200086D01*
X150059510Y-72252162D01*
X150058903Y-72273893D01*
X150053822Y-72290531D01*
X150039855Y-72305437D01*
X150012589Y-72321973D01*
X149967612Y-72343498D01*
X149900511Y-72373374D01*
X149900171Y-72373524D01*
X149838407Y-72401813D01*
X149787759Y-72426933D01*
X149753404Y-72446179D01*
X149740518Y-72456848D01*
X149740514Y-72456934D01*
X149751872Y-72480166D01*
X149778431Y-72505774D01*
X149808923Y-72524221D01*
X149824370Y-72527886D01*
X149866515Y-72515212D01*
X149902808Y-72483471D01*
X149920517Y-72448572D01*
X149937552Y-72422845D01*
X149970922Y-72393546D01*
X150010149Y-72368235D01*
X150044756Y-72354471D01*
X150051993Y-72353714D01*
X150060139Y-72366160D01*
X150060630Y-72397972D01*
X150054643Y-72440866D01*
X150043357Y-72486558D01*
X150027950Y-72526761D01*
X150027171Y-72528322D01*
X149980804Y-72593062D01*
X149920711Y-72637097D01*
X149852465Y-72658711D01*
X149781638Y-72656185D01*
X149713804Y-72627804D01*
X149710788Y-72625808D01*
X149657427Y-72577448D01*
X149622340Y-72514352D01*
X149602922Y-72431387D01*
X149600316Y-72408078D01*
X149595701Y-72298055D01*
X149601233Y-72246748D01*
X149740514Y-72246748D01*
X149742324Y-72278753D01*
X149752222Y-72288093D01*
X149776898Y-72281105D01*
X149815795Y-72264587D01*
X149859275Y-72243881D01*
X149860356Y-72243333D01*
X149897209Y-72223949D01*
X149912000Y-72211013D01*
X149908353Y-72197451D01*
X149892995Y-72179632D01*
X149853923Y-72153845D01*
X149811846Y-72151950D01*
X149774103Y-72170717D01*
X149748034Y-72206915D01*
X149740514Y-72246748D01*
X149601233Y-72246748D01*
X149605194Y-72210027D01*
X149629550Y-72140212D01*
X149663456Y-72091302D01*
X149724653Y-72041878D01*
X149792063Y-72017359D01*
X149860880Y-72015797D01*
X149926303Y-72035239D01*
G37*
X151797744Y-72054968D02*
X151854616Y-72076087D01*
X151855267Y-72076493D01*
X151890440Y-72102380D01*
X151916407Y-72132633D01*
X151934670Y-72172058D01*
X151946732Y-72225462D01*
X151954096Y-72297651D01*
X151958264Y-72393432D01*
X151958629Y-72407078D01*
X151963876Y-72612842D01*
X151919716Y-72635678D01*
X151887763Y-72651110D01*
X151868470Y-72658423D01*
X151867578Y-72658514D01*
X151864239Y-72645022D01*
X151861587Y-72608626D01*
X151859956Y-72555452D01*
X151859600Y-72512393D01*
X151859592Y-72442641D01*
X151856403Y-72398837D01*
X151845288Y-72377944D01*
X151821501Y-72376925D01*
X151780296Y-72392741D01*
X151718086Y-72421815D01*
X151672341Y-72445963D01*
X151648813Y-72466913D01*
X151641896Y-72489747D01*
X151641886Y-72490877D01*
X151653299Y-72530212D01*
X151687092Y-72551462D01*
X151738809Y-72554539D01*
X151776061Y-72554006D01*
X151795703Y-72564735D01*
X151807952Y-72590505D01*
X151815002Y-72623337D01*
X151804842Y-72641966D01*
X151801017Y-72644632D01*
X151765001Y-72655340D01*
X151714566Y-72656856D01*
X151662626Y-72649759D01*
X151625822Y-72636788D01*
X151574938Y-72593585D01*
X151546014Y-72533446D01*
X151540286Y-72486462D01*
X151544657Y-72444082D01*
X151560475Y-72409488D01*
X151591797Y-72378763D01*
X151642678Y-72347990D01*
X151717176Y-72313252D01*
X151721714Y-72311288D01*
X151788821Y-72280287D01*
X151830232Y-72254862D01*
X151847981Y-72232014D01*
X151844107Y-72208745D01*
X151820643Y-72182056D01*
X151813627Y-72175914D01*
X151766630Y-72152100D01*
X151717933Y-72153103D01*
X151675522Y-72176451D01*
X151647384Y-72219675D01*
X151644769Y-72228160D01*
X151619308Y-72269308D01*
X151587001Y-72289128D01*
X151540286Y-72308770D01*
X151540286Y-72257950D01*
X151554496Y-72184082D01*
X151596675Y-72116327D01*
X151618624Y-72093661D01*
X151668517Y-72064569D01*
X151731967Y-72051400D01*
X151797744Y-72054968D01*
G36*
X151797744Y-72054968D02*
G01*
X151854616Y-72076087D01*
X151855267Y-72076493D01*
X151890440Y-72102380D01*
X151916407Y-72132633D01*
X151934670Y-72172058D01*
X151946732Y-72225462D01*
X151954096Y-72297651D01*
X151958264Y-72393432D01*
X151958629Y-72407078D01*
X151963876Y-72612842D01*
X151919716Y-72635678D01*
X151887763Y-72651110D01*
X151868470Y-72658423D01*
X151867578Y-72658514D01*
X151864239Y-72645022D01*
X151861587Y-72608626D01*
X151859956Y-72555452D01*
X151859600Y-72512393D01*
X151859592Y-72442641D01*
X151856403Y-72398837D01*
X151845288Y-72377944D01*
X151821501Y-72376925D01*
X151780296Y-72392741D01*
X151718086Y-72421815D01*
X151672341Y-72445963D01*
X151648813Y-72466913D01*
X151641896Y-72489747D01*
X151641886Y-72490877D01*
X151653299Y-72530212D01*
X151687092Y-72551462D01*
X151738809Y-72554539D01*
X151776061Y-72554006D01*
X151795703Y-72564735D01*
X151807952Y-72590505D01*
X151815002Y-72623337D01*
X151804842Y-72641966D01*
X151801017Y-72644632D01*
X151765001Y-72655340D01*
X151714566Y-72656856D01*
X151662626Y-72649759D01*
X151625822Y-72636788D01*
X151574938Y-72593585D01*
X151546014Y-72533446D01*
X151540286Y-72486462D01*
X151544657Y-72444082D01*
X151560475Y-72409488D01*
X151591797Y-72378763D01*
X151642678Y-72347990D01*
X151717176Y-72313252D01*
X151721714Y-72311288D01*
X151788821Y-72280287D01*
X151830232Y-72254862D01*
X151847981Y-72232014D01*
X151844107Y-72208745D01*
X151820643Y-72182056D01*
X151813627Y-72175914D01*
X151766630Y-72152100D01*
X151717933Y-72153103D01*
X151675522Y-72176451D01*
X151647384Y-72219675D01*
X151644769Y-72228160D01*
X151619308Y-72269308D01*
X151587001Y-72289128D01*
X151540286Y-72308770D01*
X151540286Y-72257950D01*
X151554496Y-72184082D01*
X151596675Y-72116327D01*
X151618624Y-72093661D01*
X151668517Y-72064569D01*
X151731967Y-72051400D01*
X151797744Y-72054968D01*
G37*
X149357744Y-72023918D02*
X149413201Y-72051568D01*
X149462148Y-72102480D01*
X149475629Y-72121338D01*
X149490314Y-72146015D01*
X149499842Y-72172816D01*
X149505293Y-72208587D01*
X149507747Y-72260169D01*
X149508286Y-72328267D01*
X149505852Y-72421588D01*
X149497394Y-72491657D01*
X149481174Y-72543931D01*
X149455454Y-72583869D01*
X149418497Y-72616929D01*
X149415782Y-72618886D01*
X149379360Y-72638908D01*
X149335502Y-72648815D01*
X149279724Y-72651257D01*
X149189048Y-72651257D01*
X149189010Y-72739283D01*
X149188166Y-72788308D01*
X149183024Y-72817065D01*
X149169587Y-72834311D01*
X149143858Y-72848808D01*
X149137679Y-72851769D01*
X149108764Y-72865648D01*
X149086376Y-72874414D01*
X149069729Y-72875171D01*
X149058036Y-72865023D01*
X149050510Y-72841073D01*
X149046366Y-72800426D01*
X149044815Y-72740186D01*
X149045071Y-72657455D01*
X149046349Y-72549339D01*
X149046748Y-72517000D01*
X149048185Y-72405524D01*
X149049472Y-72332603D01*
X149188971Y-72332603D01*
X149189755Y-72394499D01*
X149193240Y-72434997D01*
X149201124Y-72461708D01*
X149215105Y-72482244D01*
X149224597Y-72492260D01*
X149263404Y-72521567D01*
X149297763Y-72523952D01*
X149333216Y-72499750D01*
X149334114Y-72498857D01*
X149348539Y-72480153D01*
X149357313Y-72454732D01*
X149361739Y-72415584D01*
X149363118Y-72355697D01*
X149363143Y-72342430D01*
X149359812Y-72259901D01*
X149348969Y-72202691D01*
X149329340Y-72167766D01*
X149299650Y-72152094D01*
X149282491Y-72150514D01*
X149241766Y-72157926D01*
X149213832Y-72182330D01*
X149197017Y-72226980D01*
X149189650Y-72295130D01*
X149188971Y-72332603D01*
X149049472Y-72332603D01*
X149049708Y-72319245D01*
X149051677Y-72254333D01*
X149054450Y-72206958D01*
X149058388Y-72173290D01*
X149063849Y-72149498D01*
X149071192Y-72131753D01*
X149080777Y-72116224D01*
X149084887Y-72110381D01*
X149139405Y-72055185D01*
X149208336Y-72023890D01*
X149288072Y-72015165D01*
X149357744Y-72023918D01*
G36*
X149357744Y-72023918D02*
G01*
X149413201Y-72051568D01*
X149462148Y-72102480D01*
X149475629Y-72121338D01*
X149490314Y-72146015D01*
X149499842Y-72172816D01*
X149505293Y-72208587D01*
X149507747Y-72260169D01*
X149508286Y-72328267D01*
X149505852Y-72421588D01*
X149497394Y-72491657D01*
X149481174Y-72543931D01*
X149455454Y-72583869D01*
X149418497Y-72616929D01*
X149415782Y-72618886D01*
X149379360Y-72638908D01*
X149335502Y-72648815D01*
X149279724Y-72651257D01*
X149189048Y-72651257D01*
X149189010Y-72739283D01*
X149188166Y-72788308D01*
X149183024Y-72817065D01*
X149169587Y-72834311D01*
X149143858Y-72848808D01*
X149137679Y-72851769D01*
X149108764Y-72865648D01*
X149086376Y-72874414D01*
X149069729Y-72875171D01*
X149058036Y-72865023D01*
X149050510Y-72841073D01*
X149046366Y-72800426D01*
X149044815Y-72740186D01*
X149045071Y-72657455D01*
X149046349Y-72549339D01*
X149046748Y-72517000D01*
X149048185Y-72405524D01*
X149049472Y-72332603D01*
X149188971Y-72332603D01*
X149189755Y-72394499D01*
X149193240Y-72434997D01*
X149201124Y-72461708D01*
X149215105Y-72482244D01*
X149224597Y-72492260D01*
X149263404Y-72521567D01*
X149297763Y-72523952D01*
X149333216Y-72499750D01*
X149334114Y-72498857D01*
X149348539Y-72480153D01*
X149357313Y-72454732D01*
X149361739Y-72415584D01*
X149363118Y-72355697D01*
X149363143Y-72342430D01*
X149359812Y-72259901D01*
X149348969Y-72202691D01*
X149329340Y-72167766D01*
X149299650Y-72152094D01*
X149282491Y-72150514D01*
X149241766Y-72157926D01*
X149213832Y-72182330D01*
X149197017Y-72226980D01*
X149189650Y-72295130D01*
X149188971Y-72332603D01*
X149049472Y-72332603D01*
X149049708Y-72319245D01*
X149051677Y-72254333D01*
X149054450Y-72206958D01*
X149058388Y-72173290D01*
X149063849Y-72149498D01*
X149071192Y-72131753D01*
X149080777Y-72116224D01*
X149084887Y-72110381D01*
X149139405Y-72055185D01*
X149208336Y-72023890D01*
X149288072Y-72015165D01*
X149357744Y-72023918D01*
G37*
X153902876Y-72060335D02*
X153944667Y-72079344D01*
X153977469Y-72102378D01*
X154001503Y-72128133D01*
X154018097Y-72161358D01*
X154028577Y-72206800D01*
X154034271Y-72269207D01*
X154036507Y-72353327D01*
X154036743Y-72408721D01*
X154036743Y-72624826D01*
X153999774Y-72641670D01*
X153970656Y-72653981D01*
X153956231Y-72658514D01*
X153953472Y-72645025D01*
X153951282Y-72608653D01*
X153949942Y-72555542D01*
X153949657Y-72513372D01*
X153948434Y-72452447D01*
X153945136Y-72404115D01*
X153940321Y-72374518D01*
X153936496Y-72368229D01*
X153910783Y-72374652D01*
X153870418Y-72391125D01*
X153823679Y-72413458D01*
X153778845Y-72437457D01*
X153744193Y-72458930D01*
X153728002Y-72473685D01*
X153727938Y-72473845D01*
X153729330Y-72501152D01*
X153741818Y-72527219D01*
X153763743Y-72548392D01*
X153795743Y-72555474D01*
X153823092Y-72554649D01*
X153861826Y-72554042D01*
X153882158Y-72563116D01*
X153894369Y-72587092D01*
X153895909Y-72591613D01*
X153901203Y-72625806D01*
X153887047Y-72646568D01*
X153850148Y-72656462D01*
X153810289Y-72658292D01*
X153738562Y-72644727D01*
X153701432Y-72625355D01*
X153655576Y-72579845D01*
X153631256Y-72523983D01*
X153629073Y-72464957D01*
X153649629Y-72409953D01*
X153680549Y-72375486D01*
X153711420Y-72356189D01*
X153759942Y-72331759D01*
X153816485Y-72306985D01*
X153825910Y-72303199D01*
X153888019Y-72275791D01*
X153923822Y-72251634D01*
X153935337Y-72227619D01*
X153924580Y-72200635D01*
X153906114Y-72179543D01*
X153862469Y-72153572D01*
X153814446Y-72151624D01*
X153770406Y-72171637D01*
X153738709Y-72211551D01*
X153734549Y-72221848D01*
X153710327Y-72259724D01*
X153674965Y-72287842D01*
X153630343Y-72310917D01*
X153630343Y-72245485D01*
X153632969Y-72205506D01*
X153644230Y-72173997D01*
X153669199Y-72140378D01*
X153693169Y-72114484D01*
X153730441Y-72077817D01*
X153759401Y-72058121D01*
X153790505Y-72050220D01*
X153825713Y-72048914D01*
X153902876Y-72060335D01*
G36*
X153902876Y-72060335D02*
G01*
X153944667Y-72079344D01*
X153977469Y-72102378D01*
X154001503Y-72128133D01*
X154018097Y-72161358D01*
X154028577Y-72206800D01*
X154034271Y-72269207D01*
X154036507Y-72353327D01*
X154036743Y-72408721D01*
X154036743Y-72624826D01*
X153999774Y-72641670D01*
X153970656Y-72653981D01*
X153956231Y-72658514D01*
X153953472Y-72645025D01*
X153951282Y-72608653D01*
X153949942Y-72555542D01*
X153949657Y-72513372D01*
X153948434Y-72452447D01*
X153945136Y-72404115D01*
X153940321Y-72374518D01*
X153936496Y-72368229D01*
X153910783Y-72374652D01*
X153870418Y-72391125D01*
X153823679Y-72413458D01*
X153778845Y-72437457D01*
X153744193Y-72458930D01*
X153728002Y-72473685D01*
X153727938Y-72473845D01*
X153729330Y-72501152D01*
X153741818Y-72527219D01*
X153763743Y-72548392D01*
X153795743Y-72555474D01*
X153823092Y-72554649D01*
X153861826Y-72554042D01*
X153882158Y-72563116D01*
X153894369Y-72587092D01*
X153895909Y-72591613D01*
X153901203Y-72625806D01*
X153887047Y-72646568D01*
X153850148Y-72656462D01*
X153810289Y-72658292D01*
X153738562Y-72644727D01*
X153701432Y-72625355D01*
X153655576Y-72579845D01*
X153631256Y-72523983D01*
X153629073Y-72464957D01*
X153649629Y-72409953D01*
X153680549Y-72375486D01*
X153711420Y-72356189D01*
X153759942Y-72331759D01*
X153816485Y-72306985D01*
X153825910Y-72303199D01*
X153888019Y-72275791D01*
X153923822Y-72251634D01*
X153935337Y-72227619D01*
X153924580Y-72200635D01*
X153906114Y-72179543D01*
X153862469Y-72153572D01*
X153814446Y-72151624D01*
X153770406Y-72171637D01*
X153738709Y-72211551D01*
X153734549Y-72221848D01*
X153710327Y-72259724D01*
X153674965Y-72287842D01*
X153630343Y-72310917D01*
X153630343Y-72245485D01*
X153632969Y-72205506D01*
X153644230Y-72173997D01*
X153669199Y-72140378D01*
X153693169Y-72114484D01*
X153730441Y-72077817D01*
X153759401Y-72058121D01*
X153790505Y-72050220D01*
X153825713Y-72048914D01*
X153902876Y-72060335D01*
G37*
X151861910Y-67346348D02*
X151940454Y-67346778D01*
X151997298Y-67347942D01*
X152036105Y-67350207D01*
X152060538Y-67353940D01*
X152074262Y-67359506D01*
X152080940Y-67367273D01*
X152084236Y-67377605D01*
X152084556Y-67378943D01*
X152089562Y-67403079D01*
X152098829Y-67450701D01*
X152111392Y-67516741D01*
X152126287Y-67596128D01*
X152142551Y-67683796D01*
X152143119Y-67686875D01*
X152159410Y-67772789D01*
X152174652Y-67848696D01*
X152187861Y-67910045D01*
X152198054Y-67952282D01*
X152204248Y-67970855D01*
X152204543Y-67971184D01*
X152222788Y-67980253D01*
X152260405Y-67995367D01*
X152309271Y-68013262D01*
X152309543Y-68013358D01*
X152371093Y-68036493D01*
X152443657Y-68065965D01*
X152512057Y-68095597D01*
X152515294Y-68097062D01*
X152626702Y-68147626D01*
X152873399Y-67979160D01*
X152949077Y-67927803D01*
X153017631Y-67881889D01*
X153075088Y-67844030D01*
X153117476Y-67816837D01*
X153140825Y-67802921D01*
X153143042Y-67801889D01*
X153160010Y-67806484D01*
X153191701Y-67828655D01*
X153239352Y-67869447D01*
X153304198Y-67929905D01*
X153370397Y-67994227D01*
X153434214Y-68057612D01*
X153491329Y-68115451D01*
X153538305Y-68164175D01*
X153571703Y-68200210D01*
X153588085Y-68219984D01*
X153588694Y-68221002D01*
X153590505Y-68234572D01*
X153583683Y-68256733D01*
X153566540Y-68290478D01*
X153537393Y-68338800D01*
X153494555Y-68404692D01*
X153437448Y-68489517D01*
X153386766Y-68564177D01*
X153341461Y-68631140D01*
X153304150Y-68686516D01*
X153277452Y-68726420D01*
X153263985Y-68746962D01*
X153263137Y-68748356D01*
X153264781Y-68768038D01*
X153277245Y-68806293D01*
X153298048Y-68855889D01*
X153305462Y-68871728D01*
X153337814Y-68942290D01*
X153372328Y-69022353D01*
X153400365Y-69091629D01*
X153420568Y-69143045D01*
X153436615Y-69182119D01*
X153445888Y-69202541D01*
X153447041Y-69204114D01*
X153464096Y-69206721D01*
X153504298Y-69213863D01*
X153562302Y-69224523D01*
X153632763Y-69237685D01*
X153710335Y-69252333D01*
X153789672Y-69267449D01*
X153865431Y-69282018D01*
X153932264Y-69295022D01*
X153984828Y-69305445D01*
X154017776Y-69312270D01*
X154025857Y-69314199D01*
X154034205Y-69318962D01*
X154040506Y-69329718D01*
X154045045Y-69350098D01*
X154048104Y-69383734D01*
X154049967Y-69434255D01*
X154050918Y-69505292D01*
X154051240Y-69600476D01*
X154051257Y-69639492D01*
X154051257Y-69956799D01*
X153975057Y-69971839D01*
X153932663Y-69979995D01*
X153869400Y-69991899D01*
X153792962Y-70006116D01*
X153711043Y-70021210D01*
X153688400Y-70025355D01*
X153612806Y-70040053D01*
X153546953Y-70054505D01*
X153496366Y-70067375D01*
X153466574Y-70077322D01*
X153461612Y-70080287D01*
X153449426Y-70101283D01*
X153431953Y-70141967D01*
X153412577Y-70194322D01*
X153408734Y-70205600D01*
X153383339Y-70275523D01*
X153351817Y-70354418D01*
X153320969Y-70425266D01*
X153320817Y-70425595D01*
X153269447Y-70536733D01*
X153438399Y-70785253D01*
X153607352Y-71033772D01*
X153390429Y-71251058D01*
X153324819Y-71315726D01*
X153264979Y-71372733D01*
X153214267Y-71419033D01*
X153176046Y-71451584D01*
X153153675Y-71467343D01*
X153150466Y-71468343D01*
X153131626Y-71460469D01*
X153093180Y-71438578D01*
X153039330Y-71405267D01*
X152974276Y-71363131D01*
X152903940Y-71315943D01*
X152832555Y-71267810D01*
X152768908Y-71225928D01*
X152717041Y-71192871D01*
X152680995Y-71171218D01*
X152664867Y-71163543D01*
X152645189Y-71170037D01*
X152607875Y-71187150D01*
X152560621Y-71211326D01*
X152555612Y-71214013D01*
X152491977Y-71245927D01*
X152448341Y-71261579D01*
X152421202Y-71261745D01*
X152407057Y-71247204D01*
X152406975Y-71247000D01*
X152399905Y-71229779D01*
X152383042Y-71188899D01*
X152357695Y-71127525D01*
X152325171Y-71048819D01*
X152286778Y-70955947D01*
X152243822Y-70852072D01*
X152202222Y-70751502D01*
X152156504Y-70640516D01*
X152114526Y-70537703D01*
X152077548Y-70446215D01*
X152046827Y-70369201D01*
X152023622Y-70309815D01*
X152009190Y-70271209D01*
X152004743Y-70256800D01*
X152015896Y-70240272D01*
X152045069Y-70213930D01*
X152083971Y-70184887D01*
X152194757Y-70093039D01*
X152281351Y-69987759D01*
X152342716Y-69871266D01*
X152377815Y-69745776D01*
X152385608Y-69613507D01*
X152379943Y-69552457D01*
X152349078Y-69425795D01*
X152295920Y-69313941D01*
X152223767Y-69218001D01*
X152135917Y-69139076D01*
X152035665Y-69078270D01*
X151926310Y-69036687D01*
X151811147Y-69015428D01*
X151693475Y-69015599D01*
X151576590Y-69038301D01*
X151463789Y-69084638D01*
X151358369Y-69155713D01*
X151314368Y-69195911D01*
X151229979Y-69299129D01*
X151171222Y-69411925D01*
X151137704Y-69531010D01*
X151129035Y-69653095D01*
X151144823Y-69774893D01*
X151184678Y-69893116D01*
X151248207Y-70004475D01*
X151335021Y-70105684D01*
X151432029Y-70184887D01*
X151472437Y-70215162D01*
X151500982Y-70241219D01*
X151511257Y-70256825D01*
X151505877Y-70273843D01*
X151490575Y-70314500D01*
X151466612Y-70375642D01*
X151435244Y-70454119D01*
X151397732Y-70546780D01*
X151355333Y-70650472D01*
X151313663Y-70751526D01*
X151267690Y-70862607D01*
X151225107Y-70965541D01*
X151187221Y-71057165D01*
X151155340Y-71134316D01*
X151130771Y-71193831D01*
X151114820Y-71232544D01*
X151108910Y-71247000D01*
X151094948Y-71261685D01*
X151067940Y-71261642D01*
X151024413Y-71246099D01*
X150960890Y-71214284D01*
X150960388Y-71214013D01*
X150912560Y-71189323D01*
X150873897Y-71171338D01*
X150852095Y-71163614D01*
X150851133Y-71163543D01*
X150834721Y-71171378D01*
X150798487Y-71193165D01*
X150746474Y-71226328D01*
X150682725Y-71268291D01*
X150612060Y-71315943D01*
X150540116Y-71364191D01*
X150475274Y-71406151D01*
X150421735Y-71439227D01*
X150383697Y-71460821D01*
X150365533Y-71468343D01*
X150348808Y-71458457D01*
X150315180Y-71430826D01*
X150268010Y-71388495D01*
X150210658Y-71334505D01*
X150146484Y-71271899D01*
X150125497Y-71250983D01*
X149908499Y-71033623D01*
X150073668Y-70791220D01*
X150123864Y-70716781D01*
X150167919Y-70649972D01*
X150203362Y-70594665D01*
X150227719Y-70554729D01*
X150238522Y-70534036D01*
X150238838Y-70532563D01*
X150233143Y-70513058D01*
X150217826Y-70473822D01*
X150195537Y-70421430D01*
X150179893Y-70386355D01*
X150150641Y-70319201D01*
X150123094Y-70251358D01*
X150101737Y-70194034D01*
X150095935Y-70176572D01*
X150079452Y-70129938D01*
X150063340Y-70093905D01*
X150054490Y-70080287D01*
X150034960Y-70071952D01*
X149992334Y-70060137D01*
X149932145Y-70046181D01*
X149859922Y-70031422D01*
X149827600Y-70025355D01*
X149745522Y-70010273D01*
X149666795Y-69995669D01*
X149599109Y-69982980D01*
X149550160Y-69973642D01*
X149540943Y-69971839D01*
X149464743Y-69956799D01*
X149464743Y-69639492D01*
X149464914Y-69535154D01*
X149465616Y-69456213D01*
X149467134Y-69399038D01*
X149469749Y-69359999D01*
X149473746Y-69335465D01*
X149479409Y-69321805D01*
X149487020Y-69315389D01*
X149490143Y-69314199D01*
X149508978Y-69309980D01*
X149550588Y-69301562D01*
X149609630Y-69289961D01*
X149680757Y-69276195D01*
X149758625Y-69261280D01*
X149837887Y-69246232D01*
X149913198Y-69232069D01*
X149979213Y-69219806D01*
X150030587Y-69210461D01*
X150061975Y-69205050D01*
X150068959Y-69204114D01*
X150075285Y-69191596D01*
X150089290Y-69158246D01*
X150108355Y-69110377D01*
X150115634Y-69091629D01*
X150144996Y-69019195D01*
X150179571Y-68939170D01*
X150210537Y-68871728D01*
X150233323Y-68820159D01*
X150248482Y-68777785D01*
X150253542Y-68751834D01*
X150252736Y-68748356D01*
X150242041Y-68731936D01*
X150217620Y-68695417D01*
X150182095Y-68642687D01*
X150138087Y-68577635D01*
X150088217Y-68504151D01*
X150078356Y-68489645D01*
X150020492Y-68403704D01*
X149977956Y-68338261D01*
X149949054Y-68290304D01*
X149932090Y-68256820D01*
X149925367Y-68234795D01*
X149927190Y-68221217D01*
X149927236Y-68221131D01*
X149941586Y-68203297D01*
X149973323Y-68168817D01*
X150019010Y-68121268D01*
X150075204Y-68064222D01*
X150138468Y-68001255D01*
X150145602Y-67994227D01*
X150225330Y-67917020D01*
X150286857Y-67860330D01*
X150331421Y-67823110D01*
X150360257Y-67804315D01*
X150372958Y-67801889D01*
X150391494Y-67812471D01*
X150429961Y-67836916D01*
X150484386Y-67872612D01*
X150550798Y-67916947D01*
X150625225Y-67967311D01*
X150642601Y-67979160D01*
X150889297Y-68147626D01*
X151000706Y-68097062D01*
X151068457Y-68067595D01*
X151141183Y-68037959D01*
X151203703Y-68014330D01*
X151206457Y-68013358D01*
X151255360Y-67995457D01*
X151293057Y-67980320D01*
X151311425Y-67971210D01*
X151311456Y-67971184D01*
X151317285Y-67954717D01*
X151327192Y-67914219D01*
X151340195Y-67854242D01*
X151355309Y-67779340D01*
X151371552Y-67694064D01*
X151372881Y-67686875D01*
X151389175Y-67599014D01*
X151404133Y-67519260D01*
X151416791Y-67452681D01*
X151426186Y-67404347D01*
X151431354Y-67379325D01*
X151431444Y-67378943D01*
X151434589Y-67368299D01*
X151440704Y-67360262D01*
X151453453Y-67354467D01*
X151476500Y-67350547D01*
X151513509Y-67348135D01*
X151568144Y-67346865D01*
X151644067Y-67346371D01*
X151744944Y-67346286D01*
X151758000Y-67346286D01*
X151861910Y-67346348D01*
G36*
X151861910Y-67346348D02*
G01*
X151940454Y-67346778D01*
X151997298Y-67347942D01*
X152036105Y-67350207D01*
X152060538Y-67353940D01*
X152074262Y-67359506D01*
X152080940Y-67367273D01*
X152084236Y-67377605D01*
X152084556Y-67378943D01*
X152089562Y-67403079D01*
X152098829Y-67450701D01*
X152111392Y-67516741D01*
X152126287Y-67596128D01*
X152142551Y-67683796D01*
X152143119Y-67686875D01*
X152159410Y-67772789D01*
X152174652Y-67848696D01*
X152187861Y-67910045D01*
X152198054Y-67952282D01*
X152204248Y-67970855D01*
X152204543Y-67971184D01*
X152222788Y-67980253D01*
X152260405Y-67995367D01*
X152309271Y-68013262D01*
X152309543Y-68013358D01*
X152371093Y-68036493D01*
X152443657Y-68065965D01*
X152512057Y-68095597D01*
X152515294Y-68097062D01*
X152626702Y-68147626D01*
X152873399Y-67979160D01*
X152949077Y-67927803D01*
X153017631Y-67881889D01*
X153075088Y-67844030D01*
X153117476Y-67816837D01*
X153140825Y-67802921D01*
X153143042Y-67801889D01*
X153160010Y-67806484D01*
X153191701Y-67828655D01*
X153239352Y-67869447D01*
X153304198Y-67929905D01*
X153370397Y-67994227D01*
X153434214Y-68057612D01*
X153491329Y-68115451D01*
X153538305Y-68164175D01*
X153571703Y-68200210D01*
X153588085Y-68219984D01*
X153588694Y-68221002D01*
X153590505Y-68234572D01*
X153583683Y-68256733D01*
X153566540Y-68290478D01*
X153537393Y-68338800D01*
X153494555Y-68404692D01*
X153437448Y-68489517D01*
X153386766Y-68564177D01*
X153341461Y-68631140D01*
X153304150Y-68686516D01*
X153277452Y-68726420D01*
X153263985Y-68746962D01*
X153263137Y-68748356D01*
X153264781Y-68768038D01*
X153277245Y-68806293D01*
X153298048Y-68855889D01*
X153305462Y-68871728D01*
X153337814Y-68942290D01*
X153372328Y-69022353D01*
X153400365Y-69091629D01*
X153420568Y-69143045D01*
X153436615Y-69182119D01*
X153445888Y-69202541D01*
X153447041Y-69204114D01*
X153464096Y-69206721D01*
X153504298Y-69213863D01*
X153562302Y-69224523D01*
X153632763Y-69237685D01*
X153710335Y-69252333D01*
X153789672Y-69267449D01*
X153865431Y-69282018D01*
X153932264Y-69295022D01*
X153984828Y-69305445D01*
X154017776Y-69312270D01*
X154025857Y-69314199D01*
X154034205Y-69318962D01*
X154040506Y-69329718D01*
X154045045Y-69350098D01*
X154048104Y-69383734D01*
X154049967Y-69434255D01*
X154050918Y-69505292D01*
X154051240Y-69600476D01*
X154051257Y-69639492D01*
X154051257Y-69956799D01*
X153975057Y-69971839D01*
X153932663Y-69979995D01*
X153869400Y-69991899D01*
X153792962Y-70006116D01*
X153711043Y-70021210D01*
X153688400Y-70025355D01*
X153612806Y-70040053D01*
X153546953Y-70054505D01*
X153496366Y-70067375D01*
X153466574Y-70077322D01*
X153461612Y-70080287D01*
X153449426Y-70101283D01*
X153431953Y-70141967D01*
X153412577Y-70194322D01*
X153408734Y-70205600D01*
X153383339Y-70275523D01*
X153351817Y-70354418D01*
X153320969Y-70425266D01*
X153320817Y-70425595D01*
X153269447Y-70536733D01*
X153438399Y-70785253D01*
X153607352Y-71033772D01*
X153390429Y-71251058D01*
X153324819Y-71315726D01*
X153264979Y-71372733D01*
X153214267Y-71419033D01*
X153176046Y-71451584D01*
X153153675Y-71467343D01*
X153150466Y-71468343D01*
X153131626Y-71460469D01*
X153093180Y-71438578D01*
X153039330Y-71405267D01*
X152974276Y-71363131D01*
X152903940Y-71315943D01*
X152832555Y-71267810D01*
X152768908Y-71225928D01*
X152717041Y-71192871D01*
X152680995Y-71171218D01*
X152664867Y-71163543D01*
X152645189Y-71170037D01*
X152607875Y-71187150D01*
X152560621Y-71211326D01*
X152555612Y-71214013D01*
X152491977Y-71245927D01*
X152448341Y-71261579D01*
X152421202Y-71261745D01*
X152407057Y-71247204D01*
X152406975Y-71247000D01*
X152399905Y-71229779D01*
X152383042Y-71188899D01*
X152357695Y-71127525D01*
X152325171Y-71048819D01*
X152286778Y-70955947D01*
X152243822Y-70852072D01*
X152202222Y-70751502D01*
X152156504Y-70640516D01*
X152114526Y-70537703D01*
X152077548Y-70446215D01*
X152046827Y-70369201D01*
X152023622Y-70309815D01*
X152009190Y-70271209D01*
X152004743Y-70256800D01*
X152015896Y-70240272D01*
X152045069Y-70213930D01*
X152083971Y-70184887D01*
X152194757Y-70093039D01*
X152281351Y-69987759D01*
X152342716Y-69871266D01*
X152377815Y-69745776D01*
X152385608Y-69613507D01*
X152379943Y-69552457D01*
X152349078Y-69425795D01*
X152295920Y-69313941D01*
X152223767Y-69218001D01*
X152135917Y-69139076D01*
X152035665Y-69078270D01*
X151926310Y-69036687D01*
X151811147Y-69015428D01*
X151693475Y-69015599D01*
X151576590Y-69038301D01*
X151463789Y-69084638D01*
X151358369Y-69155713D01*
X151314368Y-69195911D01*
X151229979Y-69299129D01*
X151171222Y-69411925D01*
X151137704Y-69531010D01*
X151129035Y-69653095D01*
X151144823Y-69774893D01*
X151184678Y-69893116D01*
X151248207Y-70004475D01*
X151335021Y-70105684D01*
X151432029Y-70184887D01*
X151472437Y-70215162D01*
X151500982Y-70241219D01*
X151511257Y-70256825D01*
X151505877Y-70273843D01*
X151490575Y-70314500D01*
X151466612Y-70375642D01*
X151435244Y-70454119D01*
X151397732Y-70546780D01*
X151355333Y-70650472D01*
X151313663Y-70751526D01*
X151267690Y-70862607D01*
X151225107Y-70965541D01*
X151187221Y-71057165D01*
X151155340Y-71134316D01*
X151130771Y-71193831D01*
X151114820Y-71232544D01*
X151108910Y-71247000D01*
X151094948Y-71261685D01*
X151067940Y-71261642D01*
X151024413Y-71246099D01*
X150960890Y-71214284D01*
X150960388Y-71214013D01*
X150912560Y-71189323D01*
X150873897Y-71171338D01*
X150852095Y-71163614D01*
X150851133Y-71163543D01*
X150834721Y-71171378D01*
X150798487Y-71193165D01*
X150746474Y-71226328D01*
X150682725Y-71268291D01*
X150612060Y-71315943D01*
X150540116Y-71364191D01*
X150475274Y-71406151D01*
X150421735Y-71439227D01*
X150383697Y-71460821D01*
X150365533Y-71468343D01*
X150348808Y-71458457D01*
X150315180Y-71430826D01*
X150268010Y-71388495D01*
X150210658Y-71334505D01*
X150146484Y-71271899D01*
X150125497Y-71250983D01*
X149908499Y-71033623D01*
X150073668Y-70791220D01*
X150123864Y-70716781D01*
X150167919Y-70649972D01*
X150203362Y-70594665D01*
X150227719Y-70554729D01*
X150238522Y-70534036D01*
X150238838Y-70532563D01*
X150233143Y-70513058D01*
X150217826Y-70473822D01*
X150195537Y-70421430D01*
X150179893Y-70386355D01*
X150150641Y-70319201D01*
X150123094Y-70251358D01*
X150101737Y-70194034D01*
X150095935Y-70176572D01*
X150079452Y-70129938D01*
X150063340Y-70093905D01*
X150054490Y-70080287D01*
X150034960Y-70071952D01*
X149992334Y-70060137D01*
X149932145Y-70046181D01*
X149859922Y-70031422D01*
X149827600Y-70025355D01*
X149745522Y-70010273D01*
X149666795Y-69995669D01*
X149599109Y-69982980D01*
X149550160Y-69973642D01*
X149540943Y-69971839D01*
X149464743Y-69956799D01*
X149464743Y-69639492D01*
X149464914Y-69535154D01*
X149465616Y-69456213D01*
X149467134Y-69399038D01*
X149469749Y-69359999D01*
X149473746Y-69335465D01*
X149479409Y-69321805D01*
X149487020Y-69315389D01*
X149490143Y-69314199D01*
X149508978Y-69309980D01*
X149550588Y-69301562D01*
X149609630Y-69289961D01*
X149680757Y-69276195D01*
X149758625Y-69261280D01*
X149837887Y-69246232D01*
X149913198Y-69232069D01*
X149979213Y-69219806D01*
X150030587Y-69210461D01*
X150061975Y-69205050D01*
X150068959Y-69204114D01*
X150075285Y-69191596D01*
X150089290Y-69158246D01*
X150108355Y-69110377D01*
X150115634Y-69091629D01*
X150144996Y-69019195D01*
X150179571Y-68939170D01*
X150210537Y-68871728D01*
X150233323Y-68820159D01*
X150248482Y-68777785D01*
X150253542Y-68751834D01*
X150252736Y-68748356D01*
X150242041Y-68731936D01*
X150217620Y-68695417D01*
X150182095Y-68642687D01*
X150138087Y-68577635D01*
X150088217Y-68504151D01*
X150078356Y-68489645D01*
X150020492Y-68403704D01*
X149977956Y-68338261D01*
X149949054Y-68290304D01*
X149932090Y-68256820D01*
X149925367Y-68234795D01*
X149927190Y-68221217D01*
X149927236Y-68221131D01*
X149941586Y-68203297D01*
X149973323Y-68168817D01*
X150019010Y-68121268D01*
X150075204Y-68064222D01*
X150138468Y-68001255D01*
X150145602Y-67994227D01*
X150225330Y-67917020D01*
X150286857Y-67860330D01*
X150331421Y-67823110D01*
X150360257Y-67804315D01*
X150372958Y-67801889D01*
X150391494Y-67812471D01*
X150429961Y-67836916D01*
X150484386Y-67872612D01*
X150550798Y-67916947D01*
X150625225Y-67967311D01*
X150642601Y-67979160D01*
X150889297Y-68147626D01*
X151000706Y-68097062D01*
X151068457Y-68067595D01*
X151141183Y-68037959D01*
X151203703Y-68014330D01*
X151206457Y-68013358D01*
X151255360Y-67995457D01*
X151293057Y-67980320D01*
X151311425Y-67971210D01*
X151311456Y-67971184D01*
X151317285Y-67954717D01*
X151327192Y-67914219D01*
X151340195Y-67854242D01*
X151355309Y-67779340D01*
X151371552Y-67694064D01*
X151372881Y-67686875D01*
X151389175Y-67599014D01*
X151404133Y-67519260D01*
X151416791Y-67452681D01*
X151426186Y-67404347D01*
X151431354Y-67379325D01*
X151431444Y-67378943D01*
X151434589Y-67368299D01*
X151440704Y-67360262D01*
X151453453Y-67354467D01*
X151476500Y-67350547D01*
X151513509Y-67348135D01*
X151568144Y-67346865D01*
X151644067Y-67346371D01*
X151744944Y-67346286D01*
X151758000Y-67346286D01*
X151861910Y-67346348D01*
G37*
D11*
%TO.C,C4*%
X112252000Y-60379000D02*
X112252000Y-60364000D01*
X112252000Y-60379000D02*
X107712000Y-60379000D01*
X112252000Y-58254000D02*
X112252000Y-58239000D01*
X112252000Y-58239000D02*
X107712000Y-58239000D01*
X107712000Y-60379000D02*
X107712000Y-60364000D01*
X107712000Y-58254000D02*
X107712000Y-58239000D01*
%TO.C,C1*%
X99094000Y-36625000D02*
X99094000Y-36610000D01*
X99094000Y-36625000D02*
X94554000Y-36625000D01*
X99094000Y-34500000D02*
X99094000Y-34485000D01*
X99094000Y-34485000D02*
X94554000Y-34485000D01*
X94554000Y-36625000D02*
X94554000Y-36610000D01*
X94554000Y-34500000D02*
X94554000Y-34485000D01*
%TO.C,U1*%
X91644000Y-37975000D02*
X91644000Y-55995000D01*
X91644000Y-55995000D02*
X101924000Y-55995000D01*
X94134000Y-38035000D02*
X94134000Y-55935000D01*
X94134000Y-55935000D02*
X99434000Y-55935000D01*
X95784000Y-38035000D02*
X94134000Y-38035000D01*
X99434000Y-38035000D02*
X97784000Y-38035000D01*
X99434000Y-55935000D02*
X99434000Y-38035000D01*
X101924000Y-37975000D02*
X91644000Y-37975000D01*
X101924000Y-55995000D02*
X101924000Y-37975000D01*
X95784000Y-38035000D02*
G75*
G03*
X97784000Y-38035000I1000000J0D01*
G01*
%TO.C,J1*%
X78172000Y-44898000D02*
X79502000Y-44898000D01*
X78172000Y-46228000D02*
X78172000Y-44898000D01*
X78172000Y-47498000D02*
X78172000Y-57718000D01*
X78172000Y-47498000D02*
X80772000Y-47498000D01*
X78172000Y-57718000D02*
X83372000Y-57718000D01*
X80772000Y-44898000D02*
X83372000Y-44898000D01*
X80772000Y-47498000D02*
X80772000Y-44898000D01*
X83372000Y-44898000D02*
X83372000Y-57718000D01*
%TO.C,J2*%
X174250000Y-66150000D02*
X173000000Y-66150000D01*
X173960000Y-66440000D02*
X167990000Y-66440000D01*
X167990000Y-66440000D02*
X167990000Y-74060000D01*
X173950000Y-66450000D02*
X173200000Y-66450000D01*
X173200000Y-66450000D02*
X173200000Y-68250000D01*
X171700000Y-66450000D02*
X171700000Y-67200000D01*
X171700000Y-67200000D02*
X168750000Y-67200000D01*
X168750000Y-67200000D02*
X168750000Y-70250000D01*
X174250000Y-67400000D02*
X174250000Y-66150000D01*
X173950000Y-68250000D02*
X173950000Y-66450000D01*
X173200000Y-68250000D02*
X173950000Y-68250000D01*
X173950000Y-69750000D02*
X173200000Y-69750000D01*
X173200000Y-69750000D02*
X173200000Y-70750000D01*
X173950000Y-70750000D02*
X173950000Y-69750000D01*
X173200000Y-70750000D02*
X173950000Y-70750000D01*
X173950000Y-72250000D02*
X173200000Y-72250000D01*
X173200000Y-72250000D02*
X173200000Y-74050000D01*
X171700000Y-73300000D02*
X168750000Y-73300000D01*
X168750000Y-73300000D02*
X168750000Y-70250000D01*
X173950000Y-74050000D02*
X173950000Y-72250000D01*
X173200000Y-74050000D02*
X173950000Y-74050000D01*
X171700000Y-74050000D02*
X171700000Y-73300000D01*
X173960000Y-74060000D02*
X173960000Y-66440000D01*
X167990000Y-74060000D02*
X173960000Y-74060000D01*
%TO.C,C3*%
X112262000Y-36625000D02*
X112262000Y-36610000D01*
X112262000Y-36625000D02*
X107722000Y-36625000D01*
X112262000Y-34500000D02*
X112262000Y-34485000D01*
X112262000Y-34485000D02*
X107722000Y-34485000D01*
X107722000Y-36625000D02*
X107722000Y-36610000D01*
X107722000Y-34500000D02*
X107722000Y-34485000D01*
%TD*%
M02*
