M48
; DRILL file {KiCad 7.0.8} date Wed Aug 21 13:00:40 2024
; FORMAT={-:-/ absolute / inch / decimal}
; #@! TF.CreationDate,2024-08-21T13:00:40+09:00
; #@! TF.GenerationSoftware,Kicad,Pcbnew,7.0.8
; #@! TF.FileFunction,Plated,1,2,PTH
FMAT,2
INCH
; #@! TA.AperFunction,Plated,PTH,ViaDrill
T1C0.0157
; #@! TA.AperFunction,Plated,PTH,ComponentDrill
T2C0.0315
; #@! TA.AperFunction,Plated,PTH,ComponentDrill
T3C0.0394
%
G90
G05
T1
X3.0512Y-1.5453
X3.0512Y-2.9429
X3.2874Y-1.3091
X3.2972Y-3.1988
X3.445Y-2.665
X3.45Y-2.36
X3.7598Y-2.6181
X3.8091Y-2.1654
X3.81Y-3.03
X4.02Y-2.37
X4.33Y-3.03
X4.3406Y-2.7854
X4.626Y-2.8346
X4.86Y-3.03
X4.8622Y-2.5197
X4.9016Y-2.7953
X5.39Y-3.03
X5.4528Y-2.8346
X5.77Y-2.65
X5.845Y-2.035
X5.915Y-1.95
X6.08Y-2.34
X6.23Y-2.17
X6.3484Y-1.565
X6.6142Y-1.7913
X6.6732Y-1.3287
X6.6732Y-3.1988
X6.9094Y-1.5354
X6.9094Y-2.9724
T2
X3.6604Y-1.5498
X3.6604Y-1.6498
X3.6604Y-1.7498
X3.6604Y-1.8498
X3.6604Y-1.9498
X3.6604Y-2.0498
X3.6604Y-2.1498
X3.6604Y-2.4798
X3.6604Y-2.5798
X3.6604Y-2.6798
X3.6604Y-2.7798
X3.6604Y-2.8798
X3.6604Y-2.9798
X3.6604Y-3.0798
X3.7116Y-2.335
X3.7135Y-1.3998
X3.9084Y-2.335
X3.9104Y-1.3998
X3.9604Y-1.5498
X3.9604Y-1.6498
X3.9604Y-1.7498
X3.9604Y-1.8498
X3.9604Y-1.9498
X3.9604Y-2.0498
X3.9604Y-2.1498
X3.9604Y-2.4798
X3.9604Y-2.5798
X3.9604Y-2.6798
X3.9604Y-2.7798
X3.9604Y-2.8798
X3.9604Y-2.9798
X3.9604Y-3.0798
X4.185Y-2.48
X4.185Y-2.58
X4.185Y-2.68
X4.185Y-2.78
X4.185Y-2.88
X4.185Y-2.98
X4.185Y-3.08
X4.1858Y-1.5496
X4.1858Y-1.6496
X4.1858Y-1.7496
X4.1858Y-1.8496
X4.1858Y-1.9496
X4.1858Y-2.0496
X4.1858Y-2.1496
X4.2316Y-2.335
X4.232Y-1.3998
X4.4284Y-2.335
X4.4288Y-1.3998
X4.485Y-2.48
X4.485Y-2.58
X4.485Y-2.68
X4.485Y-2.78
X4.485Y-2.88
X4.485Y-2.98
X4.485Y-3.08
X4.4858Y-1.5496
X4.4858Y-1.6496
X4.4858Y-1.7496
X4.4858Y-1.8496
X4.4858Y-1.9496
X4.4858Y-2.0496
X4.4858Y-2.1496
X4.71Y-2.48
X4.71Y-2.58
X4.71Y-2.68
X4.71Y-2.78
X4.71Y-2.88
X4.71Y-2.98
X4.71Y-3.08
X4.7104Y-1.5498
X4.7104Y-1.6498
X4.7104Y-1.7498
X4.7104Y-1.8498
X4.7104Y-1.9498
X4.7104Y-2.0498
X4.7104Y-2.1498
X4.7616Y-2.335
X4.762Y-1.3998
X4.9584Y-2.335
X4.9588Y-1.3998
X5.01Y-2.48
X5.01Y-2.58
X5.01Y-2.68
X5.01Y-2.78
X5.01Y-2.88
X5.01Y-2.98
X5.01Y-3.08
X5.0104Y-1.5498
X5.0104Y-1.6498
X5.0104Y-1.7498
X5.0104Y-1.8498
X5.0104Y-1.9498
X5.0104Y-2.0498
X5.0104Y-2.1498
X5.235Y-2.48
X5.235Y-2.58
X5.235Y-2.68
X5.235Y-2.78
X5.235Y-2.88
X5.235Y-2.98
X5.235Y-3.08
X5.2354Y-1.5498
X5.2354Y-1.6498
X5.2354Y-1.7498
X5.2354Y-1.8498
X5.2354Y-1.9498
X5.2354Y-2.0498
X5.2354Y-2.1498
X5.2816Y-2.335
X5.282Y-1.3998
X5.4784Y-2.335
X5.4788Y-1.3998
X5.535Y-2.48
X5.535Y-2.58
X5.535Y-2.68
X5.535Y-2.78
X5.535Y-2.88
X5.535Y-2.98
X5.535Y-3.08
X5.5354Y-1.5498
X5.5354Y-1.6498
X5.5354Y-1.7498
X5.5354Y-1.8498
X5.5354Y-1.9498
X5.5354Y-2.0498
X5.5354Y-2.1498
X5.7604Y-1.5498
X5.7604Y-1.6498
X5.7604Y-1.7498
X5.7604Y-1.8498
X5.7604Y-1.9498
X5.7604Y-2.0498
X5.7604Y-2.1498
X5.812Y-1.3998
X6.0088Y-1.3998
X6.0604Y-1.5498
X6.0604Y-1.6498
X6.0604Y-1.7498
X6.0604Y-1.8498
X6.0604Y-1.9498
X6.0604Y-2.0498
X6.0604Y-2.1498
X6.73Y-2.35
X6.73Y-2.4484
T3
X3.13Y-1.82
X3.13Y-1.92
X3.13Y-2.02
X3.13Y-2.12
X3.13Y-2.22
X3.23Y-1.82
X3.23Y-1.92
X3.23Y-2.02
X3.23Y-2.12
X3.23Y-2.22
X6.7323Y-1.7571
X6.7323Y-1.8571
X6.7323Y-1.9571
X6.7323Y-2.0571
X6.752Y-2.7165
X6.752Y-2.815
T0
M30
