%TF.GenerationSoftware,KiCad,Pcbnew,7.0.8*%
%TF.CreationDate,2024-08-21T13:00:36+09:00*%
%TF.ProjectId,adder,61646465-722e-46b6-9963-61645f706362,rev?*%
%TF.SameCoordinates,Original*%
%TF.FileFunction,Soldermask,Bot*%
%TF.FilePolarity,Negative*%
%FSLAX46Y46*%
G04 Gerber Fmt 4.6, Leading zero omitted, Abs format (unit mm)*
G04 Created by KiCad (PCBNEW 7.0.8) date 2024-08-21 13:00:36*
%MOMM*%
%LPD*%
G01*
G04 APERTURE LIST*
G04 Aperture macros list*
%AMRoundRect*
0 Rectangle with rounded corners*
0 $1 Rounding radius*
0 $2 $3 $4 $5 $6 $7 $8 $9 X,Y pos of 4 corners*
0 Add a 4 corners polygon primitive as box body*
4,1,4,$2,$3,$4,$5,$6,$7,$8,$9,$2,$3,0*
0 Add four circle primitives for the rounded corners*
1,1,$1+$1,$2,$3*
1,1,$1+$1,$4,$5*
1,1,$1+$1,$6,$7*
1,1,$1+$1,$8,$9*
0 Add four rect primitives between the rounded corners*
20,1,$1+$1,$2,$3,$4,$5,0*
20,1,$1+$1,$4,$5,$6,$7,0*
20,1,$1+$1,$6,$7,$8,$9,0*
20,1,$1+$1,$8,$9,$2,$3,0*%
G04 Aperture macros list end*
%ADD10R,1.600000X1.600000*%
%ADD11O,1.600000X1.600000*%
%ADD12C,1.600000*%
%ADD13R,1.700000X1.700000*%
%ADD14O,1.700000X1.700000*%
%ADD15C,3.200000*%
%ADD16RoundRect,0.250000X-0.750000X0.600000X-0.750000X-0.600000X0.750000X-0.600000X0.750000X0.600000X0*%
%ADD17O,2.000000X1.700000*%
G04 APERTURE END LIST*
D10*
%TO.C,U4*%
X106299000Y-62992000D03*
D11*
X106299000Y-65532000D03*
X106299000Y-68072000D03*
X106299000Y-70612000D03*
X106299000Y-73152000D03*
X106299000Y-75692000D03*
X106299000Y-78232000D03*
X113919000Y-78232000D03*
X113919000Y-75692000D03*
X113919000Y-73152000D03*
X113919000Y-70612000D03*
X113919000Y-68072000D03*
X113919000Y-65532000D03*
X113919000Y-62992000D03*
%TD*%
D10*
%TO.C,U7*%
X132979000Y-39365000D03*
D11*
X132979000Y-41905000D03*
X132979000Y-44445000D03*
X132979000Y-46985000D03*
X132979000Y-49525000D03*
X132979000Y-52065000D03*
X132979000Y-54605000D03*
X140599000Y-54605000D03*
X140599000Y-52065000D03*
X140599000Y-49525000D03*
X140599000Y-46985000D03*
X140599000Y-44445000D03*
X140599000Y-41905000D03*
X140599000Y-39365000D03*
%TD*%
D10*
%TO.C,C10*%
X170942000Y-59690000D03*
D12*
X170942000Y-62190000D03*
%TD*%
%TO.C,C7*%
X139162000Y-35555000D03*
X134162000Y-35555000D03*
%TD*%
%TO.C,C6*%
X125944000Y-59309000D03*
X120944000Y-59309000D03*
%TD*%
D10*
%TO.C,U6*%
X119634000Y-62992000D03*
D11*
X119634000Y-65532000D03*
X119634000Y-68072000D03*
X119634000Y-70612000D03*
X119634000Y-73152000D03*
X119634000Y-75692000D03*
X119634000Y-78232000D03*
X127254000Y-78232000D03*
X127254000Y-75692000D03*
X127254000Y-73152000D03*
X127254000Y-70612000D03*
X127254000Y-68072000D03*
X127254000Y-65532000D03*
X127254000Y-62992000D03*
%TD*%
D10*
%TO.C,U5*%
X119644000Y-39365000D03*
D11*
X119644000Y-41905000D03*
X119644000Y-44445000D03*
X119644000Y-46985000D03*
X119644000Y-49525000D03*
X119644000Y-52065000D03*
X119644000Y-54605000D03*
X127264000Y-54605000D03*
X127264000Y-52065000D03*
X127264000Y-49525000D03*
X127264000Y-46985000D03*
X127264000Y-44445000D03*
X127264000Y-41905000D03*
X127264000Y-39365000D03*
%TD*%
D12*
%TO.C,C2*%
X99274000Y-59309000D03*
X94274000Y-59309000D03*
%TD*%
D13*
%TO.C,J3*%
X171000000Y-44630000D03*
D14*
X171000000Y-47170000D03*
X171000000Y-49710000D03*
X171000000Y-52250000D03*
%TD*%
D10*
%TO.C,U3*%
X106319000Y-39360000D03*
D11*
X106319000Y-41900000D03*
X106319000Y-44440000D03*
X106319000Y-46980000D03*
X106319000Y-49520000D03*
X106319000Y-52060000D03*
X106319000Y-54600000D03*
X113939000Y-54600000D03*
X113939000Y-52060000D03*
X113939000Y-49520000D03*
X113939000Y-46980000D03*
X113939000Y-44440000D03*
X113939000Y-41900000D03*
X113939000Y-39360000D03*
%TD*%
D10*
%TO.C,U8*%
X132969000Y-62992000D03*
D11*
X132969000Y-65532000D03*
X132969000Y-68072000D03*
X132969000Y-70612000D03*
X132969000Y-73152000D03*
X132969000Y-75692000D03*
X132969000Y-78232000D03*
X140589000Y-78232000D03*
X140589000Y-75692000D03*
X140589000Y-73152000D03*
X140589000Y-70612000D03*
X140589000Y-68072000D03*
X140589000Y-65532000D03*
X140589000Y-62992000D03*
%TD*%
D12*
%TO.C,C8*%
X139152000Y-59309000D03*
X134152000Y-59309000D03*
%TD*%
D10*
%TO.C,U2*%
X92974000Y-62987000D03*
D11*
X92974000Y-65527000D03*
X92974000Y-68067000D03*
X92974000Y-70607000D03*
X92974000Y-73147000D03*
X92974000Y-75687000D03*
X92974000Y-78227000D03*
X100594000Y-78227000D03*
X100594000Y-75687000D03*
X100594000Y-73147000D03*
X100594000Y-70607000D03*
X100594000Y-68067000D03*
X100594000Y-65527000D03*
X100594000Y-62987000D03*
%TD*%
D15*
%TO.C,H1*%
X79500000Y-35250000D03*
%TD*%
D12*
%TO.C,C5*%
X125954000Y-35555000D03*
X120954000Y-35555000D03*
%TD*%
D15*
%TO.C,H2*%
X79500000Y-79250000D03*
%TD*%
%TO.C,H3*%
X173500000Y-79250000D03*
%TD*%
D10*
%TO.C,U9*%
X146314000Y-39365000D03*
D11*
X146314000Y-41905000D03*
X146314000Y-44445000D03*
X146314000Y-46985000D03*
X146314000Y-49525000D03*
X146314000Y-52065000D03*
X146314000Y-54605000D03*
X153934000Y-54605000D03*
X153934000Y-52065000D03*
X153934000Y-49525000D03*
X153934000Y-46985000D03*
X153934000Y-44445000D03*
X153934000Y-41905000D03*
X153934000Y-39365000D03*
%TD*%
D12*
%TO.C,C9*%
X152624000Y-35555000D03*
X147624000Y-35555000D03*
%TD*%
%TO.C,C4*%
X112482000Y-59309000D03*
X107482000Y-59309000D03*
%TD*%
%TO.C,C1*%
X99324000Y-35555000D03*
X94324000Y-35555000D03*
%TD*%
D10*
%TO.C,U1*%
X92974000Y-39365000D03*
D11*
X92974000Y-41905000D03*
X92974000Y-44445000D03*
X92974000Y-46985000D03*
X92974000Y-49525000D03*
X92974000Y-52065000D03*
X92974000Y-54605000D03*
X100594000Y-54605000D03*
X100594000Y-52065000D03*
X100594000Y-49525000D03*
X100594000Y-46985000D03*
X100594000Y-44445000D03*
X100594000Y-41905000D03*
X100594000Y-39365000D03*
%TD*%
D15*
%TO.C,H4*%
X173500000Y-35250000D03*
%TD*%
D13*
%TO.C,J1*%
X79502000Y-46228000D03*
D14*
X82042000Y-46228000D03*
X79502000Y-48768000D03*
X82042000Y-48768000D03*
X79502000Y-51308000D03*
X82042000Y-51308000D03*
X79502000Y-53848000D03*
X82042000Y-53848000D03*
X79502000Y-56388000D03*
X82042000Y-56388000D03*
%TD*%
D16*
%TO.C,J2*%
X171500000Y-69000000D03*
D17*
X171500000Y-71500000D03*
%TD*%
D12*
%TO.C,C3*%
X112492000Y-35555000D03*
X107492000Y-35555000D03*
%TD*%
M02*
